STARTFONT 2.1
FONT -FontForge-DejaVu LGC Sans-Bold-R-Normal-Sans--32-310-75-75-P-234-ISO10646-1
SIZE 31 75 75
FONTBOUNDINGBOX 94 48 -34 -12
COMMENT "Generated by fontforge, http://fontforge.sourceforge.net"
COMMENT "Copyright (c) 2003 by Bitstream, Inc. All Rights Reserved."
COMMENT "Copyright (c) 2006 by Tavmjong Bah. All Rights Reserved."
COMMENT "DejaVu changes are in public domain"
STARTPROPERTIES 40
FOUNDRY "FontForge"
FAMILY_NAME "DejaVu LGC Sans"
WEIGHT_NAME "Bold"
SLANT "R"
SETWIDTH_NAME "Normal"
ADD_STYLE_NAME "Sans"
PIXEL_SIZE 32
POINT_SIZE 310
RESOLUTION_X 75
RESOLUTION_Y 75
SPACING "P"
AVERAGE_WIDTH 234
CHARSET_REGISTRY "ISO10646"
CHARSET_ENCODING "1"
FONTNAME_REGISTRY ""
CHARSET_COLLECTIONS "ASCII ISOLatin1Encoding ISO8859-2 ISO8859-5 ISO8859-7 ISO8859-9 ISO8859-4 ISO10646-1"
FONT_NAME "DejaVuLGCSans-Bold"
FACE_NAME "DejaVu LGC Sans Bold"
COPYRIGHT "Copyright (c) 2003 by Bitstream, Inc. All Rights Reserved."
FONT_VERSION "2.37"
FONT_ASCENT 24
FONT_DESCENT 8
UNDERLINE_POSITION -3
UNDERLINE_THICKNESS 2
X_HEIGHT 17
CAP_HEIGHT 22
RAW_ASCENT 759
RAW_DESCENT 240
NORM_SPACE 11
RELATIVE_WEIGHT 70
RELATIVE_SETWIDTH 50
SUPERSCRIPT_X 0
SUPERSCRIPT_Y 15
SUPERSCRIPT_SIZE 22
SUBSCRIPT_X 0
SUBSCRIPT_Y 4
SUBSCRIPT_SIZE 22
FIGURE_WIDTH 22
AVG_LOWERCASE_WIDTH 210
AVG_UPPERCASE_WIDTH 262
ENDPROPERTIES
CHARS 4363
STARTCHAR space
ENCODING 32
SWIDTH 348 0
DWIDTH 11 0
BBX 1 1 0 0
BITMAP
00
ENDCHAR
STARTCHAR exclam
ENCODING 33
SWIDTH 456 0
DWIDTH 15 0
BBX 6 23 4 0
BITMAP
FC
FC
FC
FC
FC
FC
FC
FC
FC
FC
FC
FC
7C
78
78
00
00
FC
FC
FC
FC
FC
FC
ENDCHAR
STARTCHAR quotedbl
ENCODING 34
SWIDTH 520 0
DWIDTH 17 0
BBX 11 9 3 14
BITMAP
F1E0
F1E0
F1E0
F1E0
F1E0
F1E0
F1E0
F1E0
F1E0
ENDCHAR
STARTCHAR numbersign
ENCODING 35
SWIDTH 837 0
DWIDTH 27 0
BBX 22 23 2 0
BITMAP
00F0E0
00F0E0
00E1E0
00E1E0
01E1C0
01E1C0
01C3C0
3FFFFC
3FFFFC
3FFFFC
038780
038780
078700
078700
FFFFF0
FFFFF0
FFFFF0
0F0E00
0E1E00
0E1C00
1E1C00
1E1C00
1C3C00
ENDCHAR
STARTCHAR dollar
ENCODING 36
SWIDTH 695 0
DWIDTH 22 0
BBX 18 30 2 -5
BITMAP
01C000
01C000
01C000
01C000
0FF800
3FFF00
7FFF80
7FFF80
FDC780
F9C080
F9C000
F9C000
FFC000
7FFC00
3FFF00
1FFF80
01FFC0
01CFC0
01C7C0
81C7C0
F1CFC0
FFFF80
FFFF80
7FFF00
0FF800
01C000
01C000
01C000
01C000
01C000
ENDCHAR
STARTCHAR percent
ENCODING 37
SWIDTH 1001 0
DWIDTH 32 0
BBX 30 23 1 0
BITMAP
1F800F00
3FC00E00
7FE01E00
F9E03C00
F0F03800
F0F07800
F0F0F000
F0F0E000
F0F1E000
F9E1C000
7FE387E0
3FC78FF0
1F871FF8
000F3E78
001E3C3C
001C3C3C
003C3C3C
00783C3C
00703C3C
00F03E78
01E01FF8
01C00FF0
03C007E0
ENDCHAR
STARTCHAR ampersand
ENCODING 38
SWIDTH 872 0
DWIDTH 28 0
BBX 25 23 2 0
BITMAP
01FC0000
07FF0000
0FFF0000
1FFF0000
1F830000
1F800000
1F800000
0FC00000
07E00000
1FF01F00
3FF81F00
7FFC3F00
7EFC3E00
FC7E7E00
FC3FFE00
FC3FFC00
FC1FF800
FE0FF000
7F0FF800
7FFFFC00
3FFFFE00
1FFF7F00
07F83F80
ENDCHAR
STARTCHAR quotesingle
ENCODING 39
SWIDTH 306 0
DWIDTH 10 0
BBX 4 9 3 14
BITMAP
F0
F0
F0
F0
F0
F0
F0
F0
F0
ENDCHAR
STARTCHAR parenleft
ENCODING 40
SWIDTH 457 0
DWIDTH 15 0
BBX 9 29 3 -5
BITMAP
0F80
0F00
1F00
1E00
3E00
3E00
7C00
7C00
7C00
7C00
F800
F800
F800
F800
F800
F800
F800
F800
F800
7800
7C00
7C00
7C00
3E00
3E00
1E00
1F00
0F00
0F80
ENDCHAR
STARTCHAR parenright
ENCODING 41
SWIDTH 457 0
DWIDTH 15 0
BBX 9 29 3 -5
BITMAP
F800
7800
7C00
3C00
3E00
3E00
1F00
1F00
1F00
1F00
0F80
0F80
0F80
0F80
0F80
0F80
0F80
0F80
0F80
1F00
1F00
1F00
1F00
3E00
3E00
3C00
7C00
7800
F800
ENDCHAR
STARTCHAR asterisk
ENCODING 42
SWIDTH 522 0
DWIDTH 17 0
BBX 15 15 1 8
BITMAP
0380
0380
0380
4384
F39E
7FFC
1FF0
07C0
1FF0
7FFC
F39E
4384
0380
0380
0380
ENDCHAR
STARTCHAR plus
ENCODING 43
SWIDTH 837 0
DWIDTH 27 0
BBX 20 20 4 0
BITMAP
00F000
00F000
00F000
00F000
00F000
00F000
00F000
00F000
FFFFF0
FFFFF0
FFFFF0
FFFFF0
00F000
00F000
00F000
00F000
00F000
00F000
00F000
00F000
ENDCHAR
STARTCHAR comma
ENCODING 44
SWIDTH 379 0
DWIDTH 12 0
BBX 8 11 1 -5
BITMAP
3F
3F
3F
3F
3F
3F
7E
7C
78
F0
E0
ENDCHAR
STARTCHAR hyphen
ENCODING 45
SWIDTH 415 0
DWIDTH 13 0
BBX 10 5 2 7
BITMAP
FFC0
FFC0
FFC0
FFC0
FFC0
ENDCHAR
STARTCHAR period
ENCODING 46
SWIDTH 379 0
DWIDTH 12 0
BBX 6 6 3 0
BITMAP
FC
FC
FC
FC
FC
FC
ENDCHAR
STARTCHAR slash
ENCODING 47
SWIDTH 365 0
DWIDTH 12 0
BBX 12 26 0 -3
BITMAP
00F0
00F0
00E0
01E0
01E0
01C0
03C0
03C0
0380
0780
0780
0700
0F00
0F00
0E00
1E00
1E00
1C00
3C00
3C00
3800
7800
7800
7000
F000
F000
ENDCHAR
STARTCHAR zero
ENCODING 48
SWIDTH 695 0
DWIDTH 22 0
BBX 19 23 2 0
BITMAP
03F800
0FFE00
1FFF00
3FFF80
7F1FC0
7E0FC0
7C0FC0
FC07E0
FC07E0
FC07E0
FC07E0
FC07E0
FC07E0
FC07E0
FC07E0
FC07E0
7E0FC0
7E0FC0
7F1FC0
3FFF80
1FFF00
0FFE00
03F800
ENDCHAR
STARTCHAR one
ENCODING 49
SWIDTH 695 0
DWIDTH 22 0
BBX 16 23 4 0
BITMAP
3FE0
FFE0
FFE0
FFE0
E7E0
07E0
07E0
07E0
07E0
07E0
07E0
07E0
07E0
07E0
07E0
07E0
07E0
07E0
07E0
FFFF
FFFF
FFFF
FFFF
ENDCHAR
STARTCHAR two
ENCODING 50
SWIDTH 695 0
DWIDTH 22 0
BBX 17 23 3 0
BITMAP
1FF000
FFFC00
FFFE00
FFFF00
F07F80
803F80
001F80
001F80
001F80
003F80
003F80
007F00
01FF00
03FE00
07FC00
0FF800
1FF000
3FE000
7FC000
FFFF80
FFFF80
FFFF80
FFFF80
ENDCHAR
STARTCHAR three
ENCODING 51
SWIDTH 695 0
DWIDTH 22 0
BBX 18 23 2 0
BITMAP
1FF000
7FFE00
7FFF00
7FFF00
607F80
001F80
001F80
001F80
001F80
007F00
0FFE00
0FF800
0FFF00
0FFF80
003FC0
000FC0
000FC0
800FC0
F03FC0
FFFF80
FFFF00
FFFE00
3FF000
ENDCHAR
STARTCHAR four
ENCODING 52
SWIDTH 695 0
DWIDTH 22 0
BBX 19 23 2 0
BITMAP
007F00
00FF00
00FF00
01FF00
03FF00
07FF00
07FF00
0FBF00
1F3F00
1E3F00
3E3F00
7C3F00
F83F00
F83F00
FFFFE0
FFFFE0
FFFFE0
FFFFE0
003F00
003F00
003F00
003F00
003F00
ENDCHAR
STARTCHAR five
ENCODING 53
SWIDTH 695 0
DWIDTH 22 0
BBX 18 23 2 0
BITMAP
7FFF00
7FFF00
7FFF00
7FFF00
7C0000
7C0000
7C0000
7FF800
7FFE00
7FFF00
7FFF80
703F80
401FC0
000FC0
000FC0
000FC0
000FC0
801FC0
F03F80
FFFF80
FFFF00
FFFC00
3FF000
ENDCHAR
STARTCHAR six
ENCODING 54
SWIDTH 695 0
DWIDTH 22 0
BBX 19 23 2 0
BITMAP
01FC00
07FF00
0FFF80
1FFF80
3F8380
7E0080
7E0000
FCFC00
FFFF00
FFFF80
FFFFC0
FF0FC0
FE07E0
FE07E0
FE07E0
FE07E0
7E07E0
7E07E0
7F0FC0
3FFFC0
1FFF80
0FFE00
03F800
ENDCHAR
STARTCHAR seven
ENCODING 55
SWIDTH 695 0
DWIDTH 22 0
BBX 18 23 2 0
BITMAP
FFFFC0
FFFFC0
FFFFC0
FFFFC0
001F80
003F80
003F80
007F00
007F00
00FE00
00FE00
01FC00
01FC00
01F800
03F800
03F000
07F000
07E000
0FE000
0FC000
1FC000
1F8000
3F8000
ENDCHAR
STARTCHAR eight
ENCODING 56
SWIDTH 695 0
DWIDTH 22 0
BBX 18 23 2 0
BITMAP
07F800
1FFE00
3FFF00
7FFF80
7F3F80
7E1F80
7E1F80
7E1F80
3F3F00
3FFE00
0FFC00
1FFE00
3FFF00
7E1F80
FC0FC0
FC0FC0
FC0FC0
FC0FC0
FE1FC0
7FFF80
7FFF80
1FFF00
07F800
ENDCHAR
STARTCHAR nine
ENCODING 57
SWIDTH 695 0
DWIDTH 22 0
BBX 19 23 2 0
BITMAP
03F800
0FFE00
3FFF00
7FFF80
7E1FC0
FC0FC0
FC0FC0
FC0FE0
FC0FE0
FC0FE0
FC0FE0
7E1FE0
7FFFE0
3FFFE0
1FFFE0
07E7C0
000FC0
200FC0
383F80
3FFF00
3FFE00
1FFC00
07F000
ENDCHAR
STARTCHAR colon
ENCODING 58
SWIDTH 399 0
DWIDTH 13 0
BBX 6 18 4 0
BITMAP
FC
FC
FC
FC
FC
FC
00
00
00
00
00
00
FC
FC
FC
FC
FC
FC
ENDCHAR
STARTCHAR semicolon
ENCODING 59
SWIDTH 399 0
DWIDTH 13 0
BBX 8 23 2 -5
BITMAP
3F
3F
3F
3F
3F
3F
00
00
00
00
00
00
3F
3F
3F
3F
3F
3F
7E
7C
78
F0
E0
ENDCHAR
STARTCHAR less
ENCODING 60
SWIDTH 837 0
DWIDTH 27 0
BBX 20 18 3 1
BITMAP
000010
0000F0
0007F0
003FF0
01FFC0
07FE00
3FF000
FF8000
FC0000
FC0000
FF8000
3FF000
07FE00
01FFC0
003FF0
0007F0
0000F0
000010
ENDCHAR
STARTCHAR equal
ENCODING 61
SWIDTH 837 0
DWIDTH 27 0
BBX 20 11 3 4
BITMAP
FFFFF0
FFFFF0
FFFFF0
FFFFF0
000000
000000
000000
FFFFF0
FFFFF0
FFFFF0
FFFFF0
ENDCHAR
STARTCHAR greater
ENCODING 62
SWIDTH 837 0
DWIDTH 27 0
BBX 20 18 3 1
BITMAP
800000
F00000
FE0000
FFC000
3FF800
07FE00
00FFC0
001FF0
0007F0
0003F0
001FF0
00FFC0
07FE00
3FF800
FFC000
FE0000
F00000
800000
ENDCHAR
STARTCHAR question
ENCODING 63
SWIDTH 580 0
DWIDTH 19 0
BBX 14 23 2 0
BITMAP
3FC0
FFF0
FFF8
FFFC
E1FC
80FC
00FC
00FC
01F8
03F8
07F0
0FE0
1FC0
1F80
1F80
0000
0000
1F80
1F80
1F80
1F80
1F80
1F80
ENDCHAR
STARTCHAR at
ENCODING 64
SWIDTH 1000 0
DWIDTH 32 0
BBX 28 28 2 -5
BITMAP
001FC000
00FFF800
03FFFE00
07E03F00
0F800F80
1E0003C0
3C0001C0
381E78E0
707F78E0
70FFF870
F0F0F870
E1F0F870
E1E07870
E1E07870
E1E07870
E1E078E0
E1F0F8E0
F0F0FBC0
70FFFFC0
707F7F00
781E7C00
3C000000
1E000400
0F000C00
07E07E00
03FFFC00
00FFF000
003FC000
ENDCHAR
STARTCHAR A
ENCODING 65
SWIDTH 773 0
DWIDTH 25 0
BBX 24 23 0 0
BITMAP
00FF00
00FF00
00FF00
01FF80
01FF80
03FFC0
03FFC0
03FFC0
07FFE0
07E7E0
07E7E0
0FE7F0
0FC3F0
1FC3F8
1FFFF8
1FFFF8
3FFFFC
3FFFFC
3F00FC
7F00FE
7E007E
7E007E
FE007F
ENDCHAR
STARTCHAR B
ENCODING 66
SWIDTH 762 0
DWIDTH 24 0
BBX 19 23 3 0
BITMAP
FFFC00
FFFF00
FFFF80
FFFFC0
FC1FC0
FC0FC0
FC0FC0
FC0FC0
FC1F80
FFFF80
FFFE00
FFFF80
FFFFC0
FC0FC0
FC07E0
FC07E0
FC07E0
FC07E0
FC0FE0
FFFFC0
FFFFC0
FFFF80
FFFC00
ENDCHAR
STARTCHAR C
ENCODING 67
SWIDTH 733 0
DWIDTH 23 0
BBX 20 23 2 0
BITMAP
00FF80
03FFF0
0FFFF0
1FFFF0
3FC070
7F0010
7E0000
7E0000
FC0000
FC0000
FC0000
FC0000
FC0000
FC0000
FC0000
7E0000
7E0000
7F0010
3FC070
1FFFF0
0FFFF0
03FFF0
00FF80
ENDCHAR
STARTCHAR D
ENCODING 68
SWIDTH 830 0
DWIDTH 27 0
BBX 22 23 3 0
BITMAP
FFF800
FFFF00
FFFFC0
FFFFE0
FC0FF0
FC03F8
FC01F8
FC01F8
FC00FC
FC00FC
FC00FC
FC00FC
FC00FC
FC00FC
FC00FC
FC01F8
FC01F8
FC03F8
FC0FF0
FFFFE0
FFFFC0
FFFF00
FFF800
ENDCHAR
STARTCHAR E
ENCODING 69
SWIDTH 683 0
DWIDTH 22 0
BBX 17 23 3 0
BITMAP
FFFF80
FFFF80
FFFF80
FFFF80
FC0000
FC0000
FC0000
FC0000
FC0000
FFFF00
FFFF00
FFFF00
FFFF00
FC0000
FC0000
FC0000
FC0000
FC0000
FC0000
FFFF80
FFFF80
FFFF80
FFFF80
ENDCHAR
STARTCHAR F
ENCODING 70
SWIDTH 683 0
DWIDTH 22 0
BBX 16 23 3 0
BITMAP
FFFF
FFFF
FFFF
FFFF
FC00
FC00
FC00
FC00
FC00
FFFE
FFFE
FFFE
FFFE
FC00
FC00
FC00
FC00
FC00
FC00
FC00
FC00
FC00
FC00
ENDCHAR
STARTCHAR G
ENCODING 71
SWIDTH 820 0
DWIDTH 26 0
BBX 22 23 2 0
BITMAP
00FFC0
03FFF8
0FFFF8
1FFFF8
3FC078
7F0008
7E0000
7E0000
FC0000
FC0000
FC0FFC
FC0FFC
FC0FFC
FC0FFC
FC00FC
7E00FC
7E00FC
7F00FC
3FC0FC
1FFFFC
0FFFFC
03FFF8
00FF80
ENDCHAR
STARTCHAR H
ENCODING 72
SWIDTH 836 0
DWIDTH 27 0
BBX 21 23 3 0
BITMAP
FC01F8
FC01F8
FC01F8
FC01F8
FC01F8
FC01F8
FC01F8
FC01F8
FC01F8
FFFFF8
FFFFF8
FFFFF8
FFFFF8
FC01F8
FC01F8
FC01F8
FC01F8
FC01F8
FC01F8
FC01F8
FC01F8
FC01F8
FC01F8
ENDCHAR
STARTCHAR I
ENCODING 73
SWIDTH 372 0
DWIDTH 12 0
BBX 6 23 3 0
BITMAP
FC
FC
FC
FC
FC
FC
FC
FC
FC
FC
FC
FC
FC
FC
FC
FC
FC
FC
FC
FC
FC
FC
FC
ENDCHAR
STARTCHAR J
ENCODING 74
SWIDTH 372 0
DWIDTH 12 0
BBX 11 29 -2 -6
BITMAP
07E0
07E0
07E0
07E0
07E0
07E0
07E0
07E0
07E0
07E0
07E0
07E0
07E0
07E0
07E0
07E0
07E0
07E0
07E0
07E0
07E0
07E0
07E0
0FE0
1FC0
FFC0
FF80
FF00
F800
ENDCHAR
STARTCHAR K
ENCODING 75
SWIDTH 774 0
DWIDTH 25 0
BBX 23 23 3 0
BITMAP
FC03F8
FC07F0
FC0FE0
FC1FC0
FC3F80
FC7F00
FCFE00
FDFC00
FFF800
FFF000
FFE000
FFE000
FFF000
FFF800
FDFC00
FCFE00
FC7F00
FC3F80
FC1FC0
FC0FE0
FC07F0
FC03F8
FC01FE
ENDCHAR
STARTCHAR L
ENCODING 76
SWIDTH 637 0
DWIDTH 20 0
BBX 17 23 3 0
BITMAP
FC0000
FC0000
FC0000
FC0000
FC0000
FC0000
FC0000
FC0000
FC0000
FC0000
FC0000
FC0000
FC0000
FC0000
FC0000
FC0000
FC0000
FC0000
FC0000
FFFF80
FFFF80
FFFF80
FFFF80
ENDCHAR
STARTCHAR M
ENCODING 77
SWIDTH 995 0
DWIDTH 32 0
BBX 26 23 3 0
BITMAP
FF003FC0
FF003FC0
FF807FC0
FF807FC0
FFC0FFC0
FFC0FFC0
FFC0FFC0
FFE1FFC0
FDE1EFC0
FDF3EFC0
FCF3CFC0
FCF3CFC0
FC7F8FC0
FC7F8FC0
FC7F8FC0
FC3F0FC0
FC3F0FC0
FC1E0FC0
FC1E0FC0
FC000FC0
FC000FC0
FC000FC0
FC000FC0
ENDCHAR
STARTCHAR N
ENCODING 78
SWIDTH 836 0
DWIDTH 27 0
BBX 21 23 3 0
BITMAP
FE01F8
FF01F8
FF01F8
FF81F8
FF81F8
FFC1F8
FFC1F8
FFE1F8
FDE1F8
FDF1F8
FCF1F8
FCF9F8
FC79F8
FC7DF8
FC3DF8
FC3FF8
FC1FF8
FC1FF8
FC0FF8
FC0FF8
FC07F8
FC07F8
FC03F8
ENDCHAR
STARTCHAR O
ENCODING 79
SWIDTH 850 0
DWIDTH 27 0
BBX 24 23 2 0
BITMAP
00FF00
07FFE0
0FFFF0
1FFFF8
3F83FC
7F00FE
7E007E
7E007E
FC003F
FC003F
FC003F
FC003F
FC003F
FC003F
FC003F
7E007E
7E007E
7F00FE
3F81FC
1FFFF8
0FFFF0
07FFE0
00FF00
ENDCHAR
STARTCHAR P
ENCODING 80
SWIDTH 732 0
DWIDTH 23 0
BBX 19 23 3 0
BITMAP
FFFC00
FFFF00
FFFF80
FFFFC0
FC1FC0
FC0FE0
FC07E0
FC07E0
FC07E0
FC0FE0
FC1FC0
FFFFC0
FFFF80
FFFF00
FFFC00
FC0000
FC0000
FC0000
FC0000
FC0000
FC0000
FC0000
FC0000
ENDCHAR
STARTCHAR Q
ENCODING 81
SWIDTH 850 0
DWIDTH 27 0
BBX 24 28 2 -5
BITMAP
00FF00
07FFE0
0FFFF0
1FFFF8
3F83FC
7F00FE
7E007E
7E007E
FC003F
FC003F
FC003F
FC003F
FC003F
FC003F
FC003F
7E007E
7E007E
7F00FE
3F81FC
1FFFF8
0FFFF0
07FFE0
00FFC0
0007E0
0003F0
0001F0
0001F8
0000FC
ENDCHAR
STARTCHAR R
ENCODING 82
SWIDTH 770 0
DWIDTH 25 0
BBX 21 23 3 0
BITMAP
FFF800
FFFF00
FFFF80
FFFF80
FC1FC0
FC0FC0
FC0FC0
FC0FC0
FC0FC0
FC0FC0
FC1F80
FFFF00
FFFE00
FFFE00
FFFF00
FC3F80
FC1F80
FC1FC0
FC0FE0
FC0FE0
FC07F0
FC07F0
FC03F8
ENDCHAR
STARTCHAR S
ENCODING 83
SWIDTH 720 0
DWIDTH 23 0
BBX 18 23 2 0
BITMAP
07F800
1FFF00
7FFF00
7FFF00
FE0700
FC0100
FC0000
FC0000
FE0000
FFE000
7FFC00
3FFF00
1FFF80
03FFC0
003FC0
000FC0
000FC0
800FC0
F01FC0
FFFF80
FFFF80
FFFE00
0FF800
ENDCHAR
STARTCHAR T
ENCODING 84
SWIDTH 682 0
DWIDTH 22 0
BBX 22 23 0 0
BITMAP
FFFFFC
FFFFFC
FFFFFC
FFFFFC
00FC00
00FC00
00FC00
00FC00
00FC00
00FC00
00FC00
00FC00
00FC00
00FC00
00FC00
00FC00
00FC00
00FC00
00FC00
00FC00
00FC00
00FC00
00FC00
ENDCHAR
STARTCHAR U
ENCODING 85
SWIDTH 812 0
DWIDTH 26 0
BBX 20 23 3 0
BITMAP
FC03F0
FC03F0
FC03F0
FC03F0
FC03F0
FC03F0
FC03F0
FC03F0
FC03F0
FC03F0
FC03F0
FC03F0
FC03F0
FC03F0
FC03F0
FC03F0
FC03F0
FE07E0
7F0FE0
7FFFE0
3FFFC0
1FFF00
03FC00
ENDCHAR
STARTCHAR V
ENCODING 86
SWIDTH 773 0
DWIDTH 25 0
BBX 24 23 0 0
BITMAP
FE007F
7E007E
7E007E
7F00FE
3F00FC
3F00FC
3F81FC
1F81F8
1FC3F8
1FC3F8
0FC3F0
0FE7F0
07E7E0
07E7E0
07FFE0
03FFC0
03FFC0
03FFC0
01FF80
01FF80
00FF00
00FF00
00FF00
ENDCHAR
STARTCHAR W
ENCODING 87
SWIDTH 1103 0
DWIDTH 35 0
BBX 33 23 1 0
BITMAP
FC03F01F80
FE07F03F80
7E07F03F00
7E07F03F00
7E07F03F00
7E0F783F00
3F0F787E00
3F0F787E00
3F0F787E00
3F1F3C7E00
3F9E3CFE00
1F9E3CFC00
1F9E3CFC00
1FBE3EFC00
1FFC1FFC00
0FFC1FF800
0FFC1FF800
0FFC1FF800
0FF80FF800
07F80FF000
07F80FF000
07F80FF000
07F007F000
ENDCHAR
STARTCHAR X
ENCODING 88
SWIDTH 770 0
DWIDTH 25 0
BBX 23 23 1 0
BITMAP
FF01FE
7F01FC
3F83F8
3FC7F8
1FC7F0
0FEFE0
07FFC0
07FFC0
03FF80
01FF00
01FF00
00FE00
01FF00
03FF80
03FF80
07FFC0
0FFFE0
0FEFE0
1FC7F0
3FC7F8
3F83F8
7F01FC
FF01FE
ENDCHAR
STARTCHAR Y
ENCODING 89
SWIDTH 724 0
DWIDTH 23 0
BBX 24 23 0 0
BITMAP
FF00FF
7F00FE
3F81FC
3FC3FC
1FC3F8
0FE7F0
0FFFF0
07FFE0
03FFC0
03FFC0
01FF80
00FF00
00FF00
007E00
007E00
007E00
007E00
007E00
007E00
007E00
007E00
007E00
007E00
ENDCHAR
STARTCHAR Z
ENCODING 90
SWIDTH 725 0
DWIDTH 23 0
BBX 20 23 1 0
BITMAP
FFFFF0
FFFFF0
FFFFF0
FFFFF0
000FE0
001FE0
003FC0
007F80
00FF00
00FE00
01FE00
03FC00
07F800
07F000
0FE000
1FE000
3FC000
7F8000
7F0000
FFFFF0
FFFFF0
FFFFF0
FFFFF0
ENDCHAR
STARTCHAR bracketleft
ENCODING 91
SWIDTH 457 0
DWIDTH 15 0
BBX 9 29 3 -5
BITMAP
FF80
FF80
FF80
FF80
F800
F800
F800
F800
F800
F800
F800
F800
F800
F800
F800
F800
F800
F800
F800
F800
F800
F800
F800
F800
F800
FF80
FF80
FF80
FF80
ENDCHAR
STARTCHAR backslash
ENCODING 92
SWIDTH 365 0
DWIDTH 12 0
BBX 12 26 0 -3
BITMAP
F000
F000
7000
7800
7800
3800
3C00
3C00
1C00
1E00
1E00
0E00
0F00
0F00
0700
0780
0780
0380
03C0
03C0
01C0
01E0
01E0
00E0
00F0
00F0
ENDCHAR
STARTCHAR bracketright
ENCODING 93
SWIDTH 457 0
DWIDTH 15 0
BBX 9 29 3 -5
BITMAP
FF80
FF80
FF80
FF80
0F80
0F80
0F80
0F80
0F80
0F80
0F80
0F80
0F80
0F80
0F80
0F80
0F80
0F80
0F80
0F80
0F80
0F80
0F80
0F80
0F80
FF80
FF80
FF80
FF80
ENDCHAR
STARTCHAR asciicircum
ENCODING 94
SWIDTH 837 0
DWIDTH 27 0
BBX 20 9 3 14
BITMAP
00F000
01F800
03FC00
07FE00
0FFF00
1F0F80
3E07C0
7C03E0
F000F0
ENDCHAR
STARTCHAR underscore
ENCODING 95
SWIDTH 500 0
DWIDTH 16 0
BBX 16 3 0 -8
BITMAP
FFFF
FFFF
FFFF
ENDCHAR
STARTCHAR grave
ENCODING 96
SWIDTH 500 0
DWIDTH 16 0
BBX 9 6 1 20
BITMAP
F800
7C00
3C00
1E00
0F00
0780
ENDCHAR
STARTCHAR a
ENCODING 97
SWIDTH 674 0
DWIDTH 22 0
BBX 18 18 1 0
BITMAP
0FF800
3FFE00
3FFF00
3FFF80
301F80
000FC0
000FC0
0FFFC0
3FFFC0
7FFFC0
FE0FC0
FC0FC0
FC1FC0
FE3FC0
FFFFC0
7FFFC0
3FEFC0
1F8FC0
ENDCHAR
STARTCHAR b
ENCODING 98
SWIDTH 715 0
DWIDTH 23 0
BBX 19 24 3 0
BITMAP
FC0000
FC0000
FC0000
FC0000
FC0000
FC0000
FC7C00
FDFF00
FFFF80
FFFFC0
FF1FC0
FE0FE0
FC07E0
FC07E0
FC07E0
FC07E0
FC07E0
FC07E0
FE0FE0
FF1FC0
FFFFC0
FFFF80
FDFF00
FC7C00
ENDCHAR
STARTCHAR c
ENCODING 99
SWIDTH 592 0
DWIDTH 19 0
BBX 15 18 1 0
BITMAP
03FC
0FFE
3FFE
3FFE
7F06
7E02
FC00
FC00
FC00
FC00
FC00
FC00
7E02
7F06
3FFE
3FFE
0FFE
03FC
ENDCHAR
STARTCHAR d
ENCODING 100
SWIDTH 715 0
DWIDTH 23 0
BBX 19 24 1 0
BITMAP
0007E0
0007E0
0007E0
0007E0
0007E0
0007E0
07C7E0
1FF7E0
3FFFE0
7FFFE0
7F1FE0
FE0FE0
FC07E0
FC07E0
FC07E0
FC07E0
FC07E0
FC07E0
FE0FE0
7F1FE0
7FFFE0
3FFFE0
1FF7E0
07C7E0
ENDCHAR
STARTCHAR e
ENCODING 101
SWIDTH 678 0
DWIDTH 22 0
BBX 19 18 1 0
BITMAP
03F800
0FFE00
1FFF00
3FFF80
7F1FC0
7E0FC0
FC07E0
FC07E0
FFFFE0
FFFFE0
FFFFE0
FC0000
7E0040
7F03C0
3FFFC0
3FFFC0
0FFF80
03FC00
ENDCHAR
STARTCHAR f
ENCODING 102
SWIDTH 435 0
DWIDTH 14 0
BBX 14 24 0 0
BITMAP
03FC
0FFC
0FFC
1FFC
1F80
1F80
FFFC
FFFC
FFFC
FFFC
1F80
1F80
1F80
1F80
1F80
1F80
1F80
1F80
1F80
1F80
1F80
1F80
1F80
1F80
ENDCHAR
STARTCHAR g
ENCODING 103
SWIDTH 715 0
DWIDTH 23 0
BBX 19 25 1 -7
BITMAP
07C7E0
1FF7E0
3FFFE0
7FFFE0
7F1FE0
FE0FE0
FC07E0
FC07E0
FC07E0
FC07E0
FC07E0
FC07E0
FE0FE0
7F1FE0
7FFFE0
3FFFE0
1FF7E0
07C7E0
0007E0
200FC0
381FC0
3FFF80
3FFF80
1FFE00
07F800
ENDCHAR
STARTCHAR h
ENCODING 104
SWIDTH 711 0
DWIDTH 23 0
BBX 18 24 3 0
BITMAP
FC0000
FC0000
FC0000
FC0000
FC0000
FC0000
FC7E00
FDFF00
FFFF80
FFFF80
FF1FC0
FE0FC0
FC0FC0
FC0FC0
FC0FC0
FC0FC0
FC0FC0
FC0FC0
FC0FC0
FC0FC0
FC0FC0
FC0FC0
FC0FC0
FC0FC0
ENDCHAR
STARTCHAR i
ENCODING 105
SWIDTH 342 0
DWIDTH 11 0
BBX 6 24 3 0
BITMAP
FC
FC
FC
FC
00
00
FC
FC
FC
FC
FC
FC
FC
FC
FC
FC
FC
FC
FC
FC
FC
FC
FC
FC
ENDCHAR
STARTCHAR j
ENCODING 106
SWIDTH 342 0
DWIDTH 11 0
BBX 10 31 -1 -7
BITMAP
0FC0
0FC0
0FC0
0FC0
0000
0000
0FC0
0FC0
0FC0
0FC0
0FC0
0FC0
0FC0
0FC0
0FC0
0FC0
0FC0
0FC0
0FC0
0FC0
0FC0
0FC0
0FC0
0FC0
0FC0
0FC0
1FC0
FF80
FF80
FF00
FC00
ENDCHAR
STARTCHAR k
ENCODING 107
SWIDTH 665 0
DWIDTH 21 0
BBX 19 24 3 0
BITMAP
FC0000
FC0000
FC0000
FC0000
FC0000
FC0000
FC1FC0
FC1F80
FC3F00
FC7E00
FCFC00
FDF800
FFF000
FFE000
FFC000
FFE000
FFF000
FDF800
FCFC00
FC7E00
FC7F00
FC3F80
FC1FC0
FC0FE0
ENDCHAR
STARTCHAR l
ENCODING 108
SWIDTH 342 0
DWIDTH 11 0
BBX 6 24 3 0
BITMAP
FC
FC
FC
FC
FC
FC
FC
FC
FC
FC
FC
FC
FC
FC
FC
FC
FC
FC
FC
FC
FC
FC
FC
FC
ENDCHAR
STARTCHAR m
ENCODING 109
SWIDTH 1041 0
DWIDTH 33 0
BBX 28 18 3 0
BITMAP
FC7C1F80
FDFE3FC0
FFFF7FE0
FFFFFFE0
FF3FE7F0
FE1FC3F0
FC1F83F0
FC1F83F0
FC1F83F0
FC1F83F0
FC1F83F0
FC1F83F0
FC1F83F0
FC1F83F0
FC1F83F0
FC1F83F0
FC1F83F0
FC1F83F0
ENDCHAR
STARTCHAR n
ENCODING 110
SWIDTH 711 0
DWIDTH 23 0
BBX 18 18 3 0
BITMAP
FC7E00
FDFF00
FFFF80
FFFF80
FF1FC0
FE0FC0
FC0FC0
FC0FC0
FC0FC0
FC0FC0
FC0FC0
FC0FC0
FC0FC0
FC0FC0
FC0FC0
FC0FC0
FC0FC0
FC0FC0
ENDCHAR
STARTCHAR o
ENCODING 111
SWIDTH 687 0
DWIDTH 22 0
BBX 19 18 1 0
BITMAP
03F800
0FFE00
3FFF80
3FFF80
7F1FC0
7E0FC0
FC07E0
FC07E0
FC07E0
FC07E0
FC07E0
FC07E0
7E0FC0
7F1FC0
3FFF80
3FFF80
0FFE00
03F800
ENDCHAR
STARTCHAR p
ENCODING 112
SWIDTH 715 0
DWIDTH 23 0
BBX 19 25 3 -7
BITMAP
FC7C00
FDFF00
FFFF80
FFFFC0
FF1FC0
FE0FE0
FC07E0
FC07E0
FC07E0
FC07E0
FC07E0
FC07E0
FE0FE0
FF1FC0
FFFFC0
FFFF80
FDFF00
FC7C00
FC0000
FC0000
FC0000
FC0000
FC0000
FC0000
FC0000
ENDCHAR
STARTCHAR q
ENCODING 113
SWIDTH 715 0
DWIDTH 23 0
BBX 19 25 1 -7
BITMAP
07C7E0
1FF7E0
3FFFE0
7FFFE0
7F1FE0
FE0FE0
FC07E0
FC07E0
FC07E0
FC07E0
FC07E0
FC07E0
FE0FE0
7F1FE0
7FFFE0
3FFFE0
1FF7E0
07C7E0
0007E0
0007E0
0007E0
0007E0
0007E0
0007E0
0007E0
ENDCHAR
STARTCHAR r
ENCODING 114
SWIDTH 493 0
DWIDTH 16 0
BBX 13 18 3 0
BITMAP
FC78
FDF8
FFF8
FFF8
FF08
FE00
FE00
FC00
FC00
FC00
FC00
FC00
FC00
FC00
FC00
FC00
FC00
FC00
ENDCHAR
STARTCHAR s
ENCODING 115
SWIDTH 595 0
DWIDTH 19 0
BBX 16 18 2 0
BITMAP
0FE0
3FFC
7FFE
FFFE
F81E
F802
FF00
FFF8
7FFE
1FFE
01FF
001F
801F
F03F
FFFF
FFFE
7FFC
0FF0
ENDCHAR
STARTCHAR t
ENCODING 116
SWIDTH 478 0
DWIDTH 15 0
BBX 15 22 0 0
BITMAP
1F80
1F80
1F80
1F80
FFFE
FFFE
FFFE
FFFE
1F80
1F80
1F80
1F80
1F80
1F80
1F80
1F80
1F80
1F80
1FFC
0FFC
0FFC
03FC
ENDCHAR
STARTCHAR u
ENCODING 117
SWIDTH 711 0
DWIDTH 23 0
BBX 18 18 3 0
BITMAP
FC0FC0
FC0FC0
FC0FC0
FC0FC0
FC0FC0
FC0FC0
FC0FC0
FC0FC0
FC0FC0
FC0FC0
FC0FC0
FC0FC0
FC1FC0
FE3FC0
7FFFC0
7FFFC0
3FEFC0
1F8FC0
ENDCHAR
STARTCHAR v
ENCODING 118
SWIDTH 651 0
DWIDTH 21 0
BBX 20 18 0 0
BITMAP
FE07F0
7E07E0
7E07E0
7F0FE0
3F0FC0
3F9FC0
3F9FC0
1F9F80
1FFF80
0FFF00
0FFF00
0FFF00
07FE00
07FE00
03FC00
03FC00
03FC00
01F800
ENDCHAR
STARTCHAR w
ENCODING 119
SWIDTH 923 0
DWIDTH 30 0
BBX 27 18 1 0
BITMAP
FC1F07E0
FE1F0FE0
7E1F0FC0
7E3F8FC0
7E3F8FC0
7F3F9FC0
3F3F9F80
3F7FDF80
3F7BDF80
3FFBFF80
1FFBFF00
1FFBFF00
1FF1FF00
1FF1FF00
0FF1FE00
0FF1FE00
0FE0FE00
0FE0FE00
ENDCHAR
STARTCHAR x
ENCODING 120
SWIDTH 645 0
DWIDTH 21 0
BBX 20 18 0 0
BITMAP
FF0FF0
7F9FE0
3F9FC0
1FFF80
1FFF80
0FFF00
07FE00
03FC00
03FC00
03FC00
07FE00
07FE00
0FFF00
1FFF80
1FFFC0
3F9FC0
7F0FE0
FF0FF0
ENDCHAR
STARTCHAR y
ENCODING 121
SWIDTH 651 0
DWIDTH 21 0
BBX 20 25 0 -7
BITMAP
FE07F0
7E07E0
7F07E0
7F0FE0
3F0FC0
3F9FC0
1F9FC0
1FDF80
0FFF80
0FFF00
0FFF00
07FF00
07FE00
03FE00
03FC00
01FC00
01FC00
01F800
01F800
03F800
07F000
1FF000
1FE000
1FC000
1F8000
ENDCHAR
STARTCHAR z
ENCODING 122
SWIDTH 582 0
DWIDTH 19 0
BBX 16 18 1 0
BITMAP
FFFF
FFFF
FFFF
FFFF
00FF
01FE
03FC
07F8
07F8
0FF0
1FE0
3FC0
7F80
FF80
FFFF
FFFF
FFFF
FFFF
ENDCHAR
STARTCHAR braceleft
ENCODING 123
SWIDTH 711 0
DWIDTH 23 0
BBX 15 30 4 -6
BITMAP
00FE
01FE
03FE
07FE
07E0
07C0
07C0
07C0
07C0
07C0
07C0
07C0
0FC0
0FC0
FF80
FF00
FF00
FF80
0FC0
07C0
07C0
07C0
07C0
07C0
07C0
07E0
07FE
03FE
03FE
00FE
ENDCHAR
STARTCHAR bar
ENCODING 124
SWIDTH 365 0
DWIDTH 12 0
BBX 4 32 4 -8
BITMAP
F0
F0
F0
F0
F0
F0
F0
F0
F0
F0
F0
F0
F0
F0
F0
F0
F0
F0
F0
F0
F0
F0
F0
F0
F0
F0
F0
F0
F0
F0
F0
F0
ENDCHAR
STARTCHAR braceright
ENCODING 125
SWIDTH 711 0
DWIDTH 23 0
BBX 15 30 4 -6
BITMAP
FE00
FF00
FF80
FFC0
0FC0
07C0
07C0
07C0
07C0
07C0
07C0
07C0
07C0
07E0
03FE
01FE
01FE
03FE
07E0
07C0
07C0
07C0
07C0
07C0
07C0
0FC0
FFC0
FF80
FF80
FE00
ENDCHAR
STARTCHAR asciitilde
ENCODING 126
SWIDTH 837 0
DWIDTH 27 0
BBX 20 6 3 7
BITMAP
1F8010
7FF070
FFFFF0
FFFFF0
E0FFE0
801F80
ENDCHAR
STARTCHAR uni00A0
ENCODING 160
SWIDTH 348 0
DWIDTH 11 0
BBX 1 1 0 0
BITMAP
00
ENDCHAR
STARTCHAR exclamdown
ENCODING 161
SWIDTH 456 0
DWIDTH 15 0
BBX 6 23 4 -5
BITMAP
FC
FC
FC
FC
FC
FC
00
00
78
78
F8
FC
FC
FC
FC
FC
FC
FC
FC
FC
FC
FC
FC
ENDCHAR
STARTCHAR cent
ENCODING 162
SWIDTH 695 0
DWIDTH 22 0
BBX 15 27 3 -5
BITMAP
00E0
00E0
00E0
00E0
03FC
0FFE
3FFE
7FFE
7FE6
FEE2
FCE0
FCE0
FCE0
FCE0
FCE0
FCE0
7EE0
7FE6
3FFE
3FFE
0FFE
03FC
00E0
00E0
00E0
00E0
00E0
ENDCHAR
STARTCHAR sterling
ENCODING 163
SWIDTH 695 0
DWIDTH 22 0
BBX 18 23 2 0
BITMAP
007E00
03FF80
07FFC0
07FFC0
0FE0C0
0FE040
0FC000
0FC000
0FC000
0FC000
7FFF00
7FFF00
7FFF00
7FFF00
0FC000
0FC000
0FC000
0FC000
0FC000
FFFFC0
FFFFC0
FFFFC0
FFFFC0
ENDCHAR
STARTCHAR currency
ENCODING 164
SWIDTH 636 0
DWIDTH 20 0
BBX 17 17 2 2
BITMAP
200300
700780
FBEF80
7FFF00
3FFE00
1E3C00
3C1E00
380E00
380E00
380E00
3C1E00
1E3C00
3FFE00
7FFF00
FBEF80
F00700
200200
ENDCHAR
STARTCHAR yen
ENCODING 165
SWIDTH 695 0
DWIDTH 22 0
BBX 22 23 0 0
BITMAP
FF03FC
7F03F8
3F87F0
3FCFF0
1FCFE0
0FFFC0
0FFFC0
07FF80
7FFFF8
7FFFF8
7FFFF8
00FC00
00FC00
7FFFF8
7FFFF8
7FFFF8
00FC00
00FC00
00FC00
00FC00
00FC00
00FC00
00FC00
ENDCHAR
STARTCHAR brokenbar
ENCODING 166
SWIDTH 365 0
DWIDTH 12 0
BBX 4 28 4 -6
BITMAP
F0
F0
F0
F0
F0
F0
F0
F0
F0
F0
F0
F0
00
00
00
00
F0
F0
F0
F0
F0
F0
F0
F0
F0
F0
F0
F0
ENDCHAR
STARTCHAR section
ENCODING 167
SWIDTH 500 0
DWIDTH 16 0
BBX 16 26 1 -3
BITMAP
07F8
3FFC
3FFC
7E0C
7C00
7E00
3F80
3FF0
1FFC
7FFE
78FE
F03F
F00F
F00F
FC0F
7F1E
7FFE
3FFC
0FF8
03FC
007E
003E
303E
3FFC
3FFC
0FE0
ENDCHAR
STARTCHAR dieresis
ENCODING 168
SWIDTH 500 0
DWIDTH 16 0
BBX 11 4 3 21
BITMAP
F1E0
F1E0
F1E0
F1E0
ENDCHAR
STARTCHAR copyright
ENCODING 169
SWIDTH 1000 0
DWIDTH 32 0
BBX 23 23 4 0
BITMAP
00FE00
03FF80
0F01E0
1C0070
380038
307E18
61FF0C
63FF0C
C3C106
C78006
C70006
C70006
C70006
C78006
C3C106
63FF0C
61FF0C
307E18
380038
1C0070
0F01E0
03FF80
00FE00
ENDCHAR
STARTCHAR ordfeminine
ENCODING 170
SWIDTH 563 0
DWIDTH 18 0
BBX 13 18 2 5
BITMAP
1FC0
7FE0
7FF0
40F8
0078
1FF8
7FF8
F878
F0F8
F0F8
FFF8
7F78
3E78
0000
0000
FFF8
FFF8
FFF8
ENDCHAR
STARTCHAR guillemotleft
ENCODING 171
SWIDTH 645 0
DWIDTH 21 0
BBX 16 14 2 3
BITMAP
0101
0303
0F0F
1F1F
3E3E
F8F8
F0F0
F0F0
F8F8
3E3E
1F1F
0F0F
0303
0101
ENDCHAR
STARTCHAR logicalnot
ENCODING 172
SWIDTH 837 0
DWIDTH 27 0
BBX 20 10 3 4
BITMAP
FFFFF0
FFFFF0
FFFFF0
FFFFF0
0000F0
0000F0
0000F0
0000F0
0000F0
0000F0
ENDCHAR
STARTCHAR uni00AD
ENCODING 173
SWIDTH 415 0
DWIDTH 13 0
BBX 10 5 2 7
BITMAP
FFC0
FFC0
FFC0
FFC0
FFC0
ENDCHAR
STARTCHAR registered
ENCODING 174
SWIDTH 1000 0
DWIDTH 32 0
BBX 23 23 4 0
BITMAP
00FE00
03FF80
0F01E0
1C0070
380038
31FE18
61FF0C
61C78C
C1C386
C1C386
C1C786
C1FF06
C1FE06
C1DE06
C1CF06
61C78C
61C38C
31C3D8
380038
1C0070
0F01E0
03FF80
00FE00
ENDCHAR
STARTCHAR macron
ENCODING 175
SWIDTH 500 0
DWIDTH 16 0
BBX 10 3 3 21
BITMAP
FFC0
FFC0
FFC0
ENDCHAR
STARTCHAR degree
ENCODING 176
SWIDTH 500 0
DWIDTH 16 0
BBX 10 10 3 14
BITMAP
1E00
7F80
6180
C0C0
C0C0
C0C0
C0C0
6180
7F80
1E00
ENDCHAR
STARTCHAR plusminus
ENCODING 177
SWIDTH 837 0
DWIDTH 27 0
BBX 20 21 4 0
BITMAP
00F000
00F000
00F000
00F000
00F000
00F000
FFFFF0
FFFFF0
FFFFF0
FFFFF0
00F000
00F000
00F000
00F000
00F000
00F000
000000
FFFFF0
FFFFF0
FFFFF0
FFFFF0
ENDCHAR
STARTCHAR uni00B2
ENCODING 178
SWIDTH 437 0
DWIDTH 14 0
BBX 11 14 2 9
BITMAP
7F00
FFC0
C3E0
01E0
01E0
03E0
03C0
0F80
1F00
3E00
7800
F000
FFE0
FFE0
ENDCHAR
STARTCHAR uni00B3
ENCODING 179
SWIDTH 437 0
DWIDTH 14 0
BBX 11 14 1 9
BITMAP
FF80
FFC0
83E0
01E0
03E0
3F80
3F80
03C0
01E0
01E0
01E0
83E0
FFC0
7F00
ENDCHAR
STARTCHAR acute
ENCODING 180
SWIDTH 500 0
DWIDTH 16 0
BBX 9 6 6 20
BITMAP
0F80
1F00
1E00
3C00
7800
F000
ENDCHAR
STARTCHAR mu
ENCODING 181
SWIDTH 735 0
DWIDTH 24 0
BBX 20 25 3 -7
BITMAP
FC0FC0
FC0FC0
FC0FC0
FC0FC0
FC0FC0
FC0FC0
FC0FC0
FC0FC0
FC0FC0
FC0FC0
FC0FC0
FC0FC0
FC0FC0
FE1FC0
FFFFF0
FFFFF0
FFFBF0
FDE1F0
FC0000
FC0000
FC0000
FC0000
FC0000
FC0000
FC0000
ENDCHAR
STARTCHAR paragraph
ENCODING 182
SWIDTH 636 0
DWIDTH 20 0
BBX 16 26 2 -3
BITMAP
0FFF
1FFF
7FC7
7FC7
FFC7
FFC7
FFC7
FFC7
FFC7
7FC7
7FC7
1FC7
07C7
01C7
01C7
01C7
01C7
01C7
01C7
01C7
01C7
01C7
01C7
01C7
01C7
01C7
ENDCHAR
STARTCHAR periodcentered
ENCODING 183
SWIDTH 379 0
DWIDTH 12 0
BBX 6 6 3 8
BITMAP
FC
FC
FC
FC
FC
FC
ENDCHAR
STARTCHAR cedilla
ENCODING 184
SWIDTH 500 0
DWIDTH 16 0
BBX 7 6 4 -6
BITMAP
18
0C
0E
0E
FE
FC
ENDCHAR
STARTCHAR uni00B9
ENCODING 185
SWIDTH 437 0
DWIDTH 14 0
BBX 11 14 1 9
BITMAP
3F00
FF00
EF00
0F00
0F00
0F00
0F00
0F00
0F00
0F00
0F00
0F00
7FE0
7FE0
ENDCHAR
STARTCHAR ordmasculine
ENCODING 186
SWIDTH 563 0
DWIDTH 18 0
BBX 14 18 2 5
BITMAP
0FC0
3FF0
7FF8
7878
F03C
F03C
F03C
F03C
F03C
7878
7FF8
3FF0
0FC0
0000
0000
7FF8
7FF8
7FF8
ENDCHAR
STARTCHAR guillemotright
ENCODING 187
SWIDTH 645 0
DWIDTH 21 0
BBX 16 14 3 3
BITMAP
8080
C0C0
F0F0
F8F8
7C7C
1F1F
0F0F
0F0F
1F1F
7C7C
F8F8
F0F0
C0C0
8080
ENDCHAR
STARTCHAR onequarter
ENCODING 188
SWIDTH 1035 0
DWIDTH 33 0
BBX 30 23 1 0
BITMAP
3F000780
FF000700
EF000F00
0F000E00
0F001E00
0F003C00
0F003800
0F007800
0F00F000
0F00E000
0F01E1E0
0F01C3E0
7FE3C7E0
7FE786E0
00070CE0
000F1CE0
001E38E0
001C30E0
003C3FFC
00383FFC
007000E0
00F000E0
00E000E0
ENDCHAR
STARTCHAR onehalf
ENCODING 189
SWIDTH 1035 0
DWIDTH 33 0
BBX 31 24 1 -1
BITMAP
3F000780
FF000700
EF000F00
0F000E00
0F001E00
0F003C00
0F003800
0F007800
0F00F000
0F00E000
0F01E7F8
0F01CFFC
7FE3CC1E
7FE7801E
0007001E
000F001E
001E003C
001C0078
003C00F0
003801E0
007007C0
00F00F80
00E00FFE
00000FFE
ENDCHAR
STARTCHAR threequarters
ENCODING 190
SWIDTH 1035 0
DWIDTH 33 0
BBX 30 23 1 0
BITMAP
FF800780
FFE00700
C1E00F00
01E00E00
01E01E00
3FC03C00
3FC03800
03E07800
01E0F000
01E0E000
01E1E1E0
83E1C3E0
FFC3C7E0
7F8786E0
00070CE0
000F1CE0
001E38E0
001C30E0
003C3FFC
00383FFC
007000E0
00F000E0
00E000E0
ENDCHAR
STARTCHAR questiondown
ENCODING 191
SWIDTH 580 0
DWIDTH 19 0
BBX 14 25 2 -7
BITMAP
07E0
07E0
07E0
07E0
07E0
07E0
0000
0000
07E0
07E0
07E0
0FE0
1FC0
3F80
7F00
7E00
FE00
FC00
FC00
FC04
FE1C
7FFC
7FFC
3FFC
0FF0
ENDCHAR
STARTCHAR Agrave
ENCODING 192
SWIDTH 773 0
DWIDTH 25 0
BBX 24 30 0 0
BITMAP
00F000
007800
003C00
001E00
000000
000000
000000
00FF00
00FF00
00FF00
01FF80
01FF80
03FFC0
03FFC0
03FFC0
07FFE0
07E7E0
07E7E0
0FE7F0
0FC3F0
1FC3F8
1FFFF8
1FFFF8
3FFFFC
3FFFFC
3F00FC
7F00FE
7E007E
7E007E
FE007F
ENDCHAR
STARTCHAR Aacute
ENCODING 193
SWIDTH 773 0
DWIDTH 25 0
BBX 24 30 0 0
BITMAP
000780
000F00
001E00
003C00
000000
000000
000000
00FF00
00FF00
00FF00
01FF80
01FF80
03FFC0
03FFC0
03FFC0
07FFE0
07E7E0
07E7E0
0FE7F0
0FC3F0
1FC3F8
1FFFF8
1FFFF8
3FFFFC
3FFFFC
3F00FC
7F00FE
7E007E
7E007E
FE007F
ENDCHAR
STARTCHAR Acircumflex
ENCODING 194
SWIDTH 773 0
DWIDTH 25 0
BBX 24 30 0 0
BITMAP
007E00
00FF00
01E780
0381C0
000000
000000
000000
00FF00
00FF00
00FF00
01FF80
01FF80
03FFC0
03FFC0
03FFC0
07FFE0
07E7E0
07E7E0
0FE7F0
0FC3F0
1FC3F8
1FFFF8
1FFFF8
3FFFFC
3FFFFC
3F00FC
7F00FE
7E007E
7E007E
FE007F
ENDCHAR
STARTCHAR Atilde
ENCODING 195
SWIDTH 773 0
DWIDTH 25 0
BBX 24 30 0 0
BITMAP
00E0C0
01F9C0
039F80
030700
000000
000000
000000
00FF00
00FF00
00FF00
01FF80
01FF80
03FFC0
03FFC0
03FFC0
07FFE0
07E7E0
07E7E0
0FE7F0
0FC3F0
1FC3F8
1FFFF8
1FFFF8
3FFFFC
3FFFFC
3F00FC
7F00FE
7E007E
7E007E
FE007F
ENDCHAR
STARTCHAR Adieresis
ENCODING 196
SWIDTH 773 0
DWIDTH 25 0
BBX 24 30 0 0
BITMAP
01E780
01E780
01E780
01E780
000000
000000
000000
00FF00
00FF00
00FF00
01FF80
01FF80
03FFC0
03FFC0
03FFC0
07FFE0
07E7E0
07E7E0
0FE7F0
0FC3F0
1FC3F8
1FFFF8
1FFFF8
3FFFFC
3FFFFC
3F00FC
7F00FE
7E007E
7E007E
FE007F
ENDCHAR
STARTCHAR Aring
ENCODING 197
SWIDTH 773 0
DWIDTH 25 0
BBX 24 30 0 0
BITMAP
003C00
007E00
00E700
00C300
00C300
00C300
00E700
00FE00
00FF00
00FF00
01FF80
01FF80
01FF80
03FFC0
03FFC0
07FFE0
07FFE0
07E7E0
0FE7F0
0FC3F0
0FC3F0
1FFFF8
1FFFF8
3FFFFC
3FFFFC
3F00FC
7F00FE
7E007E
7E007E
FE007F
ENDCHAR
STARTCHAR AE
ENCODING 198
SWIDTH 1084 0
DWIDTH 35 0
BBX 32 23 0 0
BITMAP
007FFFFF
007FFFFF
00FFFFFF
00FFFFFF
01FDF800
01FDF800
01F9F800
03F9F800
03F1F800
07F1FFFE
07F1FFFE
07E1FFFE
0FE1FFFE
0FFFF800
1FFFF800
1FFFF800
1FFFF800
3F81F800
3F01F800
7F01FFFF
7E01FFFF
7E01FFFF
FE01FFFF
ENDCHAR
STARTCHAR Ccedilla
ENCODING 199
SWIDTH 733 0
DWIDTH 23 0
BBX 20 29 2 -6
BITMAP
00FF80
03FFF0
0FFFF0
1FFFF0
3FC070
7F0010
7E0000
7E0000
FC0000
FC0000
FC0000
FC0000
FC0000
FC0000
FC0000
7E0000
7E0000
7F0010
3FC070
1FFFF0
0FFFF0
03FFF0
00FF80
001800
001C00
000E00
001E00
00FE00
00FC00
ENDCHAR
STARTCHAR Egrave
ENCODING 200
SWIDTH 683 0
DWIDTH 22 0
BBX 17 30 3 0
BITMAP
1F0000
078000
03C000
01C000
000000
000000
000000
FFFF80
FFFF80
FFFF80
FFFF80
FC0000
FC0000
FC0000
FC0000
FC0000
FFFF00
FFFF00
FFFF00
FFFF00
FC0000
FC0000
FC0000
FC0000
FC0000
FC0000
FFFF80
FFFF80
FFFF80
FFFF80
ENDCHAR
STARTCHAR Eacute
ENCODING 201
SWIDTH 683 0
DWIDTH 22 0
BBX 17 30 3 0
BITMAP
007800
00F000
01E000
03C000
000000
000000
000000
FFFF80
FFFF80
FFFF80
FFFF80
FC0000
FC0000
FC0000
FC0000
FC0000
FFFF00
FFFF00
FFFF00
FFFF00
FC0000
FC0000
FC0000
FC0000
FC0000
FC0000
FFFF80
FFFF80
FFFF80
FFFF80
ENDCHAR
STARTCHAR Ecircumflex
ENCODING 202
SWIDTH 683 0
DWIDTH 22 0
BBX 17 30 3 0
BITMAP
07E000
0FF000
1E7000
383800
000000
000000
000000
FFFF80
FFFF80
FFFF80
FFFF80
FC0000
FC0000
FC0000
FC0000
FC0000
FFFF00
FFFF00
FFFF00
FFFF00
FC0000
FC0000
FC0000
FC0000
FC0000
FC0000
FFFF80
FFFF80
FFFF80
FFFF80
ENDCHAR
STARTCHAR Edieresis
ENCODING 203
SWIDTH 683 0
DWIDTH 22 0
BBX 17 30 3 0
BITMAP
1E3C00
1E3C00
1E3C00
1E3C00
000000
000000
000000
FFFF80
FFFF80
FFFF80
FFFF80
FC0000
FC0000
FC0000
FC0000
FC0000
FFFF00
FFFF00
FFFF00
FFFF00
FC0000
FC0000
FC0000
FC0000
FC0000
FC0000
FFFF80
FFFF80
FFFF80
FFFF80
ENDCHAR
STARTCHAR Igrave
ENCODING 204
SWIDTH 372 0
DWIDTH 12 0
BBX 8 30 1 0
BITMAP
F8
78
1C
0E
00
00
00
3F
3F
3F
3F
3F
3F
3F
3F
3F
3F
3F
3F
3F
3F
3F
3F
3F
3F
3F
3F
3F
3F
3F
ENDCHAR
STARTCHAR Iacute
ENCODING 205
SWIDTH 372 0
DWIDTH 12 0
BBX 8 30 3 0
BITMAP
1F
1E
3C
70
00
00
00
FC
FC
FC
FC
FC
FC
FC
FC
FC
FC
FC
FC
FC
FC
FC
FC
FC
FC
FC
FC
FC
FC
FC
ENDCHAR
STARTCHAR Icircumflex
ENCODING 206
SWIDTH 372 0
DWIDTH 12 0
BBX 12 30 0 0
BITMAP
1F80
3FC0
79E0
E070
0000
0000
0000
1F80
1F80
1F80
1F80
1F80
1F80
1F80
1F80
1F80
1F80
1F80
1F80
1F80
1F80
1F80
1F80
1F80
1F80
1F80
1F80
1F80
1F80
1F80
ENDCHAR
STARTCHAR Idieresis
ENCODING 207
SWIDTH 372 0
DWIDTH 12 0
BBX 10 30 1 0
BITMAP
F3C0
F3C0
F3C0
F3C0
0000
0000
0000
3F00
3F00
3F00
3F00
3F00
3F00
3F00
3F00
3F00
3F00
3F00
3F00
3F00
3F00
3F00
3F00
3F00
3F00
3F00
3F00
3F00
3F00
3F00
ENDCHAR
STARTCHAR Eth
ENCODING 208
SWIDTH 837 0
DWIDTH 27 0
BBX 25 23 0 0
BITMAP
1FFF0000
1FFFE000
1FFFF800
1FFFFC00
1F81FE00
1F807F00
1F803F00
1F803F00
1F801F80
1F801F80
FFF81F80
FFF81F80
FFF81F80
FFF81F80
1F801F80
1F803F00
1F803F00
1F807F00
1F81FE00
1FFFFC00
1FFFF800
1FFFE000
1FFF0000
ENDCHAR
STARTCHAR Ntilde
ENCODING 209
SWIDTH 836 0
DWIDTH 27 0
BBX 21 30 3 0
BITMAP
03C300
07E700
067E00
061C00
000000
000000
000000
FE01F8
FF01F8
FF01F8
FF81F8
FF81F8
FFC1F8
FFC1F8
FFE1F8
FDE1F8
FDF1F8
FCF1F8
FCF9F8
FC79F8
FC7DF8
FC3DF8
FC3FF8
FC1FF8
FC1FF8
FC0FF8
FC0FF8
FC07F8
FC07F8
FC03F8
ENDCHAR
STARTCHAR Ograve
ENCODING 210
SWIDTH 850 0
DWIDTH 27 0
BBX 24 30 2 0
BITMAP
01E000
00F000
007800
003C00
000000
000000
000000
00FF00
07FFE0
0FFFF0
1FFFF8
3F83FC
7F00FE
7E007E
7E007E
FC003F
FC003F
FC003F
FC003F
FC003F
FC003F
FC003F
7E007E
7E007E
7F00FE
3F81FC
1FFFF8
0FFFF0
07FFE0
00FF00
ENDCHAR
STARTCHAR Oacute
ENCODING 211
SWIDTH 850 0
DWIDTH 27 0
BBX 24 30 2 0
BITMAP
000F80
001E00
003C00
003800
000000
000000
000000
00FF00
07FFE0
0FFFF0
1FFFF8
3F83FC
7F00FE
7E007E
7E007E
FC003F
FC003F
FC003F
FC003F
FC003F
FC003F
FC003F
7E007E
7E007E
7F00FE
3F81FC
1FFFF8
0FFFF0
07FFE0
00FF00
ENDCHAR
STARTCHAR Ocircumflex
ENCODING 212
SWIDTH 850 0
DWIDTH 27 0
BBX 24 30 2 0
BITMAP
00FC00
01FE00
01CF00
038380
000000
000000
000000
00FF00
07FFE0
0FFFF0
1FFFF8
3F83FC
7F00FE
7E007E
7E007E
FC003F
FC003F
FC003F
FC003F
FC003F
FC003F
FC003F
7E007E
7E007E
7F00FE
3F81FC
1FFFF8
0FFFF0
07FFE0
00FF00
ENDCHAR
STARTCHAR Otilde
ENCODING 213
SWIDTH 850 0
DWIDTH 27 0
BBX 24 30 2 0
BITMAP
00E0C0
01F9C0
039F80
030700
000000
000000
000000
00FF00
07FFE0
0FFFF0
1FFFF8
3F83FC
7F00FE
7E007E
7E007E
FC003F
FC003F
FC003F
FC003F
FC003F
FC003F
FC003F
7E007E
7E007E
7F00FE
3F81FC
1FFFF8
0FFFF0
07FFE0
00FF00
ENDCHAR
STARTCHAR Odieresis
ENCODING 214
SWIDTH 850 0
DWIDTH 27 0
BBX 24 30 2 0
BITMAP
01E780
01E780
01E780
01E780
000000
000000
000000
00FF00
07FFE0
0FFFF0
1FFFF8
3F83FC
7F00FE
7E007E
7E007E
FC003F
FC003F
FC003F
FC003F
FC003F
FC003F
FC003F
7E007E
7E007E
7F00FE
3F81FC
1FFFF8
0FFFF0
07FFE0
00FF00
ENDCHAR
STARTCHAR multiply
ENCODING 215
SWIDTH 837 0
DWIDTH 27 0
BBX 19 19 4 0
BITMAP
200080
7001C0
F803E0
7C07C0
3E0F80
1F1F00
0FBE00
07FC00
03F800
01F000
03F800
07FC00
0FBE00
1F1F00
3E0F80
7C07C0
F803E0
7001C0
200080
ENDCHAR
STARTCHAR Oslash
ENCODING 216
SWIDTH 850 0
DWIDTH 27 0
BBX 25 23 1 0
BITMAP
007F8180
03FFF380
07FFFF00
0FFFFE00
1FC1FE00
3F807F00
3F00FF00
3F01FF00
7E03DF80
7E079F80
7E0F1F80
7E1E1F80
7E3C1F80
7E781F80
7EF01F80
7FC03F00
3F803F00
3F807F00
1FC0FE00
1FFFFC00
3FFFF800
73FFF000
E07F8000
ENDCHAR
STARTCHAR Ugrave
ENCODING 217
SWIDTH 812 0
DWIDTH 26 0
BBX 20 30 3 0
BITMAP
07C000
03E000
00E000
007000
000000
000000
000000
FC03F0
FC03F0
FC03F0
FC03F0
FC03F0
FC03F0
FC03F0
FC03F0
FC03F0
FC03F0
FC03F0
FC03F0
FC03F0
FC03F0
FC03F0
FC03F0
FC03F0
FE07E0
7F0FE0
7FFFE0
3FFFC0
1FFF00
03FC00
ENDCHAR
STARTCHAR Uacute
ENCODING 218
SWIDTH 812 0
DWIDTH 26 0
BBX 20 30 3 0
BITMAP
003E00
003C00
007800
00E000
000000
000000
000000
FC03F0
FC03F0
FC03F0
FC03F0
FC03F0
FC03F0
FC03F0
FC03F0
FC03F0
FC03F0
FC03F0
FC03F0
FC03F0
FC03F0
FC03F0
FC03F0
FC03F0
FE07E0
7F0FE0
7FFFE0
3FFFC0
1FFF00
03FC00
ENDCHAR
STARTCHAR Ucircumflex
ENCODING 219
SWIDTH 812 0
DWIDTH 26 0
BBX 20 30 3 0
BITMAP
01F800
03FC00
079E00
0E0700
000000
000000
000000
FC03F0
FC03F0
FC03F0
FC03F0
FC03F0
FC03F0
FC03F0
FC03F0
FC03F0
FC03F0
FC03F0
FC03F0
FC03F0
FC03F0
FC03F0
FC03F0
FC03F0
FE07E0
7F0FE0
7FFFE0
3FFFC0
1FFF00
03FC00
ENDCHAR
STARTCHAR Udieresis
ENCODING 220
SWIDTH 812 0
DWIDTH 26 0
BBX 20 30 3 0
BITMAP
0F0F00
0F0F00
0F0F00
0F0F00
000000
000000
000000
FC03F0
FC03F0
FC03F0
FC03F0
FC03F0
FC03F0
FC03F0
FC03F0
FC03F0
FC03F0
FC03F0
FC03F0
FC03F0
FC03F0
FC03F0
FC03F0
FC03F0
FE07E0
7F0FE0
7FFFE0
3FFFC0
1FFF00
03FC00
ENDCHAR
STARTCHAR Yacute
ENCODING 221
SWIDTH 724 0
DWIDTH 23 0
BBX 24 30 0 0
BITMAP
000F80
001E00
003C00
003800
000000
000000
000000
FF00FF
7F00FE
3F81FC
3FC3FC
1FC3F8
0FE7F0
0FFFF0
07FFE0
03FFC0
03FFC0
01FF80
00FF00
00FF00
007E00
007E00
007E00
007E00
007E00
007E00
007E00
007E00
007E00
007E00
ENDCHAR
STARTCHAR Thorn
ENCODING 222
SWIDTH 737 0
DWIDTH 24 0
BBX 19 23 3 0
BITMAP
FC0000
FC0000
FC0000
FC0000
FFFC00
FFFF00
FFFF80
FFFFC0
FC1FC0
FC0FE0
FC07E0
FC07E0
FC07E0
FC0FE0
FC1FC0
FFFFC0
FFFF80
FFFF00
FFFC00
FC0000
FC0000
FC0000
FC0000
ENDCHAR
STARTCHAR germandbls
ENCODING 223
SWIDTH 719 0
DWIDTH 23 0
BBX 19 24 3 0
BITMAP
07F000
3FFE00
7FFF00
7FFF00
FE1F80
FC0F80
FC0F80
FC3F80
FC7C00
FCF800
FCF800
FCF800
FCFE00
FC7F80
FC3FC0
FC1FC0
FC0FE0
FC07E0
FC07E0
FC8FE0
FCFFE0
FCFFC0
FCFF80
FC7F00
ENDCHAR
STARTCHAR agrave
ENCODING 224
SWIDTH 674 0
DWIDTH 22 0
BBX 18 26 1 0
BITMAP
1F0000
0F8000
078000
03C000
01E000
00F000
000000
000000
0FF800
3FFE00
3FFF00
3FFF80
301F80
000FC0
000FC0
0FFFC0
3FFFC0
7FFFC0
FE0FC0
FC0FC0
FC1FC0
FE3FC0
FFFFC0
7FFFC0
3FEFC0
1F8FC0
ENDCHAR
STARTCHAR aacute
ENCODING 225
SWIDTH 674 0
DWIDTH 22 0
BBX 18 26 1 0
BITMAP
000F00
001E00
001C00
003800
007800
00F000
000000
000000
0FF800
3FFE00
3FFF00
3FFF80
301F80
000FC0
000FC0
0FFFC0
3FFFC0
7FFFC0
FE0FC0
FC0FC0
FC1FC0
FE3FC0
FFFFC0
7FFFC0
3FEFC0
1F8FC0
ENDCHAR
STARTCHAR acircumflex
ENCODING 226
SWIDTH 674 0
DWIDTH 22 0
BBX 18 26 1 0
BITMAP
00F000
01F800
03FC00
039C00
070E00
0E0700
000000
000000
0FF800
3FFE00
3FFF00
3FFF80
301F80
000FC0
000FC0
0FFFC0
3FFFC0
7FFFC0
FE0FC0
FC0FC0
FC1FC0
FE3FC0
FFFFC0
7FFFC0
3FEFC0
1F8FC0
ENDCHAR
STARTCHAR atilde
ENCODING 227
SWIDTH 674 0
DWIDTH 22 0
BBX 18 26 1 0
BITMAP
038600
07E600
067E00
061C00
000000
000000
000000
000000
0FF800
3FFE00
3FFF00
3FFF80
301F80
000FC0
000FC0
0FFFC0
3FFFC0
7FFFC0
FE0FC0
FC0FC0
FC1FC0
FE3FC0
FFFFC0
7FFFC0
3FEFC0
1F8FC0
ENDCHAR
STARTCHAR adieresis
ENCODING 228
SWIDTH 674 0
DWIDTH 22 0
BBX 18 25 1 0
BITMAP
078F00
078F00
078F00
078F00
000000
000000
000000
0FF800
3FFE00
3FFF00
3FFF80
301F80
000FC0
000FC0
0FFFC0
3FFFC0
7FFFC0
FE0FC0
FC0FC0
FC1FC0
FE3FC0
FFFFC0
7FFFC0
3FEFC0
1F8FC0
ENDCHAR
STARTCHAR aring
ENCODING 229
SWIDTH 674 0
DWIDTH 22 0
BBX 18 28 1 0
BITMAP
00F000
01FC00
038C00
030600
030600
030600
038C00
01FC00
00F800
000000
0FF800
3FFE00
3FFF00
3FFF80
301F80
000FC0
000FC0
0FFFC0
3FFFC0
7FFFC0
FE0FC0
FC0FC0
FC1FC0
FE3FC0
FFFFC0
7FFFC0
3FEFC0
1F8FC0
ENDCHAR
STARTCHAR ae
ENCODING 230
SWIDTH 1047 0
DWIDTH 34 0
BBX 31 18 1 0
BITMAP
0FF83F80
3FFEFFE0
3FFFFFF0
3FFFFFF8
301FF1FC
000FE0FC
000FC07E
0FFFC07E
3FFFFFFE
7FFFFFFE
FE0FFFFE
FC0FC000
FC0FE004
FE3FF03C
FFFFFFFC
7FFBFFFC
3FF0FFF8
0FC03FC0
ENDCHAR
STARTCHAR ccedilla
ENCODING 231
SWIDTH 592 0
DWIDTH 19 0
BBX 15 24 1 -6
BITMAP
03FC
0FFE
3FFE
3FFE
7F06
7E02
FC00
FC00
FC00
FC00
FC00
FC00
7E02
7F06
3FFE
3FFE
0FFE
03FC
0060
0030
0038
0038
03F8
03F0
ENDCHAR
STARTCHAR egrave
ENCODING 232
SWIDTH 678 0
DWIDTH 22 0
BBX 19 26 1 0
BITMAP
0F0000
078000
03C000
01E000
00E000
007000
000000
000000
03F800
0FFE00
1FFF00
3FFF80
7F1FC0
7E0FC0
FC07E0
FC07E0
FFFFE0
FFFFE0
FFFFE0
FC0000
7E0040
7F03C0
3FFFC0
3FFFC0
0FFF80
03FC00
ENDCHAR
STARTCHAR eacute
ENCODING 233
SWIDTH 678 0
DWIDTH 22 0
BBX 19 26 1 0
BITMAP
000F80
000F00
001E00
003C00
007800
007000
000000
000000
03F800
0FFE00
1FFF00
3FFF80
7F1FC0
7E0FC0
FC07E0
FC07E0
FFFFE0
FFFFE0
FFFFE0
FC0000
7E0040
7F03C0
3FFFC0
3FFFC0
0FFF80
03FC00
ENDCHAR
STARTCHAR ecircumflex
ENCODING 234
SWIDTH 678 0
DWIDTH 22 0
BBX 19 26 1 0
BITMAP
00F800
01F800
01FC00
039E00
078E00
070700
000000
000000
03F800
0FFE00
1FFF00
3FFF80
7F1FC0
7E0FC0
FC07E0
FC07E0
FFFFE0
FFFFE0
FFFFE0
FC0000
7E0040
7F03C0
3FFFC0
3FFFC0
0FFF80
03FC00
ENDCHAR
STARTCHAR edieresis
ENCODING 235
SWIDTH 678 0
DWIDTH 22 0
BBX 19 25 1 0
BITMAP
078F00
078F00
078F00
078F00
000000
000000
000000
03F800
0FFE00
1FFF00
3FFF80
7F1FC0
7E0FC0
FC07E0
FC07E0
FFFFE0
FFFFE0
FFFFE0
FC0000
7E0040
7F03C0
3FFFC0
3FFFC0
0FFF80
03FC00
ENDCHAR
STARTCHAR igrave
ENCODING 236
SWIDTH 342 0
DWIDTH 11 0
BBX 10 26 -1 0
BITMAP
F800
7C00
3C00
1E00
0F00
0700
0000
0000
0FC0
0FC0
0FC0
0FC0
0FC0
0FC0
0FC0
0FC0
0FC0
0FC0
0FC0
0FC0
0FC0
0FC0
0FC0
0FC0
0FC0
0FC0
ENDCHAR
STARTCHAR iacute
ENCODING 237
SWIDTH 342 0
DWIDTH 11 0
BBX 9 26 3 0
BITMAP
0780
0F00
1E00
1C00
3800
7000
0000
0000
FC00
FC00
FC00
FC00
FC00
FC00
FC00
FC00
FC00
FC00
FC00
FC00
FC00
FC00
FC00
FC00
FC00
FC00
ENDCHAR
STARTCHAR icircumflex
ENCODING 238
SWIDTH 342 0
DWIDTH 11 0
BBX 12 26 0 0
BITMAP
0F00
1F80
3FC0
39C0
70E0
E070
0000
0000
1F80
1F80
1F80
1F80
1F80
1F80
1F80
1F80
1F80
1F80
1F80
1F80
1F80
1F80
1F80
1F80
1F80
1F80
ENDCHAR
STARTCHAR idieresis
ENCODING 239
SWIDTH 342 0
DWIDTH 11 0
BBX 10 25 1 0
BITMAP
F3C0
F3C0
F3C0
F3C0
0000
0000
0000
3F00
3F00
3F00
3F00
3F00
3F00
3F00
3F00
3F00
3F00
3F00
3F00
3F00
3F00
3F00
3F00
3F00
3F00
ENDCHAR
STARTCHAR eth
ENCODING 240
SWIDTH 687 0
DWIDTH 22 0
BBX 19 24 1 0
BITMAP
0FC180
07EF80
07FF00
03F800
3FF800
7C7C00
607E00
003F00
07FF00
1FFF80
3FFFC0
7FFFC0
FE0FE0
FC07E0
FC07E0
FC07E0
FC07E0
FC07E0
FE0FE0
7F1FC0
7FFFC0
3FFF80
0FFE00
03F800
ENDCHAR
STARTCHAR ntilde
ENCODING 241
SWIDTH 711 0
DWIDTH 23 0
BBX 18 26 3 0
BITMAP
078600
0FCE00
0CFC00
0C3800
000000
000000
000000
000000
FC7E00
FDFF00
FFFF80
FFFF80
FF1FC0
FE0FC0
FC0FC0
FC0FC0
FC0FC0
FC0FC0
FC0FC0
FC0FC0
FC0FC0
FC0FC0
FC0FC0
FC0FC0
FC0FC0
FC0FC0
ENDCHAR
STARTCHAR ograve
ENCODING 242
SWIDTH 687 0
DWIDTH 22 0
BBX 19 26 1 0
BITMAP
0F0000
078000
03C000
01C000
00E000
007000
000000
000000
03F800
0FFE00
3FFF80
3FFF80
7F1FC0
7E0FC0
FC07E0
FC07E0
FC07E0
FC07E0
FC07E0
FC07E0
7E0FC0
7F1FC0
3FFF80
3FFF80
0FFE00
03F800
ENDCHAR
STARTCHAR oacute
ENCODING 243
SWIDTH 687 0
DWIDTH 22 0
BBX 19 26 1 0
BITMAP
000F80
000F00
001E00
003C00
007800
007000
000000
000000
03F800
0FFE00
3FFF80
3FFF80
7F1FC0
7E0FC0
FC07E0
FC07E0
FC07E0
FC07E0
FC07E0
FC07E0
7E0FC0
7F1FC0
3FFF80
3FFF80
0FFE00
03F800
ENDCHAR
STARTCHAR ocircumflex
ENCODING 244
SWIDTH 687 0
DWIDTH 22 0
BBX 19 26 1 0
BITMAP
01F000
01F000
03B800
07BC00
071E00
0E0E00
000000
000000
03F800
0FFE00
3FFF80
3FFF80
7F1FC0
7E0FC0
FC07E0
FC07E0
FC07E0
FC07E0
FC07E0
FC07E0
7E0FC0
7F1FC0
3FFF80
3FFF80
0FFE00
03F800
ENDCHAR
STARTCHAR otilde
ENCODING 245
SWIDTH 687 0
DWIDTH 22 0
BBX 19 26 1 0
BITMAP
078600
0FC600
0CFC00
0C3C00
000000
000000
000000
000000
03F800
0FFE00
3FFF80
3FFF80
7F1FC0
7E0FC0
FC07E0
FC07E0
FC07E0
FC07E0
FC07E0
FC07E0
7E0FC0
7F1FC0
3FFF80
3FFF80
0FFE00
03F800
ENDCHAR
STARTCHAR odieresis
ENCODING 246
SWIDTH 687 0
DWIDTH 22 0
BBX 19 25 1 0
BITMAP
0F1E00
0F1E00
0F1E00
0F1E00
000000
000000
000000
03F800
0FFE00
3FFF80
3FFF80
7F1FC0
7E0FC0
FC07E0
FC07E0
FC07E0
FC07E0
FC07E0
FC07E0
7E0FC0
7F1FC0
3FFF80
3FFF80
0FFE00
03F800
ENDCHAR
STARTCHAR divide
ENCODING 247
SWIDTH 837 0
DWIDTH 27 0
BBX 21 18 3 1
BITMAP
00F800
00F800
00F800
00F800
00F800
000000
000000
FFFFF8
FFFFF8
FFFFF8
FFFFF8
000000
000000
00F800
00F800
00F800
00F800
00F800
ENDCHAR
STARTCHAR oslash
ENCODING 248
SWIDTH 687 0
DWIDTH 22 0
BBX 19 20 1 -1
BITMAP
000040
03F8E0
0FFFC0
3FFF80
3FFF80
7F1FC0
7E1FC0
FC3FE0
FC77E0
FCE7E0
FCC7E0
FDC7E0
FF87E0
7F0FC0
7F1FC0
3FFF80
3FFF80
7FFE00
E7F800
400000
ENDCHAR
STARTCHAR ugrave
ENCODING 249
SWIDTH 711 0
DWIDTH 23 0
BBX 18 26 3 0
BITMAP
3E0000
1E0000
0F0000
078000
03C000
01C000
000000
000000
FC0FC0
FC0FC0
FC0FC0
FC0FC0
FC0FC0
FC0FC0
FC0FC0
FC0FC0
FC0FC0
FC0FC0
FC0FC0
FC0FC0
FC1FC0
FE3FC0
7FFFC0
7FFFC0
3FEFC0
1F8FC0
ENDCHAR
STARTCHAR uacute
ENCODING 250
SWIDTH 711 0
DWIDTH 23 0
BBX 18 26 3 0
BITMAP
001E00
003C00
007800
007000
00E000
01C000
000000
000000
FC0FC0
FC0FC0
FC0FC0
FC0FC0
FC0FC0
FC0FC0
FC0FC0
FC0FC0
FC0FC0
FC0FC0
FC0FC0
FC0FC0
FC1FC0
FE3FC0
7FFFC0
7FFFC0
3FEFC0
1F8FC0
ENDCHAR
STARTCHAR ucircumflex
ENCODING 251
SWIDTH 711 0
DWIDTH 23 0
BBX 18 26 3 0
BITMAP
01E000
03F000
07F800
073800
0E1C00
1C0E00
000000
000000
FC0FC0
FC0FC0
FC0FC0
FC0FC0
FC0FC0
FC0FC0
FC0FC0
FC0FC0
FC0FC0
FC0FC0
FC0FC0
FC0FC0
FC1FC0
FE3FC0
7FFFC0
7FFFC0
3FEFC0
1F8FC0
ENDCHAR
STARTCHAR udieresis
ENCODING 252
SWIDTH 711 0
DWIDTH 23 0
BBX 18 25 3 0
BITMAP
1E1E00
1E1E00
1E1E00
1E1E00
000000
000000
000000
FC0FC0
FC0FC0
FC0FC0
FC0FC0
FC0FC0
FC0FC0
FC0FC0
FC0FC0
FC0FC0
FC0FC0
FC0FC0
FC0FC0
FC1FC0
FE3FC0
7FFFC0
7FFFC0
3FEFC0
1F8FC0
ENDCHAR
STARTCHAR yacute
ENCODING 253
SWIDTH 651 0
DWIDTH 21 0
BBX 20 33 0 -7
BITMAP
000780
000F00
001E00
003C00
003800
007000
000000
000000
FE07F0
7E07E0
7F07E0
7F0FE0
3F0FC0
3F9FC0
1F9FC0
1FDF80
0FFF80
0FFF00
0FFF00
07FF00
07FE00
03FE00
03FC00
01FC00
01FC00
01F800
01F800
03F800
07F000
1FF000
1FE000
1FC000
1F8000
ENDCHAR
STARTCHAR thorn
ENCODING 254
SWIDTH 715 0
DWIDTH 23 0
BBX 19 31 3 -7
BITMAP
FC0000
FC0000
FC0000
FC0000
FC0000
FC0000
FC7C00
FDFF00
FFFF80
FFFFC0
FF1FC0
FE0FE0
FC07E0
FC07E0
FC07E0
FC07E0
FC07E0
FC07E0
FE0FE0
FF1FC0
FFFFC0
FFFF80
FDFF00
FC7C00
FC0000
FC0000
FC0000
FC0000
FC0000
FC0000
FC0000
ENDCHAR
STARTCHAR ydieresis
ENCODING 255
SWIDTH 651 0
DWIDTH 21 0
BBX 20 32 0 -7
BITMAP
078F00
078F00
078F00
078F00
000000
000000
000000
FE07F0
7E07E0
7F07E0
7F0FE0
3F0FC0
3F9FC0
1F9FC0
1FDF80
0FFF80
0FFF00
0FFF00
07FF00
07FE00
03FE00
03FC00
01FC00
01FC00
01F800
01F800
03F800
07F000
1FF000
1FE000
1FC000
1F8000
ENDCHAR
STARTCHAR Amacron
ENCODING 256
SWIDTH 773 0
DWIDTH 25 0
BBX 24 29 0 0
BITMAP
01FF80
01FF80
01FF80
000000
000000
000000
00FF00
00FF00
00FF00
01FF80
01FF80
03FFC0
03FFC0
03FFC0
07FFE0
07E7E0
07E7E0
0FE7F0
0FC3F0
1FC3F8
1FFFF8
1FFFF8
3FFFFC
3FFFFC
3F00FC
7F00FE
7E007E
7E007E
FE007F
ENDCHAR
STARTCHAR amacron
ENCODING 257
SWIDTH 674 0
DWIDTH 22 0
BBX 18 24 1 0
BITMAP
0FFC00
0FFC00
0FFC00
000000
000000
000000
0FF800
3FFE00
3FFF00
3FFF80
301F80
000FC0
000FC0
0FFFC0
3FFFC0
7FFFC0
FE0FC0
FC0FC0
FC1FC0
FE3FC0
FFFFC0
7FFFC0
3FEFC0
1F8FC0
ENDCHAR
STARTCHAR Abreve
ENCODING 258
SWIDTH 773 0
DWIDTH 25 0
BBX 24 30 0 0
BITMAP
018180
018180
00C300
00FF00
003C00
000000
000000
00FF00
00FF00
00FF00
01FF80
01FF80
03FFC0
03FFC0
03FFC0
07FFE0
07E7E0
07E7E0
0FE7F0
0FC3F0
1FC3F8
1FFFF8
1FFFF8
3FFFFC
3FFFFC
3F00FC
7F00FE
7E007E
7E007E
FE007F
ENDCHAR
STARTCHAR abreve
ENCODING 259
SWIDTH 674 0
DWIDTH 22 0
BBX 18 25 1 0
BITMAP
060300
030300
038700
01FE00
00FC00
000000
000000
0FF800
3FFE00
3FFF00
3FFF80
301F80
000FC0
000FC0
0FFFC0
3FFFC0
7FFFC0
FE0FC0
FC0FC0
FC1FC0
FE3FC0
FFFFC0
7FFFC0
3FEFC0
1F8FC0
ENDCHAR
STARTCHAR Aogonek
ENCODING 260
SWIDTH 773 0
DWIDTH 25 0
BBX 24 29 0 -6
BITMAP
00FF00
00FF00
00FF00
01FF80
01FF80
03FFC0
03FFC0
03FFC0
07FFE0
07E7E0
07E7E0
0FE7F0
0FC3F0
1FC3F8
1FFFF8
1FFFF8
3FFFFC
3FFFFC
3F00FC
7F00FE
7E007E
7E007E
FE007F
000030
000070
000070
0000F0
00007E
00003E
ENDCHAR
STARTCHAR aogonek
ENCODING 261
SWIDTH 674 0
DWIDTH 22 0
BBX 18 24 1 -6
BITMAP
0FF800
3FFE00
3FFF00
3FFF80
301F80
000FC0
000FC0
0FFFC0
3FFFC0
7FFFC0
FE0FC0
FC0FC0
FC1FC0
FE3FC0
FFFFC0
7FFFC0
3FEFC0
1F8FC0
000C00
001C00
001800
003C00
001F80
000F80
ENDCHAR
STARTCHAR Cacute
ENCODING 262
SWIDTH 733 0
DWIDTH 23 0
BBX 20 30 2 0
BITMAP
000F80
000F00
001E00
003800
000000
000000
000000
00FF80
03FFF0
0FFFF0
1FFFF0
3FC070
7F0010
7E0000
7E0000
FC0000
FC0000
FC0000
FC0000
FC0000
FC0000
FC0000
7E0000
7E0000
7F0010
3FC070
1FFFF0
0FFFF0
03FFF0
00FF80
ENDCHAR
STARTCHAR cacute
ENCODING 263
SWIDTH 592 0
DWIDTH 19 0
BBX 17 26 1 0
BITMAP
000F80
000F00
001E00
003C00
007800
007000
000000
000000
03FC00
0FFE00
3FFE00
3FFE00
7F0600
7E0200
FC0000
FC0000
FC0000
FC0000
FC0000
FC0000
7E0200
7F0600
3FFE00
3FFE00
0FFE00
03FC00
ENDCHAR
STARTCHAR Ccircumflex
ENCODING 264
SWIDTH 733 0
DWIDTH 23 0
BBX 20 30 2 0
BITMAP
007E00
00FF00
00E780
01C1C0
000000
000000
000000
00FF80
03FFF0
0FFFF0
1FFFF0
3FC070
7F0010
7E0000
7E0000
FC0000
FC0000
FC0000
FC0000
FC0000
FC0000
FC0000
7E0000
7E0000
7F0010
3FC070
1FFFF0
0FFFF0
03FFF0
00FF80
ENDCHAR
STARTCHAR ccircumflex
ENCODING 265
SWIDTH 592 0
DWIDTH 19 0
BBX 16 26 1 0
BITMAP
00F8
00F8
01DC
03DE
078E
0707
0000
0000
03FC
0FFE
3FFE
3FFE
7F06
7E02
FC00
FC00
FC00
FC00
FC00
FC00
7E02
7F06
3FFE
3FFE
0FFE
03FC
ENDCHAR
STARTCHAR Cdotaccent
ENCODING 266
SWIDTH 733 0
DWIDTH 23 0
BBX 20 30 2 0
BITMAP
003C00
003C00
003C00
003C00
000000
000000
000000
00FF80
03FFF0
0FFFF0
1FFFF0
3FC070
7F0010
7E0000
7E0000
FC0000
FC0000
FC0000
FC0000
FC0000
FC0000
FC0000
7E0000
7E0000
7F0010
3FC070
1FFFF0
0FFFF0
03FFF0
00FF80
ENDCHAR
STARTCHAR cdotaccent
ENCODING 267
SWIDTH 592 0
DWIDTH 19 0
BBX 15 26 1 0
BITMAP
01F8
01F8
01F8
01F8
01F8
01F8
0000
0000
03FC
0FFE
3FFE
3FFE
7F06
7E02
FC00
FC00
FC00
FC00
FC00
FC00
7E02
7F06
3FFE
3FFE
0FFE
03FC
ENDCHAR
STARTCHAR Ccaron
ENCODING 268
SWIDTH 733 0
DWIDTH 23 0
BBX 20 30 2 0
BITMAP
038380
01C700
00FE00
007E00
000000
000000
000000
00FF80
03FFF0
0FFFF0
1FFFF0
3FC070
7F0010
7E0000
7E0000
FC0000
FC0000
FC0000
FC0000
FC0000
FC0000
FC0000
7E0000
7E0000
7F0010
3FC070
1FFFF0
0FFFF0
03FFF0
00FF80
ENDCHAR
STARTCHAR ccaron
ENCODING 269
SWIDTH 592 0
DWIDTH 19 0
BBX 16 26 1 0
BITMAP
0707
070E
039E
01FC
01F8
00F8
0000
0000
03FC
0FFE
3FFE
3FFE
7F06
7E02
FC00
FC00
FC00
FC00
FC00
FC00
7E02
7F06
3FFE
3FFE
0FFE
03FC
ENDCHAR
STARTCHAR Dcaron
ENCODING 270
SWIDTH 830 0
DWIDTH 27 0
BBX 22 30 3 0
BITMAP
0E0E00
0F3C00
07F800
03F000
000000
000000
000000
FFF800
FFFF00
FFFFC0
FFFFE0
FC0FF0
FC03F8
FC01F8
FC01F8
FC00FC
FC00FC
FC00FC
FC00FC
FC00FC
FC00FC
FC00FC
FC01F8
FC01F8
FC03F8
FC0FF0
FFFFE0
FFFFC0
FFFF00
FFF800
ENDCHAR
STARTCHAR dcaron
ENCODING 271
SWIDTH 715 0
DWIDTH 23 0
BBX 27 25 1 0
BITMAP
000001E0
0007E3E0
0007E3C0
0007E3C0
0007E380
0007E380
0007E000
07C7E000
1FF7E000
3FFFE000
7FFFE000
7F1FE000
FE0FE000
FC07E000
FC07E000
FC07E000
FC07E000
FC07E000
FC07E000
FE0FE000
7F1FE000
7FFFE000
3FFFE000
1FF7E000
07C7E000
ENDCHAR
STARTCHAR Dcroat
ENCODING 272
SWIDTH 837 0
DWIDTH 27 0
BBX 25 23 0 0
BITMAP
1FFF0000
1FFFE000
1FFFF800
1FFFFC00
1F81FE00
1F807F00
1F803F00
1F803F00
1F801F80
1F801F80
FFF81F80
FFF81F80
FFF81F80
FFF81F80
1F801F80
1F803F00
1F803F00
1F807F00
1F81FE00
1FFFFC00
1FFFF800
1FFFE000
1FFF0000
ENDCHAR
STARTCHAR dcroat
ENCODING 273
SWIDTH 715 0
DWIDTH 23 0
BBX 21 24 1 0
BITMAP
0007E0
0007E0
00FFF8
00FFF8
00FFF8
0007E0
07C7E0
1FF7E0
3FFFE0
7FFFE0
7F1FE0
FE0FE0
FC07E0
FC07E0
FC07E0
FC07E0
FC07E0
FC07E0
FE0FE0
7F1FE0
7FFFE0
3FFFE0
1FF7E0
07C7E0
ENDCHAR
STARTCHAR Emacron
ENCODING 274
SWIDTH 683 0
DWIDTH 22 0
BBX 17 29 3 0
BITMAP
0FF800
0FF800
0FF800
000000
000000
000000
FFFF80
FFFF80
FFFF80
FFFF80
FC0000
FC0000
FC0000
FC0000
FC0000
FFFF00
FFFF00
FFFF00
FFFF00
FC0000
FC0000
FC0000
FC0000
FC0000
FC0000
FFFF80
FFFF80
FFFF80
FFFF80
ENDCHAR
STARTCHAR emacron
ENCODING 275
SWIDTH 678 0
DWIDTH 22 0
BBX 19 24 1 0
BITMAP
07FC00
07FC00
07FC00
000000
000000
000000
03F800
0FFE00
1FFF00
3FFF80
7F1FC0
7E0FC0
FC07E0
FC07E0
FFFFE0
FFFFE0
FFFFE0
FC0000
7E0040
7F03C0
3FFFC0
3FFFC0
0FFF80
03FC00
ENDCHAR
STARTCHAR Ebreve
ENCODING 276
SWIDTH 683 0
DWIDTH 22 0
BBX 17 30 3 0
BITMAP
180C00
1C1800
0FF800
07E000
000000
000000
000000
FFFF80
FFFF80
FFFF80
FFFF80
FC0000
FC0000
FC0000
FC0000
FC0000
FFFF00
FFFF00
FFFF00
FFFF00
FC0000
FC0000
FC0000
FC0000
FC0000
FC0000
FFFF80
FFFF80
FFFF80
FFFF80
ENDCHAR
STARTCHAR ebreve
ENCODING 277
SWIDTH 678 0
DWIDTH 22 0
BBX 19 25 1 0
BITMAP
060300
030300
038700
01FE00
00FC00
000000
000000
03F800
0FFE00
1FFF00
3FFF80
7F1FC0
7E0FC0
FC07E0
FC07E0
FFFFE0
FFFFE0
FFFFE0
FC0000
7E0040
7F03C0
3FFFC0
3FFFC0
0FFF80
03FC00
ENDCHAR
STARTCHAR Edotaccent
ENCODING 278
SWIDTH 683 0
DWIDTH 22 0
BBX 17 30 3 0
BITMAP
03C000
03C000
03C000
03C000
000000
000000
000000
FFFF80
FFFF80
FFFF80
FFFF80
FC0000
FC0000
FC0000
FC0000
FC0000
FFFF00
FFFF00
FFFF00
FFFF00
FC0000
FC0000
FC0000
FC0000
FC0000
FC0000
FFFF80
FFFF80
FFFF80
FFFF80
ENDCHAR
STARTCHAR edotaccent
ENCODING 279
SWIDTH 678 0
DWIDTH 22 0
BBX 19 26 1 0
BITMAP
01F800
01F800
01F800
01F800
01F800
01F800
000000
000000
03F800
0FFE00
1FFF00
3FFF80
7F1FC0
7E0FC0
FC07E0
FC07E0
FFFFE0
FFFFE0
FFFFE0
FC0000
7E0040
7F03C0
3FFFC0
3FFFC0
0FFF80
03FC00
ENDCHAR
STARTCHAR Eogonek
ENCODING 280
SWIDTH 683 0
DWIDTH 22 0
BBX 17 29 3 -6
BITMAP
FFFF80
FFFF80
FFFF80
FFFF80
FC0000
FC0000
FC0000
FC0000
FC0000
FFFF00
FFFF00
FFFF00
FFFF00
FC0000
FC0000
FC0000
FC0000
FC0000
FC0000
FFFF80
FFFF80
FFFF80
FFFF80
001800
003800
003800
003800
003F80
001F80
ENDCHAR
STARTCHAR eogonek
ENCODING 281
SWIDTH 678 0
DWIDTH 22 0
BBX 19 24 1 -6
BITMAP
03F800
0FFE00
1FFF00
3FFF80
7F1FC0
7E0FC0
FC07E0
FC07E0
FFFFE0
FFFFE0
FFFFE0
FC0000
7E0040
7F03C0
3FFFC0
3FFFC0
0FFF80
03FC00
000C00
001C00
003800
003C00
001F80
000F80
ENDCHAR
STARTCHAR Ecaron
ENCODING 282
SWIDTH 683 0
DWIDTH 22 0
BBX 17 30 3 0
BITMAP
1C1C00
0E3800
07F000
03E000
000000
000000
000000
FFFF80
FFFF80
FFFF80
FFFF80
FC0000
FC0000
FC0000
FC0000
FC0000
FFFF00
FFFF00
FFFF00
FFFF00
FC0000
FC0000
FC0000
FC0000
FC0000
FC0000
FFFF80
FFFF80
FFFF80
FFFF80
ENDCHAR
STARTCHAR ecaron
ENCODING 283
SWIDTH 678 0
DWIDTH 22 0
BBX 19 26 1 0
BITMAP
070700
070E00
039E00
01FC00
01F800
00F800
000000
000000
03F800
0FFE00
1FFF00
3FFF80
7F1FC0
7E0FC0
FC07E0
FC07E0
FFFFE0
FFFFE0
FFFFE0
FC0000
7E0040
7F03C0
3FFFC0
3FFFC0
0FFF80
03FC00
ENDCHAR
STARTCHAR Gcircumflex
ENCODING 284
SWIDTH 820 0
DWIDTH 26 0
BBX 22 30 2 0
BITMAP
003E00
007F00
00E380
01C1C0
000000
000000
000000
00FFC0
03FFF8
0FFFF8
1FFFF8
3FC078
7F0008
7E0000
7E0000
FC0000
FC0000
FC0FFC
FC0FFC
FC0FFC
FC0FFC
FC00FC
7E00FC
7E00FC
7F00FC
3FC0FC
1FFFFC
0FFFFC
03FFF8
00FF80
ENDCHAR
STARTCHAR gcircumflex
ENCODING 285
SWIDTH 715 0
DWIDTH 23 0
BBX 19 33 1 -7
BITMAP
00F000
01F800
03FC00
039C00
070E00
0E0700
000000
000000
07C7E0
1FF7E0
3FFFE0
7FFFE0
7F1FE0
FE0FE0
FC07E0
FC07E0
FC07E0
FC07E0
FC07E0
FC07E0
FE0FE0
7F1FE0
7FFFE0
3FFFE0
1FF7E0
07C7E0
0007E0
200FC0
381FC0
3FFF80
3FFF80
1FFE00
07F800
ENDCHAR
STARTCHAR Gbreve
ENCODING 286
SWIDTH 820 0
DWIDTH 26 0
BBX 22 30 2 0
BITMAP
030180
038300
01FF00
00FC00
000000
000000
000000
00FFC0
03FFF8
0FFFF8
1FFFF8
3FC078
7F0008
7E0000
7E0000
FC0000
FC0000
FC0FFC
FC0FFC
FC0FFC
FC0FFC
FC00FC
7E00FC
7E00FC
7F00FC
3FC0FC
1FFFFC
0FFFFC
03FFF8
00FF80
ENDCHAR
STARTCHAR gbreve
ENCODING 287
SWIDTH 715 0
DWIDTH 23 0
BBX 19 32 1 -7
BITMAP
070300
030300
038700
01FE00
00FC00
000000
000000
07C7E0
1FF7E0
3FFFE0
7FFFE0
7F1FE0
FE0FE0
FC07E0
FC07E0
FC07E0
FC07E0
FC07E0
FC07E0
FE0FE0
7F1FE0
7FFFE0
3FFFE0
1FF7E0
07C7E0
0007E0
200FC0
381FC0
3FFF80
3FFF80
1FFE00
07F800
ENDCHAR
STARTCHAR Gdotaccent
ENCODING 288
SWIDTH 820 0
DWIDTH 26 0
BBX 22 30 2 0
BITMAP
001E00
001E00
001E00
001E00
000000
000000
000000
00FFC0
03FFF8
0FFFF8
1FFFF8
3FC078
7F0008
7E0000
7E0000
FC0000
FC0000
FC0FFC
FC0FFC
FC0FFC
FC0FFC
FC00FC
7E00FC
7E00FC
7F00FC
3FC0FC
1FFFFC
0FFFFC
03FFF8
00FF80
ENDCHAR
STARTCHAR gdotaccent
ENCODING 289
SWIDTH 715 0
DWIDTH 23 0
BBX 19 33 1 -7
BITMAP
01F800
01F800
01F800
01F800
01F800
01F800
000000
000000
07C7E0
1FF7E0
3FFFE0
7FFFE0
7F1FE0
FE0FE0
FC07E0
FC07E0
FC07E0
FC07E0
FC07E0
FC07E0
FE0FE0
7F1FE0
7FFFE0
3FFFE0
1FF7E0
07C7E0
0007E0
200FC0
381FC0
3FFF80
3FFF80
1FFE00
07F800
ENDCHAR
STARTCHAR uni0122
ENCODING 290
SWIDTH 820 0
DWIDTH 26 0
BBX 22 31 2 -8
BITMAP
00FFC0
03FFF8
0FFFF8
1FFFF8
3FC078
7F0008
7E0000
7E0000
FC0000
FC0000
FC0FFC
FC0FFC
FC0FFC
FC0FFC
FC00FC
7E00FC
7E00FC
7F00FC
3FC0FC
1FFFFC
0FFFFC
03FFF8
00FF80
000000
000000
000000
001E00
003E00
003C00
003800
003800
ENDCHAR
STARTCHAR uni0123
ENCODING 291
SWIDTH 715 0
DWIDTH 23 0
BBX 19 31 1 -7
BITMAP
003800
007800
007800
00F000
01F000
000000
07C7E0
1FF7E0
3FFFE0
7FFFE0
7F1FE0
FE0FE0
FC07E0
FC07E0
FC07E0
FC07E0
FC07E0
FC07E0
FE0FE0
7F1FE0
7FFFE0
3FFFE0
1FF7E0
07C7E0
0007E0
200FC0
381FC0
3FFF80
3FFF80
1FFE00
07F800
ENDCHAR
STARTCHAR Hcircumflex
ENCODING 292
SWIDTH 836 0
DWIDTH 27 0
BBX 21 30 3 0
BITMAP
00F800
01FC00
038E00
070700
000000
000000
000000
FC01F8
FC01F8
FC01F8
FC01F8
FC01F8
FC01F8
FC01F8
FC01F8
FC01F8
FFFFF8
FFFFF8
FFFFF8
FFFFF8
FC01F8
FC01F8
FC01F8
FC01F8
FC01F8
FC01F8
FC01F8
FC01F8
FC01F8
FC01F8
ENDCHAR
STARTCHAR hcircumflex
ENCODING 293
SWIDTH 711 0
DWIDTH 23 0
BBX 21 30 0 0
BITMAP
1F8000
3FC000
79E000
E07000
000000
000000
1F8000
1F8000
1F8000
1F8000
1F8000
1F8000
1F8FC0
1FBFE0
1FFFF0
1FFFF0
1FE3F8
1FC1F8
1F81F8
1F81F8
1F81F8
1F81F8
1F81F8
1F81F8
1F81F8
1F81F8
1F81F8
1F81F8
1F81F8
1F81F8
ENDCHAR
STARTCHAR Hbar
ENCODING 294
SWIDTH 973 0
DWIDTH 31 0
BBX 25 23 3 0
BITMAP
3F007E00
3F007E00
3F007E00
FFFFFF80
FFFFFF80
FFFFFF80
3F007E00
3F007E00
3F007E00
3FFFFE00
3FFFFE00
3FFFFE00
3FFFFE00
3F007E00
3F007E00
3F007E00
3F007E00
3F007E00
3F007E00
3F007E00
3F007E00
3F007E00
3F007E00
ENDCHAR
STARTCHAR hbar
ENCODING 295
SWIDTH 790 0
DWIDTH 25 0
BBX 21 24 2 0
BITMAP
1F8000
FFFC00
FFFC00
FFFC00
1F8000
1F8000
1F8FC0
1FBFE0
1FFFF0
1FFFF0
1FE3F8
1FC1F8
1F81F8
1F81F8
1F81F8
1F81F8
1F81F8
1F81F8
1F81F8
1F81F8
1F81F8
1F81F8
1F81F8
1F81F8
ENDCHAR
STARTCHAR Itilde
ENCODING 296
SWIDTH 372 0
DWIDTH 12 0
BBX 12 30 0 0
BITMAP
3830
7E70
E7E0
C1C0
0000
0000
0000
1F80
1F80
1F80
1F80
1F80
1F80
1F80
1F80
1F80
1F80
1F80
1F80
1F80
1F80
1F80
1F80
1F80
1F80
1F80
1F80
1F80
1F80
1F80
ENDCHAR
STARTCHAR itilde
ENCODING 297
SWIDTH 342 0
DWIDTH 11 0
BBX 12 26 0 0
BITMAP
3830
7E70
E7E0
C1C0
0000
0000
0000
0000
1F80
1F80
1F80
1F80
1F80
1F80
1F80
1F80
1F80
1F80
1F80
1F80
1F80
1F80
1F80
1F80
1F80
1F80
ENDCHAR
STARTCHAR Imacron
ENCODING 298
SWIDTH 372 0
DWIDTH 12 0
BBX 10 29 1 0
BITMAP
FFC0
FFC0
FFC0
0000
0000
0000
3F00
3F00
3F00
3F00
3F00
3F00
3F00
3F00
3F00
3F00
3F00
3F00
3F00
3F00
3F00
3F00
3F00
3F00
3F00
3F00
3F00
3F00
3F00
ENDCHAR
STARTCHAR imacron
ENCODING 299
SWIDTH 342 0
DWIDTH 11 0
BBX 10 24 1 0
BITMAP
FFC0
FFC0
FFC0
0000
0000
0000
3F00
3F00
3F00
3F00
3F00
3F00
3F00
3F00
3F00
3F00
3F00
3F00
3F00
3F00
3F00
3F00
3F00
3F00
ENDCHAR
STARTCHAR Ibreve
ENCODING 300
SWIDTH 372 0
DWIDTH 12 0
BBX 12 30 0 0
BITMAP
C030
F0F0
7FE0
1F80
0000
0000
0000
1F80
1F80
1F80
1F80
1F80
1F80
1F80
1F80
1F80
1F80
1F80
1F80
1F80
1F80
1F80
1F80
1F80
1F80
1F80
1F80
1F80
1F80
1F80
ENDCHAR
STARTCHAR ibreve
ENCODING 301
SWIDTH 342 0
DWIDTH 11 0
BBX 12 25 0 0
BITMAP
C030
E070
70E0
7FE0
1F80
0000
0000
1F80
1F80
1F80
1F80
1F80
1F80
1F80
1F80
1F80
1F80
1F80
1F80
1F80
1F80
1F80
1F80
1F80
1F80
ENDCHAR
STARTCHAR Iogonek
ENCODING 302
SWIDTH 372 0
DWIDTH 12 0
BBX 9 29 3 -6
BITMAP
FC00
FC00
FC00
FC00
FC00
FC00
FC00
FC00
FC00
FC00
FC00
FC00
FC00
FC00
FC00
FC00
FC00
FC00
FC00
FC00
FC00
FC00
FC00
1C00
3800
3800
3800
3F80
1F80
ENDCHAR
STARTCHAR iogonek
ENCODING 303
SWIDTH 342 0
DWIDTH 11 0
BBX 8 30 3 -6
BITMAP
FC
FC
FC
FC
00
00
FC
FC
FC
FC
FC
FC
FC
FC
FC
FC
FC
FC
FC
FC
FC
FC
FC
FC
38
30
70
70
7F
3F
ENDCHAR
STARTCHAR Idotaccent
ENCODING 304
SWIDTH 372 0
DWIDTH 12 0
BBX 6 30 3 0
BITMAP
78
78
78
78
00
00
00
FC
FC
FC
FC
FC
FC
FC
FC
FC
FC
FC
FC
FC
FC
FC
FC
FC
FC
FC
FC
FC
FC
FC
ENDCHAR
STARTCHAR dotlessi
ENCODING 305
SWIDTH 342 0
DWIDTH 11 0
BBX 6 18 3 0
BITMAP
FC
FC
FC
FC
FC
FC
FC
FC
FC
FC
FC
FC
FC
FC
FC
FC
FC
FC
ENDCHAR
STARTCHAR IJ
ENCODING 306
SWIDTH 744 0
DWIDTH 24 0
BBX 18 29 3 -6
BITMAP
FC0FC0
FC0FC0
FC0FC0
FC0FC0
FC0FC0
FC0FC0
FC0FC0
FC0FC0
FC0FC0
FC0FC0
FC0FC0
FC0FC0
FC0FC0
FC0FC0
FC0FC0
FC0FC0
FC0FC0
FC0FC0
FC0FC0
FC0FC0
FC0FC0
FC0FC0
FC0FC0
001FC0
003F80
01FF80
01FF00
01FE00
01F000
ENDCHAR
STARTCHAR ij
ENCODING 307
SWIDTH 685 0
DWIDTH 23 0
BBX 17 31 3 -7
BITMAP
FC1F80
FC1F80
FC1F80
FC1F80
000000
000000
FC1F80
FC1F80
FC1F80
FC1F80
FC1F80
FC1F80
FC1F80
FC1F80
FC1F80
FC1F80
FC1F80
FC1F80
FC1F80
FC1F80
FC1F80
FC1F80
FC1F80
FC1F80
001F80
001F80
003F80
01FF00
01FF00
01FE00
01F800
ENDCHAR
STARTCHAR Jcircumflex
ENCODING 308
SWIDTH 372 0
DWIDTH 12 0
BBX 14 36 -2 -6
BITMAP
07E0
0FF0
1E78
381C
0000
0000
0000
07E0
07E0
07E0
07E0
07E0
07E0
07E0
07E0
07E0
07E0
07E0
07E0
07E0
07E0
07E0
07E0
07E0
07E0
07E0
07E0
07E0
07E0
07E0
0FE0
1FC0
FFC0
FF80
FF00
F800
ENDCHAR
STARTCHAR jcircumflex
ENCODING 309
SWIDTH 342 0
DWIDTH 11 0
BBX 13 33 -1 -7
BITMAP
0780
0FC0
1FE0
1CE0
3870
7038
0000
0000
0FC0
0FC0
0FC0
0FC0
0FC0
0FC0
0FC0
0FC0
0FC0
0FC0
0FC0
0FC0
0FC0
0FC0
0FC0
0FC0
0FC0
0FC0
0FC0
0FC0
1FC0
FF80
FF80
FF00
FC00
ENDCHAR
STARTCHAR uni0136
ENCODING 310
SWIDTH 774 0
DWIDTH 25 0
BBX 23 30 3 -7
BITMAP
FC03F8
FC07F0
FC0FE0
FC1FC0
FC3F80
FC7F00
FCFE00
FDFC00
FFF800
FFF000
FFE000
FFE000
FFF000
FFF800
FDFC00
FCFE00
FC7F00
FC3F80
FC1FC0
FC0FE0
FC07F0
FC03F8
FC01FE
000000
000000
003C00
007C00
007800
007000
007000
ENDCHAR
STARTCHAR uni0137
ENCODING 311
SWIDTH 665 0
DWIDTH 21 0
BBX 19 31 3 -7
BITMAP
FC0000
FC0000
FC0000
FC0000
FC0000
FC0000
FC1FC0
FC1F80
FC3F00
FC7E00
FCFC00
FDF800
FFF000
FFE000
FFC000
FFE000
FFF000
FDF800
FCFC00
FC7E00
FC7F00
FC3F80
FC1FC0
FC0FE0
000000
000000
00F000
01F000
01E000
01C000
01C000
ENDCHAR
STARTCHAR kgreenlandic
ENCODING 312
SWIDTH 665 0
DWIDTH 21 0
BBX 19 18 3 0
BITMAP
FC1FC0
FC1F80
FC3F00
FC7E00
FCFC00
FDF800
FFF000
FFE000
FFC000
FFE000
FFF000
FDF800
FCFC00
FC7E00
FC7F00
FC3F80
FC1FC0
FC0FE0
ENDCHAR
STARTCHAR Lacute
ENCODING 313
SWIDTH 637 0
DWIDTH 20 0
BBX 17 30 3 0
BITMAP
078000
0F0000
1E0000
3C0000
000000
000000
000000
FC0000
FC0000
FC0000
FC0000
FC0000
FC0000
FC0000
FC0000
FC0000
FC0000
FC0000
FC0000
FC0000
FC0000
FC0000
FC0000
FC0000
FC0000
FC0000
FFFF80
FFFF80
FFFF80
FFFF80
ENDCHAR
STARTCHAR lacute
ENCODING 314
SWIDTH 342 0
DWIDTH 11 0
BBX 9 30 3 0
BITMAP
0F80
1E00
3C00
3800
0000
0000
FC00
FC00
FC00
FC00
FC00
FC00
FC00
FC00
FC00
FC00
FC00
FC00
FC00
FC00
FC00
FC00
FC00
FC00
FC00
FC00
FC00
FC00
FC00
FC00
ENDCHAR
STARTCHAR uni013B
ENCODING 315
SWIDTH 637 0
DWIDTH 20 0
BBX 17 30 3 -7
BITMAP
FC0000
FC0000
FC0000
FC0000
FC0000
FC0000
FC0000
FC0000
FC0000
FC0000
FC0000
FC0000
FC0000
FC0000
FC0000
FC0000
FC0000
FC0000
FC0000
FFFF80
FFFF80
FFFF80
FFFF80
000000
000000
01E000
03E000
03C000
038000
038000
ENDCHAR
STARTCHAR uni013C
ENCODING 316
SWIDTH 342 0
DWIDTH 11 0
BBX 6 31 3 -7
BITMAP
FC
FC
FC
FC
FC
FC
FC
FC
FC
FC
FC
FC
FC
FC
FC
FC
FC
FC
FC
FC
FC
FC
FC
FC
00
00
78
78
F0
E0
E0
ENDCHAR
STARTCHAR Lcaron
ENCODING 317
SWIDTH 637 0
DWIDTH 20 0
BBX 17 24 3 0
BITMAP
000F80
FC0F00
FC0F00
FC0E00
FC1E00
FC1E00
FC0000
FC0000
FC0000
FC0000
FC0000
FC0000
FC0000
FC0000
FC0000
FC0000
FC0000
FC0000
FC0000
FC0000
FFFF80
FFFF80
FFFF80
FFFF80
ENDCHAR
STARTCHAR lcaron
ENCODING 318
SWIDTH 479 0
DWIDTH 15 0
BBX 13 25 3 0
BITMAP
00F8
FCF0
FCF0
FCE0
FDE0
FDC0
FC00
FC00
FC00
FC00
FC00
FC00
FC00
FC00
FC00
FC00
FC00
FC00
FC00
FC00
FC00
FC00
FC00
FC00
FC00
ENDCHAR
STARTCHAR Ldot
ENCODING 319
SWIDTH 637 0
DWIDTH 20 0
BBX 17 23 3 0
BITMAP
FC0000
FC0000
FC0000
FC0000
FC0000
FC0000
FC3F00
FC3F00
FC3F00
FC3F00
FC3F00
FC3F00
FC0000
FC0000
FC0000
FC0000
FC0000
FC0000
FC0000
FFFF80
FFFF80
FFFF80
FFFF80
ENDCHAR
STARTCHAR ldot
ENCODING 320
SWIDTH 556 0
DWIDTH 18 0
BBX 13 24 3 0
BITMAP
FC00
FC00
FC00
FC00
FC00
FC00
FC00
FDF8
FDF8
FDF8
FDF8
FDF8
FDF8
FC00
FC00
FC00
FC00
FC00
FC00
FC00
FC00
FC00
FC00
FC00
ENDCHAR
STARTCHAR Lslash
ENCODING 321
SWIDTH 642 0
DWIDTH 21 0
BBX 21 23 -1 0
BITMAP
0FC000
0FC000
0FC000
0FC000
0FC600
0FCF00
0FFF00
0FFE00
0FFC00
0FF000
0FE000
1FC000
3FC000
FFC000
FFC000
7FC000
4FC000
0FC000
0FC000
0FFFF8
0FFFF8
0FFFF8
0FFFF8
ENDCHAR
STARTCHAR lslash
ENCODING 322
SWIDTH 371 0
DWIDTH 12 0
BBX 13 24 0 0
BITMAP
1F80
1F80
1F80
1F80
1F80
1F80
1F80
1FF0
1FF8
1FF0
1FC0
3F80
FF80
FF80
DF80
1F80
1F80
1F80
1F80
1F80
1F80
1F80
1F80
1F80
ENDCHAR
STARTCHAR Nacute
ENCODING 323
SWIDTH 836 0
DWIDTH 27 0
BBX 21 30 3 0
BITMAP
001E00
003C00
007800
00F000
000000
000000
000000
FE01F8
FF01F8
FF01F8
FF81F8
FF81F8
FFC1F8
FFC1F8
FFE1F8
FDE1F8
FDF1F8
FCF1F8
FCF9F8
FC79F8
FC7DF8
FC3DF8
FC3FF8
FC1FF8
FC1FF8
FC0FF8
FC0FF8
FC07F8
FC07F8
FC03F8
ENDCHAR
STARTCHAR nacute
ENCODING 324
SWIDTH 711 0
DWIDTH 23 0
BBX 18 26 3 0
BITMAP
007800
00F800
00F000
01E000
03C000
078000
000000
000000
FC7E00
FDFF00
FFFF80
FFFF80
FF1FC0
FE0FC0
FC0FC0
FC0FC0
FC0FC0
FC0FC0
FC0FC0
FC0FC0
FC0FC0
FC0FC0
FC0FC0
FC0FC0
FC0FC0
FC0FC0
ENDCHAR
STARTCHAR uni0145
ENCODING 325
SWIDTH 836 0
DWIDTH 27 0
BBX 21 30 3 -7
BITMAP
FE01F8
FF01F8
FF01F8
FF81F8
FF81F8
FFC1F8
FFC1F8
FFE1F8
FDE1F8
FDF1F8
FCF1F8
FCF9F8
FC79F8
FC7DF8
FC3DF8
FC3FF8
FC1FF8
FC1FF8
FC0FF8
FC0FF8
FC07F8
FC07F8
FC03F8
000000
000000
007800
007800
00F000
00E000
00E000
ENDCHAR
STARTCHAR uni0146
ENCODING 326
SWIDTH 711 0
DWIDTH 23 0
BBX 18 25 3 -7
BITMAP
FC7E00
FDFF00
FFFF80
FFFF80
FF1FC0
FE0FC0
FC0FC0
FC0FC0
FC0FC0
FC0FC0
FC0FC0
FC0FC0
FC0FC0
FC0FC0
FC0FC0
FC0FC0
FC0FC0
FC0FC0
000000
000000
01E000
01E000
03C000
038000
038000
ENDCHAR
STARTCHAR Ncaron
ENCODING 327
SWIDTH 836 0
DWIDTH 27 0
BBX 21 30 3 0
BITMAP
070700
03CE00
01FE00
00FC00
000000
000000
000000
FE01F8
FF01F8
FF01F8
FF81F8
FF81F8
FFC1F8
FFC1F8
FFE1F8
FDE1F8
FDF1F8
FCF1F8
FCF9F8
FC79F8
FC7DF8
FC3DF8
FC3FF8
FC1FF8
FC1FF8
FC0FF8
FC0FF8
FC07F8
FC07F8
FC03F8
ENDCHAR
STARTCHAR ncaron
ENCODING 328
SWIDTH 711 0
DWIDTH 23 0
BBX 18 26 3 0
BITMAP
383800
1C7800
1E7000
0FE000
07E000
07C000
000000
000000
FC7E00
FDFF00
FFFF80
FFFF80
FF1FC0
FE0FC0
FC0FC0
FC0FC0
FC0FC0
FC0FC0
FC0FC0
FC0FC0
FC0FC0
FC0FC0
FC0FC0
FC0FC0
FC0FC0
FC0FC0
ENDCHAR
STARTCHAR napostrophe
ENCODING 329
SWIDTH 982 0
DWIDTH 31 0
BBX 27 23 2 0
BITMAP
3E000000
3E000000
3E000000
3E000000
3E000000
7C7E3F00
787E7F80
707EFFC0
F07FFFE0
E07F8FE0
007F07E0
007F07E0
007E07E0
007E07E0
007E07E0
007E07E0
007E07E0
007E07E0
007E07E0
007E07E0
007E07E0
007E07E0
007E07E0
ENDCHAR
STARTCHAR Eng
ENCODING 330
SWIDTH 836 0
DWIDTH 27 0
BBX 21 29 3 -6
BITMAP
FC3F80
FCFFC0
FDFFE0
FFFFF0
FF87F0
FF03F8
FE01F8
FE01F8
FC01F8
FC01F8
FC01F8
FC01F8
FC01F8
FC01F8
FC01F8
FC01F8
FC01F8
FC01F8
FC01F8
FC01F8
FC01F8
FC01F8
FC01F8
0003F8
0007F0
003FF0
003FE0
003FC0
003F00
ENDCHAR
STARTCHAR eng
ENCODING 331
SWIDTH 711 0
DWIDTH 24 0
BBX 18 25 3 -7
BITMAP
FC7E00
FDFF00
FFFF80
FFFF80
FF1FC0
FE0FC0
FC0FC0
FC0FC0
FC0FC0
FC0FC0
FC0FC0
FC0FC0
FC0FC0
FC0FC0
FC0FC0
FC0FC0
FC0FC0
FC0FC0
000FC0
000FC0
001FC0
01FF80
01FF80
01FF00
01FC00
ENDCHAR
STARTCHAR Omacron
ENCODING 332
SWIDTH 850 0
DWIDTH 27 0
BBX 24 29 2 0
BITMAP
01FF80
01FF80
01FF80
000000
000000
000000
00FF00
07FFE0
0FFFF0
1FFFF8
3F83FC
7F00FE
7E007E
7E007E
FC003F
FC003F
FC003F
FC003F
FC003F
FC003F
FC003F
7E007E
7E007E
7F00FE
3F81FC
1FFFF8
0FFFF0
07FFE0
00FF00
ENDCHAR
STARTCHAR omacron
ENCODING 333
SWIDTH 687 0
DWIDTH 22 0
BBX 19 24 1 0
BITMAP
07FC00
07FC00
07FC00
000000
000000
000000
03F800
0FFE00
3FFF80
3FFF80
7F1FC0
7E0FC0
FC07E0
FC07E0
FC07E0
FC07E0
FC07E0
FC07E0
7E0FC0
7F1FC0
3FFF80
3FFF80
0FFE00
03F800
ENDCHAR
STARTCHAR Obreve
ENCODING 334
SWIDTH 850 0
DWIDTH 27 0
BBX 24 30 2 0
BITMAP
018180
01C380
00FF00
007E00
000000
000000
000000
00FF00
07FFE0
0FFFF0
1FFFF8
3F83FC
7F00FE
7E007E
7E007E
FC003F
FC003F
FC003F
FC003F
FC003F
FC003F
FC003F
7E007E
7E007E
7F00FE
3F81FC
1FFFF8
0FFFF0
07FFE0
00FF00
ENDCHAR
STARTCHAR obreve
ENCODING 335
SWIDTH 687 0
DWIDTH 22 0
BBX 19 25 1 0
BITMAP
0C0600
0E0E00
061C00
07FC00
01F000
000000
000000
03F800
0FFE00
3FFF80
3FFF80
7F1FC0
7E0FC0
FC07E0
FC07E0
FC07E0
FC07E0
FC07E0
FC07E0
7E0FC0
7F1FC0
3FFF80
3FFF80
0FFE00
03F800
ENDCHAR
STARTCHAR Ohungarumlaut
ENCODING 336
SWIDTH 850 0
DWIDTH 27 0
BBX 24 30 2 0
BITMAP
00FBE0
01E780
03CF00
038E00
000000
000000
000000
00FF00
07FFE0
0FFFF0
1FFFF8
3F83FC
7F00FE
7E007E
7E007E
FC003F
FC003F
FC003F
FC003F
FC003F
FC003F
FC003F
7E007E
7E007E
7F00FE
3F81FC
1FFFF8
0FFFF0
07FFE0
00FF00
ENDCHAR
STARTCHAR ohungarumlaut
ENCODING 337
SWIDTH 687 0
DWIDTH 22 0
BBX 19 26 1 0
BITMAP
00E780
01C700
01CF00
018E00
039C00
031800
000000
000000
03F800
0FFE00
3FFF80
3FFF80
7F1FC0
7E0FC0
FC07E0
FC07E0
FC07E0
FC07E0
FC07E0
FC07E0
7E0FC0
7F1FC0
3FFF80
3FFF80
0FFE00
03F800
ENDCHAR
STARTCHAR OE
ENCODING 338
SWIDTH 1166 0
DWIDTH 37 0
BBX 33 23 2 0
BITMAP
007FFFFF80
03FFFFFF80
0FFFFFFF80
1FFFFFFF80
3FE0FC0000
7F80FC0000
7F00FC0000
7E00FC0000
FC00FC0000
FC00FFFF00
FC00FFFF00
FC00FFFF00
FC00FFFF00
FC00FC0000
FC00FC0000
7E00FC0000
7F00FC0000
7F80FC0000
3FE0FC0000
1FFFFFFF80
0FFFFFFF80
03FFFFFF80
007FFFFF80
ENDCHAR
STARTCHAR oe
ENCODING 339
SWIDTH 1094 0
DWIDTH 35 0
BBX 32 18 1 0
BITMAP
03F81FC0
0FFE7FF0
3FFFFFF8
3FFFFFFC
7F1FF8FE
7E0FF07E
FC07E03F
FC07E03F
FC07FFFF
FC07FFFF
FC07FFFF
FC07E000
7E0FF002
7F1FF81E
3FFFFFFE
3FFFFFFE
0FFC3FFC
03F81FE0
ENDCHAR
STARTCHAR Racute
ENCODING 340
SWIDTH 770 0
DWIDTH 25 0
BBX 21 30 3 0
BITMAP
007800
00F000
01E000
03C000
000000
000000
000000
FFF800
FFFF00
FFFF80
FFFF80
FC1FC0
FC0FC0
FC0FC0
FC0FC0
FC0FC0
FC0FC0
FC1F80
FFFF00
FFFE00
FFFE00
FFFF00
FC3F80
FC1F80
FC1FC0
FC0FE0
FC0FE0
FC07F0
FC07F0
FC03F8
ENDCHAR
STARTCHAR racute
ENCODING 341
SWIDTH 493 0
DWIDTH 16 0
BBX 13 26 3 0
BITMAP
0078
00F8
00F0
01E0
03C0
0780
0000
0000
FC78
FDF8
FFF8
FFF8
FF08
FE00
FE00
FC00
FC00
FC00
FC00
FC00
FC00
FC00
FC00
FC00
FC00
FC00
ENDCHAR
STARTCHAR uni0156
ENCODING 342
SWIDTH 770 0
DWIDTH 25 0
BBX 21 30 3 -7
BITMAP
FFF800
FFFF00
FFFF80
FFFF80
FC1FC0
FC0FC0
FC0FC0
FC0FC0
FC0FC0
FC0FC0
FC1F80
FFFF00
FFFE00
FFFE00
FFFF00
FC3F80
FC1F80
FC1FC0
FC0FE0
FC0FE0
FC07F0
FC07F0
FC03F8
000000
000000
007800
007800
00F000
00E000
00E000
ENDCHAR
STARTCHAR uni0157
ENCODING 343
SWIDTH 493 0
DWIDTH 16 0
BBX 13 25 3 -7
BITMAP
FC78
FDF8
FFF8
FFF8
FF08
FE00
FE00
FC00
FC00
FC00
FC00
FC00
FC00
FC00
FC00
FC00
FC00
FC00
0000
0000
7800
7800
F000
E000
E000
ENDCHAR
STARTCHAR Rcaron
ENCODING 344
SWIDTH 770 0
DWIDTH 25 0
BBX 21 30 3 0
BITMAP
1C1C00
1E7800
0FF000
07E000
000000
000000
000000
FFF800
FFFF00
FFFF80
FFFF80
FC1FC0
FC0FC0
FC0FC0
FC0FC0
FC0FC0
FC0FC0
FC1F80
FFFF00
FFFE00
FFFE00
FFFF00
FC3F80
FC1F80
FC1FC0
FC0FE0
FC0FE0
FC07F0
FC07F0
FC03F8
ENDCHAR
STARTCHAR rcaron
ENCODING 345
SWIDTH 493 0
DWIDTH 16 0
BBX 13 26 3 0
BITMAP
7070
70E0
39E0
1FC0
1F80
0F80
0000
0000
FC78
FDF8
FFF8
FFF8
FF08
FE00
FE00
FC00
FC00
FC00
FC00
FC00
FC00
FC00
FC00
FC00
FC00
FC00
ENDCHAR
STARTCHAR Sacute
ENCODING 346
SWIDTH 720 0
DWIDTH 23 0
BBX 18 30 2 0
BITMAP
003C00
007800
00F000
01E000
000000
000000
000000
07F800
1FFF00
7FFF00
7FFF00
FE0700
FC0100
FC0000
FC0000
FE0000
FFE000
7FFC00
3FFF00
1FFF80
03FFC0
003FC0
000FC0
000FC0
800FC0
F01FC0
FFFF80
FFFF80
FFFE00
0FF800
ENDCHAR
STARTCHAR sacute
ENCODING 347
SWIDTH 595 0
DWIDTH 19 0
BBX 16 26 2 0
BITMAP
003C
007C
0078
00F0
01E0
03C0
0000
0000
0FE0
3FFC
7FFE
FFFE
F81E
F802
FF00
FFF8
7FFE
1FFE
01FF
001F
801F
F03F
FFFF
FFFE
7FFC
0FF0
ENDCHAR
STARTCHAR Scircumflex
ENCODING 348
SWIDTH 720 0
DWIDTH 23 0
BBX 18 30 2 0
BITMAP
03F000
07F800
0F3C00
1E0E00
000000
000000
000000
07F800
1FFF00
7FFF00
7FFF00
FE0700
FC0100
FC0000
FC0000
FE0000
FFE000
7FFC00
3FFF00
1FFF80
03FFC0
003FC0
000FC0
000FC0
800FC0
F01FC0
FFFF80
FFFF80
FFFE00
0FF800
ENDCHAR
STARTCHAR scircumflex
ENCODING 349
SWIDTH 595 0
DWIDTH 19 0
BBX 16 26 2 0
BITMAP
07C0
0FC0
0FE0
1CF0
3C70
3838
0000
0000
0FE0
3FFC
7FFE
FFFE
F81E
F802
FF00
FFF8
7FFE
1FFE
01FF
001F
801F
F03F
FFFF
FFFE
7FFC
0FF0
ENDCHAR
STARTCHAR Scedilla
ENCODING 350
SWIDTH 720 0
DWIDTH 23 0
BBX 18 29 2 -6
BITMAP
07F800
1FFF00
7FFF00
7FFF00
FE0700
FC0100
FC0000
FC0000
FE0000
FFE000
7FFC00
3FFF00
1FFF80
03FFC0
003FC0
000FC0
000FC0
800FC0
F01FC0
FFFF80
FFFF80
FFFE00
0FF800
006000
007000
007000
007000
07F000
07E000
ENDCHAR
STARTCHAR scedilla
ENCODING 351
SWIDTH 595 0
DWIDTH 19 0
BBX 16 24 2 -6
BITMAP
0FE0
3FFC
7FFE
FFFE
F81E
F802
FF00
FFF8
7FFE
1FFE
01FF
001F
801F
F03F
FFFF
FFFE
7FFC
0FF0
0180
01C0
00C0
01E0
0FC0
0F80
ENDCHAR
STARTCHAR Scaron
ENCODING 352
SWIDTH 720 0
DWIDTH 23 0
BBX 18 30 2 0
BITMAP
0E0E00
0F3C00
07F800
03F000
000000
000000
000000
07F800
1FFF00
7FFF00
7FFF00
FE0700
FC0100
FC0000
FC0000
FE0000
FFE000
7FFC00
3FFF00
1FFF80
03FFC0
003FC0
000FC0
000FC0
800FC0
F01FC0
FFFF80
FFFF80
FFFE00
0FF800
ENDCHAR
STARTCHAR scaron
ENCODING 353
SWIDTH 595 0
DWIDTH 19 0
BBX 16 26 2 0
BITMAP
3838
3C70
1CF0
0EE0
0FC0
07C0
0000
0000
0FE0
3FFC
7FFE
FFFE
F81E
F802
FF00
FFF8
7FFE
1FFE
01FF
001F
801F
F03F
FFFF
FFFE
7FFC
0FF0
ENDCHAR
STARTCHAR uni0162
ENCODING 354
SWIDTH 682 0
DWIDTH 22 0
BBX 22 29 0 -6
BITMAP
FFFFFC
FFFFFC
FFFFFC
FFFFFC
00FC00
00FC00
00FC00
00FC00
00FC00
00FC00
00FC00
00FC00
00FC00
00FC00
00FC00
00FC00
00FC00
00FC00
00FC00
00FC00
00FC00
00FC00
00FC00
003000
001800
001C00
001C00
01FC00
01F800
ENDCHAR
STARTCHAR uni0163
ENCODING 355
SWIDTH 478 0
DWIDTH 15 0
BBX 15 28 0 -6
BITMAP
1F80
1F80
1F80
1F80
FFFE
FFFE
FFFE
FFFE
1F80
1F80
1F80
1F80
1F80
1F80
1F80
1F80
1F80
1F80
1FFC
0FFC
0FFC
03FC
0180
00C0
00E0
00E0
0FE0
0FC0
ENDCHAR
STARTCHAR Tcaron
ENCODING 356
SWIDTH 682 0
DWIDTH 22 0
BBX 22 30 0 0
BITMAP
070380
03CF00
01FE00
00FC00
000000
000000
000000
FFFFFC
FFFFFC
FFFFFC
FFFFFC
00FC00
00FC00
00FC00
00FC00
00FC00
00FC00
00FC00
00FC00
00FC00
00FC00
00FC00
00FC00
00FC00
00FC00
00FC00
00FC00
00FC00
00FC00
00FC00
ENDCHAR
STARTCHAR tcaron
ENCODING 357
SWIDTH 478 0
DWIDTH 15 0
BBX 17 26 0 0
BITMAP
000F80
000F00
000F00
001E00
1F9E00
1F9C00
1F8000
1F8000
FFFE00
FFFE00
FFFE00
FFFE00
1F8000
1F8000
1F8000
1F8000
1F8000
1F8000
1F8000
1F8000
1F8000
1F8000
1FFC00
0FFC00
0FFC00
03FC00
ENDCHAR
STARTCHAR Tbar
ENCODING 358
SWIDTH 682 0
DWIDTH 22 0
BBX 22 23 0 0
BITMAP
FFFFFC
FFFFFC
FFFFFC
FFFFFC
00FC00
00FC00
00FC00
00FC00
00FC00
00FC00
00FC00
0FFFC0
0FFFC0
0FFFC0
0FFFC0
00FC00
00FC00
00FC00
00FC00
00FC00
00FC00
00FC00
00FC00
ENDCHAR
STARTCHAR tbar
ENCODING 359
SWIDTH 478 0
DWIDTH 16 0
BBX 15 23 0 0
BITMAP
1F80
1F80
1F80
1F80
1F80
FFFE
FFFE
FFFE
FFFE
1F80
1F80
FFFE
FFFE
FFFE
FFFE
1F80
1F80
1F80
1FC0
1FFC
0FFC
0FFC
03FC
ENDCHAR
STARTCHAR Utilde
ENCODING 360
SWIDTH 812 0
DWIDTH 26 0
BBX 20 30 3 0
BITMAP
038300
07E700
0E7E00
0C1C00
000000
000000
000000
FC03F0
FC03F0
FC03F0
FC03F0
FC03F0
FC03F0
FC03F0
FC03F0
FC03F0
FC03F0
FC03F0
FC03F0
FC03F0
FC03F0
FC03F0
FC03F0
FC03F0
FE07E0
7F0FE0
7FFFE0
3FFFC0
1FFF00
03FC00
ENDCHAR
STARTCHAR utilde
ENCODING 361
SWIDTH 711 0
DWIDTH 23 0
BBX 18 26 3 0
BITMAP
078600
0FCE00
0CFC00
0C3800
000000
000000
000000
000000
FC0FC0
FC0FC0
FC0FC0
FC0FC0
FC0FC0
FC0FC0
FC0FC0
FC0FC0
FC0FC0
FC0FC0
FC0FC0
FC0FC0
FC1FC0
FE3FC0
7FFFC0
7FFFC0
3FEFC0
1F8FC0
ENDCHAR
STARTCHAR Umacron
ENCODING 362
SWIDTH 812 0
DWIDTH 26 0
BBX 20 29 3 0
BITMAP
07FE00
07FE00
07FE00
000000
000000
000000
FC03F0
FC03F0
FC03F0
FC03F0
FC03F0
FC03F0
FC03F0
FC03F0
FC03F0
FC03F0
FC03F0
FC03F0
FC03F0
FC03F0
FC03F0
FC03F0
FC03F0
FE07E0
7F0FE0
7FFFE0
3FFFC0
1FFF00
03FC00
ENDCHAR
STARTCHAR umacron
ENCODING 363
SWIDTH 711 0
DWIDTH 23 0
BBX 18 24 3 0
BITMAP
0FFC00
0FFC00
0FFC00
000000
000000
000000
FC0FC0
FC0FC0
FC0FC0
FC0FC0
FC0FC0
FC0FC0
FC0FC0
FC0FC0
FC0FC0
FC0FC0
FC0FC0
FC0FC0
FC1FC0
FE3FC0
7FFFC0
7FFFC0
3FEFC0
1F8FC0
ENDCHAR
STARTCHAR Ubreve
ENCODING 364
SWIDTH 812 0
DWIDTH 26 0
BBX 20 30 3 0
BITMAP
060600
070E00
03FC00
01F800
000000
000000
000000
FC03F0
FC03F0
FC03F0
FC03F0
FC03F0
FC03F0
FC03F0
FC03F0
FC03F0
FC03F0
FC03F0
FC03F0
FC03F0
FC03F0
FC03F0
FC03F0
FC03F0
FE07E0
7F0FE0
7FFFE0
3FFFC0
1FFF00
03FC00
ENDCHAR
STARTCHAR ubreve
ENCODING 365
SWIDTH 711 0
DWIDTH 23 0
BBX 18 25 3 0
BITMAP
0C0600
0C0E00
0E1C00
07F800
03F000
000000
000000
FC0FC0
FC0FC0
FC0FC0
FC0FC0
FC0FC0
FC0FC0
FC0FC0
FC0FC0
FC0FC0
FC0FC0
FC0FC0
FC0FC0
FC1FC0
FE3FC0
7FFFC0
7FFFC0
3FEFC0
1F8FC0
ENDCHAR
STARTCHAR Uring
ENCODING 366
SWIDTH 812 0
DWIDTH 26 0
BBX 20 29 3 0
BITMAP
007800
01FC00
018E00
030600
030600
030600
FD8FF0
FDFFF0
FC7BF0
FC03F0
FC03F0
FC03F0
FC03F0
FC03F0
FC03F0
FC03F0
FC03F0
FC03F0
FC03F0
FC03F0
FC03F0
FC03F0
FC03F0
FE07E0
7F0FE0
7FFFE0
3FFFC0
1FFF00
03FC00
ENDCHAR
STARTCHAR uring
ENCODING 367
SWIDTH 711 0
DWIDTH 23 0
BBX 18 28 3 0
BITMAP
01E000
03F000
063800
061800
0C1800
061800
063800
03F000
01E000
000000
FC0FC0
FC0FC0
FC0FC0
FC0FC0
FC0FC0
FC0FC0
FC0FC0
FC0FC0
FC0FC0
FC0FC0
FC0FC0
FC0FC0
FC1FC0
FE3FC0
7FFFC0
7FFFC0
3FEFC0
1F8FC0
ENDCHAR
STARTCHAR Uhungarumlaut
ENCODING 368
SWIDTH 812 0
DWIDTH 26 0
BBX 20 30 3 0
BITMAP
03EF80
03CF00
079E00
0E3800
000000
000000
000000
FC03F0
FC03F0
FC03F0
FC03F0
FC03F0
FC03F0
FC03F0
FC03F0
FC03F0
FC03F0
FC03F0
FC03F0
FC03F0
FC03F0
FC03F0
FC03F0
FC03F0
FE07E0
7F0FE0
7FFFE0
3FFFC0
1FFF00
03FC00
ENDCHAR
STARTCHAR uhungarumlaut
ENCODING 369
SWIDTH 711 0
DWIDTH 23 0
BBX 18 26 3 0
BITMAP
038E00
039E00
071C00
073800
0E3800
0C7000
000000
000000
FC0FC0
FC0FC0
FC0FC0
FC0FC0
FC0FC0
FC0FC0
FC0FC0
FC0FC0
FC0FC0
FC0FC0
FC0FC0
FC0FC0
FC1FC0
FE3FC0
7FFFC0
7FFFC0
3FEFC0
1F8FC0
ENDCHAR
STARTCHAR Uogonek
ENCODING 370
SWIDTH 812 0
DWIDTH 26 0
BBX 20 29 3 -6
BITMAP
FC03F0
FC03F0
FC03F0
FC03F0
FC03F0
FC03F0
FC03F0
FC03F0
FC03F0
FC03F0
FC03F0
FC03F0
FC03F0
FC03F0
FC03F0
FC03F0
FC03F0
FE07E0
7F0FE0
7FFFE0
3FFFC0
1FFF00
03FC00
00E000
01C000
01C000
01C000
01FC00
00FC00
ENDCHAR
STARTCHAR uogonek
ENCODING 371
SWIDTH 711 0
DWIDTH 23 0
BBX 20 24 3 -6
BITMAP
FC0FC0
FC0FC0
FC0FC0
FC0FC0
FC0FC0
FC0FC0
FC0FC0
FC0FC0
FC0FC0
FC0FC0
FC0FC0
FC0FC0
FC1FC0
FE3FC0
7FFFC0
7FFFC0
3FEFC0
1F8FC0
000380
000300
000700
000700
0007F0
0003F0
ENDCHAR
STARTCHAR Wcircumflex
ENCODING 372
SWIDTH 1103 0
DWIDTH 35 0
BBX 33 30 1 0
BITMAP
0003E00000
0007F00000
000E380000
001C1C0000
0000000000
0000000000
0000000000
FC03F01F80
FE07F03F80
7E07F03F00
7E07F03F00
7E07F03F00
7E0F783F00
3F0F787E00
3F0F787E00
3F0F787E00
3F1F3C7E00
3F9E3CFE00
1F9E3CFC00
1F9E3CFC00
1FBE3EFC00
1FFC1FFC00
0FFC1FF800
0FFC1FF800
0FFC1FF800
0FF80FF800
07F80FF000
07F80FF000
07F80FF000
07F007F000
ENDCHAR
STARTCHAR wcircumflex
ENCODING 373
SWIDTH 923 0
DWIDTH 30 0
BBX 27 26 1 0
BITMAP
001F0000
001F0000
003B8000
007BC000
0071C000
00E0E000
00000000
00000000
FC1F07E0
FE1F0FE0
7E1F0FC0
7E3F8FC0
7E3F8FC0
7F3F9FC0
3F3F9F80
3F7FDF80
3F7BDF80
3FFBFF80
1FFBFF00
1FFBFF00
1FF1FF00
1FF1FF00
0FF1FE00
0FF1FE00
0FE0FE00
0FE0FE00
ENDCHAR
STARTCHAR Ycircumflex
ENCODING 374
SWIDTH 724 0
DWIDTH 23 0
BBX 24 30 0 0
BITMAP
007E00
00FF00
01E780
0381C0
000000
000000
000000
FF00FF
7F00FE
3F81FC
3FC3FC
1FC3F8
0FE7F0
0FFFF0
07FFE0
03FFC0
03FFC0
01FF80
00FF00
00FF00
007E00
007E00
007E00
007E00
007E00
007E00
007E00
007E00
007E00
007E00
ENDCHAR
STARTCHAR ycircumflex
ENCODING 375
SWIDTH 651 0
DWIDTH 21 0
BBX 20 33 0 -7
BITMAP
00F800
01F800
01FC00
039E00
078E00
070700
000000
000000
FE07F0
7E07E0
7F07E0
7F0FE0
3F0FC0
3F9FC0
1F9FC0
1FDF80
0FFF80
0FFF00
0FFF00
07FF00
07FE00
03FE00
03FC00
01FC00
01FC00
01F800
01F800
03F800
07F000
1FF000
1FE000
1FC000
1F8000
ENDCHAR
STARTCHAR Ydieresis
ENCODING 376
SWIDTH 724 0
DWIDTH 23 0
BBX 24 30 0 0
BITMAP
03C3C0
03C3C0
03C3C0
03C3C0
000000
000000
000000
FF00FF
7F00FE
3F81FC
3FC3FC
1FC3F8
0FE7F0
0FFFF0
07FFE0
03FFC0
03FFC0
01FF80
00FF00
00FF00
007E00
007E00
007E00
007E00
007E00
007E00
007E00
007E00
007E00
007E00
ENDCHAR
STARTCHAR Zacute
ENCODING 377
SWIDTH 725 0
DWIDTH 23 0
BBX 20 30 1 0
BITMAP
001E00
003C00
007800
00F000
000000
000000
000000
FFFFF0
FFFFF0
FFFFF0
FFFFF0
000FE0
001FE0
003FC0
007F80
00FF00
00FE00
01FE00
03FC00
07F800
07F000
0FE000
1FE000
3FC000
7F8000
7F0000
FFFFF0
FFFFF0
FFFFF0
FFFFF0
ENDCHAR
STARTCHAR zacute
ENCODING 378
SWIDTH 582 0
DWIDTH 19 0
BBX 16 26 1 0
BITMAP
001E
003E
003C
0078
00F0
01E0
0000
0000
FFFF
FFFF
FFFF
FFFF
00FF
01FE
03FC
07F8
07F8
0FF0
1FE0
3FC0
7F80
FF80
FFFF
FFFF
FFFF
FFFF
ENDCHAR
STARTCHAR Zdotaccent
ENCODING 379
SWIDTH 725 0
DWIDTH 23 0
BBX 20 30 1 0
BITMAP
00F000
00F000
00F000
00F000
000000
000000
000000
FFFFF0
FFFFF0
FFFFF0
FFFFF0
000FE0
001FE0
003FC0
007F80
00FF00
00FE00
01FE00
03FC00
07F800
07F000
0FE000
1FE000
3FC000
7F8000
7F0000
FFFFF0
FFFFF0
FFFFF0
FFFFF0
ENDCHAR
STARTCHAR zdotaccent
ENCODING 380
SWIDTH 582 0
DWIDTH 19 0
BBX 16 26 1 0
BITMAP
07E0
07E0
07E0
07E0
07E0
07E0
0000
0000
FFFF
FFFF
FFFF
FFFF
00FF
01FE
03FC
07F8
07F8
0FF0
1FE0
3FC0
7F80
FF80
FFFF
FFFF
FFFF
FFFF
ENDCHAR
STARTCHAR Zcaron
ENCODING 381
SWIDTH 725 0
DWIDTH 23 0
BBX 20 30 1 0
BITMAP
070700
039E00
03FC00
01F800
000000
000000
000000
FFFFF0
FFFFF0
FFFFF0
FFFFF0
000FE0
001FE0
003FC0
007F80
00FF00
00FE00
01FE00
03FC00
07F800
07F000
0FE000
1FE000
3FC000
7F8000
7F0000
FFFFF0
FFFFF0
FFFFF0
FFFFF0
ENDCHAR
STARTCHAR zcaron
ENCODING 382
SWIDTH 582 0
DWIDTH 19 0
BBX 16 26 1 0
BITMAP
1C1C
1C38
0E78
07F0
07E0
03E0
0000
0000
FFFF
FFFF
FFFF
FFFF
00FF
01FE
03FC
07F8
07F8
0FF0
1FE0
3FC0
7F80
FF80
FFFF
FFFF
FFFF
FFFF
ENDCHAR
STARTCHAR longs
ENCODING 383
SWIDTH 435 0
DWIDTH 14 0
BBX 14 24 0 0
BITMAP
03FC
0FFC
0FFC
1FFC
1F80
1F80
FF80
FF80
FF80
FF80
1F80
1F80
1F80
1F80
1F80
1F80
1F80
1F80
1F80
1F80
1F80
1F80
1F80
1F80
ENDCHAR
STARTCHAR uni0180
ENCODING 384
SWIDTH 715 0
DWIDTH 23 0
BBX 21 24 1 0
BITMAP
3F0000
3F0000
FFF800
FFF800
FFF800
3F0000
3F1F00
3F7FC0
3FFFE0
3FFFF0
3FC7F0
3F83F8
3F01F8
3F01F8
3F01F8
3F01F8
3F01F8
3F01F8
3F83F8
3FC7F0
3FFFF0
3FFFE0
3F7FC0
3F1F00
ENDCHAR
STARTCHAR uni0181
ENCODING 385
SWIDTH 811 0
DWIDTH 26 0
BBX 26 23 -4 0
BITMAP
1FFFF800
7FFFFE00
7FFFFF00
FFFFFF80
F1F83F80
F1F81F80
01F81F80
01F81F80
01F83F00
01FFFF00
01FFFC00
01FFFF00
01FFFF80
01F81F80
01F80FC0
01F80FC0
01F80FC0
01F80FC0
01F81FC0
01FFFF80
01FFFF80
01FFFF00
01FFF800
ENDCHAR
STARTCHAR uni0182
ENCODING 386
SWIDTH 762 0
DWIDTH 24 0
BBX 19 23 3 0
BITMAP
FFFF80
FFFF80
FFFF80
FFFF80
FC0000
FC0000
FC0000
FC0000
FC0000
FFFC00
FFFF00
FFFFC0
FFFFC0
FC0FE0
FC07E0
FC07E0
FC07E0
FC07E0
FC0FE0
FFFFC0
FFFFC0
FFFF00
FFFC00
ENDCHAR
STARTCHAR uni0183
ENCODING 387
SWIDTH 715 0
DWIDTH 23 0
BBX 19 24 3 0
BITMAP
FFFF00
FFFF00
FFFF00
FFFF00
FC0000
FC0000
FC7C00
FDFF00
FFFF80
FFFFC0
FF1FC0
FE0FE0
FC07E0
FC07E0
FC07E0
FC07E0
FC07E0
FC07E0
FE0FE0
FF1FC0
FFFFC0
FFFF80
FDFF00
FC7C00
ENDCHAR
STARTCHAR uni0184
ENCODING 388
SWIDTH 762 0
DWIDTH 24 0
BBX 21 23 2 0
BITMAP
010000
030000
0F0000
1F0000
7F0000
FF0000
FF0000
7F0000
3F0000
3FFFC0
3FFFE0
3FFFF0
3FFFF8
3F03F8
3F01F8
3F01F8
3F01F8
3F01F8
3F03F8
3FFFF8
3FFFF0
3FFFE0
3FFF00
ENDCHAR
STARTCHAR uni0185
ENCODING 389
SWIDTH 715 0
DWIDTH 23 0
BBX 21 24 1 0
BITMAP
010000
030000
070000
0F0000
3F0000
7F0000
FF1F00
7F3FC0
7F7FE0
3FFFF0
3FC7F0
3F81F8
3F81F8
3F01F8
3F01F8
3F01F8
3F01F8
3F01F8
3F81F8
3F83F8
3FFFF0
3FFFE0
3F7FE0
3F3F80
ENDCHAR
STARTCHAR uni0186
ENCODING 390
SWIDTH 733 0
DWIDTH 25 0
BBX 20 23 2 0
BITMAP
0FF000
3FFC00
7FFF00
FFFF80
F03FC0
E00FE0
8007E0
0007E0
0003F0
0003F0
0003F0
0003F0
0003F0
0003F0
0003F0
0007E0
8007E0
E00FE0
F03FC0
FFFF80
7FFF00
3FFC00
0FE000
ENDCHAR
STARTCHAR uni0187
ENCODING 391
SWIDTH 733 0
DWIDTH 23 0
BBX 25 29 2 0
BITMAP
00001F80
00007F80
0000FF80
0001FF80
0003FC00
0003F800
00FFF000
03FFF000
0FFFF000
1FFFF000
3FC07000
7F001000
7E000000
7E000000
FC000000
FC000000
FC000000
FC000000
FC000000
FC000000
FC000000
7E000000
7E000000
7F001000
3FC07000
1FFFF000
0FFFF000
03FFF000
00FF8000
ENDCHAR
STARTCHAR uni0188
ENCODING 392
SWIDTH 592 0
DWIDTH 19 0
BBX 19 23 1 0
BITMAP
0007E0
001FE0
003FE0
007FE0
007F00
07FE00
1FFE00
3FFE00
7FFE00
7F0600
FE0200
FC0000
FC0000
FC0000
FC0000
FC0000
FC0000
7E0200
7F0600
3FFE00
3FFE00
0FFE00
03FC00
ENDCHAR
STARTCHAR uni0189
ENCODING 393
SWIDTH 837 0
DWIDTH 27 0
BBX 25 23 0 0
BITMAP
1FFF0000
1FFFE000
1FFFF800
1FFFFC00
1F81FE00
1F807F00
1F803F00
1F803F00
1F801F80
1F801F80
FFF81F80
FFF81F80
FFF81F80
FFF81F80
1F801F80
1F803F00
1F803F00
1F807F00
1F81FE00
1FFFFC00
1FFFF800
1FFFE000
1FFF0000
ENDCHAR
STARTCHAR uni018A
ENCODING 394
SWIDTH 878 0
DWIDTH 28 0
BBX 29 23 -4 0
BITMAP
1FFFF000
7FFFFE00
7FFFFF80
FFFFFFC0
F1F81FE0
F1F807F0
01F803F0
01F803F0
01F801F8
01F801F8
01F801F8
01F801F8
01F801F8
01F801F8
01F801F8
01F803F0
01F803F0
01F807F0
01F81FE0
01FFFFC0
01FFFF80
01FFFE00
01FFF000
ENDCHAR
STARTCHAR uni018B
ENCODING 395
SWIDTH 756 0
DWIDTH 24 0
BBX 19 23 2 0
BITMAP
7FFFE0
7FFFE0
7FFFE0
7FFFE0
0007E0
0007E0
0007E0
0007E0
0007E0
07FFE0
1FFFE0
7FFFE0
7FFFE0
FE07E0
FC07E0
FC07E0
FC07E0
FC07E0
FE07E0
7FFFE0
7FFFE0
1FFFE0
07FFE0
ENDCHAR
STARTCHAR uni018C
ENCODING 396
SWIDTH 715 0
DWIDTH 23 0
BBX 19 24 1 0
BITMAP
1FFFE0
1FFFE0
1FFFE0
1FFFE0
0007E0
0007E0
07C7E0
1FF7E0
3FFFE0
7FFFE0
7F1FE0
FE0FE0
FC07E0
FC07E0
FC07E0
FC07E0
FC07E0
FC07E0
FE0FE0
7F1FE0
7FFFE0
3FFFE0
1FF7E0
07C7E0
ENDCHAR
STARTCHAR uni018D
ENCODING 397
SWIDTH 687 0
DWIDTH 22 0
BBX 19 25 1 -7
BITMAP
03F800
0FFE00
1FFF00
3FFF80
7F1FC0
7E0FC0
FC07E0
FC07E0
FC07E0
FC07E0
FC07E0
FC07E0
FE0FC0
7F0FC0
7FFF80
3FFF00
1FFE00
03FF00
003F80
001F80
101F80
1FFF80
1FFF00
1FFE00
07F800
ENDCHAR
STARTCHAR uni018E
ENCODING 398
SWIDTH 683 0
DWIDTH 22 0
BBX 17 23 3 0
BITMAP
FFFF80
FFFF80
FFFF80
FFFF80
001F80
001F80
001F80
001F80
001F80
001F80
7FFF80
7FFF80
7FFF80
7FFF80
001F80
001F80
001F80
001F80
001F80
FFFF80
FFFF80
FFFF80
FFFF80
ENDCHAR
STARTCHAR uni018F
ENCODING 399
SWIDTH 849 0
DWIDTH 27 0
BBX 24 23 2 0
BITMAP
01FF00
1FFFC0
1FFFF0
1FFFF8
1E03FC
1000FE
00007E
00007E
00003F
00003F
FFFFFF
FFFFFF
FFFFFF
FFFFFF
FC003F
7C007E
7E007E
7F00FE
3F83FC
1FFFF8
0FFFF0
07FFE0
00FF00
ENDCHAR
STARTCHAR uni0190
ENCODING 400
SWIDTH 695 0
DWIDTH 24 0
BBX 18 23 3 0
BITMAP
03F800
1FFE00
3FFF00
7FFF80
7F0780
7E0180
7E0080
7E0000
3F0000
1FFC00
07FC00
1FFC00
7FFC00
7F0000
FC0000
FC0000
FC0040
FE01C0
FF07C0
7FFFC0
3FFF80
1FFF00
03FC00
ENDCHAR
STARTCHAR uni0191
ENCODING 401
SWIDTH 683 0
DWIDTH 22 0
BBX 21 29 -2 -6
BITMAP
07FFF8
07FFF8
07FFF8
07FFF8
07E000
07E000
07E000
07E000
07E000
07FFF0
07FFF0
07FFF0
07FFF0
07E000
07E000
07E000
07E000
07E000
07E000
07E000
07E000
07E000
07E000
0FE000
1FC000
FFC000
FF8000
FF0000
FC0000
ENDCHAR
STARTCHAR florin
ENCODING 402
SWIDTH 435 0
DWIDTH 14 0
BBX 16 31 -2 -7
BITMAP
00FF
03FF
03FF
07FF
07E0
07E0
3FFF
3FFF
3FFF
3FFF
07E0
07E0
07E0
07E0
07E0
07E0
07E0
07E0
07E0
07E0
07E0
07E0
07E0
07E0
07E0
07E0
07E0
FFE0
FFC0
FF80
FE00
ENDCHAR
STARTCHAR uni0193
ENCODING 403
SWIDTH 820 0
DWIDTH 26 0
BBX 26 30 2 0
BITMAP
000007C0
00001FC0
00007FC0
0000FFC0
0000FE00
0001FC00
0001F800
00FFF800
03FFF800
0FFFF800
1FFFF800
3FC07800
7F000800
7E000000
7E000000
FC000000
FC000000
FC0FFC00
FC0FFC00
FC0FFC00
FC0FFC00
FC00FC00
7E00FC00
7E00FC00
7F00FC00
3FC0FC00
1FFFFC00
0FFFFC00
03FFF800
00FF8000
ENDCHAR
STARTCHAR uni0194
ENCODING 404
SWIDTH 792 0
DWIDTH 24 0
BBX 24 29 0 -6
BITMAP
FE007F
7F00FE
3F81FC
3F81FC
1FC3F8
1FE7F8
0FE7F0
07FFE0
07FFE0
03FFC0
01FF80
01FF80
00FF00
00FF00
00FF00
00FF00
00FF00
00FF00
01FF80
01FF80
03FFC0
03E7C0
07E7E0
07E7E0
07E7E0
07FFE0
07FFE0
03FFC0
00FF00
ENDCHAR
STARTCHAR uni0195
ENCODING 405
SWIDTH 1044 0
DWIDTH 33 0
BBX 29 24 3 0
BITMAP
F8000000
F8000000
F8000000
F8000000
F8000000
F8000000
F87C0000
F9FE0780
FBFF07C0
FFFF87E0
FF3F83F0
FC1F83F0
FC0F81F8
F80F81F8
F80F81F8
F80F81F8
F80F81F8
F80F81F8
F80F81F0
F80FC3F0
F80FFFE0
F807FFE0
F803FFC0
F801FE00
ENDCHAR
STARTCHAR uni0196
ENCODING 406
SWIDTH 435 0
DWIDTH 14 0
BBX 11 23 3 0
BITMAP
FC00
FC00
FC00
FC00
FC00
FC00
FC00
FC00
FC00
FC00
FC00
FC00
FC00
FC00
FC00
FC00
FC00
FE00
7F00
7FE0
3FE0
1FE0
07E0
ENDCHAR
STARTCHAR uni0197
ENCODING 407
SWIDTH 389 0
DWIDTH 12 0
BBX 12 23 0 0
BITMAP
1F80
1F80
1F80
1F80
1F80
1F80
1F80
1F80
1F80
FFF0
FFF0
FFF0
FFF0
1F80
1F80
1F80
1F80
1F80
1F80
1F80
1F80
1F80
1F80
ENDCHAR
STARTCHAR uni0198
ENCODING 408
SWIDTH 774 0
DWIDTH 25 0
BBX 22 24 3 0
BITMAP
0001C0
FC03F0
FC07F8
FC0FFC
FC1FFC
FC3FFC
FC7F3C
FCFE3C
FDFC3C
FFF800
FFF000
FFE000
FFE000
FFF000
FFF800
FDFC00
FCFE00
FC7F00
FC3F80
FC1FC0
FC0FE0
FC07F0
FC03F8
FC01FC
ENDCHAR
STARTCHAR uni0199
ENCODING 409
SWIDTH 665 0
DWIDTH 21 0
BBX 18 24 3 0
BITMAP
1FE000
7FE000
7FE000
FE0000
FC0000
F80000
F80FC0
F81F80
F83F00
F87E00
F8FC00
F9F800
FBF000
FFE000
FFC000
FFE000
FFF000
FBF800
F9FC00
F8FE00
F87F00
F83F00
F81F80
F80FC0
ENDCHAR
STARTCHAR uni019A
ENCODING 410
SWIDTH 360 0
DWIDTH 12 0
BBX 12 24 0 0
BITMAP
1F80
1F80
1F80
1F80
1F80
1F80
1F80
1F80
1F80
1F80
FFF0
FFF0
FFF0
FFF0
1F80
1F80
1F80
1F80
1F80
1F80
1F80
1F80
1F80
1F80
ENDCHAR
STARTCHAR uni019B
ENCODING 411
SWIDTH 591 0
DWIDTH 19 0
BBX 18 24 0 0
BITMAP
0F8E00
0FFE00
0FF800
3FC000
FFE000
E7E000
03E000
03F000
03F000
03F800
03F800
07F800
07FC00
07FC00
0FFC00
0FFE00
0FBE00
1FBF00
1FBF00
3F1F00
3F1F80
3E1F80
7E0F80
7E0FC0
ENDCHAR
STARTCHAR uni019C
ENCODING 412
SWIDTH 1041 0
DWIDTH 33 0
BBX 28 23 3 0
BITMAP
F81F83F0
F81F83F0
F81F83F0
F81F83F0
F81F83F0
F81F83F0
F81F83F0
F81F83F0
F81F83F0
F81F83F0
F81F83F0
F81F83F0
F81F83F0
F81F83F0
F81F83F0
F81F83F0
F81F83F0
F83F83F0
FC7F87F0
FFFFFFF0
FFEFFFF0
7FCFFBF0
3F83F3F0
ENDCHAR
STARTCHAR uni019D
ENCODING 413
SWIDTH 836 0
DWIDTH 27 0
BBX 26 29 -2 -6
BITMAP
07F00FC0
07F80FC0
07F80FC0
07FC0FC0
07FC0FC0
07FE0FC0
07FE0FC0
07FF0FC0
07EF0FC0
07EF8FC0
07E78FC0
07E7CFC0
07E3CFC0
07E3EFC0
07E1EFC0
07E1FFC0
07E0FFC0
07E0FFC0
07E07FC0
07E07FC0
07E03FC0
07E03FC0
07E01FC0
0FE00000
1FC00000
FFC00000
FF800000
FF000000
F8000000
ENDCHAR
STARTCHAR uni019E
ENCODING 414
SWIDTH 711 0
DWIDTH 23 0
BBX 18 25 3 -7
BITMAP
FC7E00
FDFF00
FFFF80
FFFF80
FF1FC0
FE0FC0
FC0FC0
FC0FC0
FC0FC0
FC0FC0
FC0FC0
FC0FC0
FC0FC0
FC0FC0
FC0FC0
FC0FC0
FC0FC0
FC0FC0
000FC0
000FC0
000FC0
000FC0
000FC0
000FC0
000FC0
ENDCHAR
STARTCHAR uni019F
ENCODING 415
SWIDTH 850 0
DWIDTH 27 0
BBX 24 23 2 0
BITMAP
00FF00
07FFE0
0FFFF0
1FFFF8
3FC3FC
7F00FE
7E007E
7E007E
FC003F
FC003F
FFFFFF
FFFFFF
FFFFFF
FFFFFF
FC003F
7C003E
7E007E
7E007E
3F81FC
1FFFF8
0FFFF0
07FFE0
00FF00
ENDCHAR
STARTCHAR Ohorn
ENCODING 416
SWIDTH 873 0
DWIDTH 28 0
BBX 25 25 2 0
BITMAP
00000180
00000180
00FF0180
07FFE180
0FFFFB80
1FFFFF80
3FC1FF00
7F00FE00
7E007E00
7E007F00
FC003F00
FC003F00
FC003F00
FC003F00
FC003F00
FC003F00
FC003F00
7E007F00
7E007E00
7F00FE00
3FC1FC00
1FFFF800
0FFFF000
07FFE000
00FF0000
ENDCHAR
STARTCHAR ohorn
ENCODING 417
SWIDTH 687 0
DWIDTH 22 0
BBX 22 20 1 0
BITMAP
000018
000018
03F81C
0FFF1C
1FFFFC
3FFFF8
7F1FF8
7E0FE0
FC07E0
FC07E0
FC07E0
FC07E0
FC07E0
FC07E0
7E0FE0
7F1FC0
3FFFC0
1FFF80
0FFE00
03F800
ENDCHAR
STARTCHAR uni01A2
ENCODING 418
SWIDTH 1082 0
DWIDTH 35 0
BBX 31 23 2 0
BITMAP
00FFFFC0
07FFFFF0
0FFFFFF8
1FFFFFFC
3F83F9FC
7F01F8FE
7E01F87E
7E01F87E
FC01F87E
FC01F87E
FC01F87E
FC01F87E
FC01F87E
FC01F87E
FC01F87E
7E01F87E
7E01F87E
7F01F87E
3F83F87E
1FFFF87E
0FFFF07E
07FFE07E
00FF007E
ENDCHAR
STARTCHAR uni01A3
ENCODING 419
SWIDTH 912 0
DWIDTH 29 0
BBX 26 25 1 -7
BITMAP
03FFFC00
0FFFFF00
1FFFFF80
3FFFFF80
7E1F9FC0
7E1F8FC0
FC1F8FC0
FC1F8FC0
FC1F8FC0
FC1F8FC0
FC1F8FC0
FC1F8FC0
7E1F8FC0
7E1F8FC0
3FFF8FC0
3FFF8FC0
0FFF0FC0
03F80FC0
00000FC0
00000FC0
00000FC0
00000FC0
00000FC0
00000FC0
00000FC0
ENDCHAR
STARTCHAR uni01A4
ENCODING 420
SWIDTH 781 0
DWIDTH 25 0
BBX 26 23 -4 0
BITMAP
1FFFF800
7FFFFE00
FFFFFF00
FFFFFF80
F1F83F80
F1F81FC0
01F80FC0
01F80FC0
01F80FC0
01F81FC0
01F83F80
01FFFF80
01FFFF00
01FFFE00
01FFF800
01F80000
01F80000
01F80000
01F80000
01F80000
01F80000
01F80000
01F80000
ENDCHAR
STARTCHAR uni01A5
ENCODING 421
SWIDTH 715 0
DWIDTH 23 0
BBX 19 31 3 -7
BITMAP
1FE000
3FE000
7FE000
FFE000
FC0000
FC0000
FC7C00
FDFF00
FFFF80
FFFFC0
FF1FC0
FE0FE0
FC07E0
FC07E0
FC07E0
FC07E0
FC07E0
FC07E0
FE0FE0
FF1FC0
FFFFC0
FFFF80
FDFF00
FC7C00
FC0000
FC0000
FC0000
FC0000
FC0000
FC0000
FC0000
ENDCHAR
STARTCHAR uni01A6
ENCODING 422
SWIDTH 770 0
DWIDTH 25 0
BBX 21 28 3 -5
BITMAP
FC0000
FC0000
FC0000
FC0000
FFFC00
FFFF00
FFFF80
FFFFC0
FC1FC0
FC0FC0
FC0FC0
FC0FC0
FC0FC0
FC1F80
FFFF00
FFFE00
FFFE00
FFFF00
FC7F80
FC1F80
FC1FC0
FC0FC0
FC0FE0
0007E0
0007F0
0003F0
0003F8
0001F8
ENDCHAR
STARTCHAR uni01A7
ENCODING 423
SWIDTH 720 0
DWIDTH 23 0
BBX 18 24 1 0
BITMAP
03E000
7FFE00
7FFF00
7FFF80
7FFFC0
700FC0
0007C0
0007C0
000FC0
007FC0
07FFC0
1FFF80
7FFF00
7FFC00
FFE000
FE0000
FC0000
FC0000
FC00C0
FE03C0
7FFFC0
7FFFC0
3FFFC0
0FFF00
ENDCHAR
STARTCHAR uni01A8
ENCODING 424
SWIDTH 595 0
DWIDTH 19 0
BBX 16 18 0 0
BITMAP
0FF0
3FFE
3FFF
3FFF
301F
001F
001F
03FF
1FFF
7FFE
7FF8
7E00
FC00
7C01
7F1F
7FFF
3FFF
1FFF
ENDCHAR
STARTCHAR uni01A9
ENCODING 425
SWIDTH 683 0
DWIDTH 22 0
BBX 17 23 3 0
BITMAP
FFFF80
FFFF80
FFFF80
FFFF80
FF8000
7FC000
3FC000
1FE000
0FF000
07F000
03F800
07F000
07F000
0FE000
1FC000
3FC000
3F8000
7F0000
FF0000
FFFF80
FFFF80
FFFF80
FFFF80
ENDCHAR
STARTCHAR uni01AA
ENCODING 426
SWIDTH 551 0
DWIDTH 18 0
BBX 19 31 -1 -7
BITMAP
3FE000
7FF000
FFF800
F3F800
E0FC00
F8FC00
FFFF00
7FFF00
3FFF00
00FC00
00FC00
00FC00
00FC00
00FC00
00FC00
00FC00
00FC00
00FC00
00FC00
00FC00
00FC00
00FC00
00FC00
00FC00
00FC00
00FC00
00FC00
00FFE0
007FE0
003FE0
001FE0
ENDCHAR
STARTCHAR uni01AB
ENCODING 427
SWIDTH 478 0
DWIDTH 15 0
BBX 15 29 0 -7
BITMAP
1F80
1F80
1F80
1F80
FFFE
FFFE
FFFE
FFFE
FFFE
1F80
1F80
1F80
1F80
1F80
1F80
1F80
1F80
1F80
1FFC
0FFC
0FFC
03FC
00FC
00FC
00FC
07F8
07F8
07F0
07C0
ENDCHAR
STARTCHAR uni01AC
ENCODING 428
SWIDTH 706 0
DWIDTH 23 0
BBX 22 23 1 0
BITMAP
1FFFFC
7FFFFC
7FFFFC
FFFFFC
F8FC00
F0FC00
F0FC00
F0FC00
00FC00
00FC00
00FC00
00FC00
00FC00
00FC00
00FC00
00FC00
00FC00
00FC00
00FC00
00FC00
00FC00
00FC00
00FC00
ENDCHAR
STARTCHAR uni01AD
ENCODING 429
SWIDTH 478 0
DWIDTH 15 0
BBX 15 24 0 0
BITMAP
03FC
0FFC
0FFC
1FFC
1F80
1F80
FFFE
FFFE
FFFE
FFFE
1F80
1F80
1F80
1F80
1F80
1F80
1F80
1F80
1F80
1F80
1FFC
0FFC
0FFC
03FC
ENDCHAR
STARTCHAR uni01AE
ENCODING 430
SWIDTH 682 0
DWIDTH 22 0
BBX 22 29 0 -6
BITMAP
FFFFFC
FFFFFC
FFFFFC
FFFFFC
00FC00
00FC00
00FC00
00FC00
00FC00
00FC00
00FC00
00FC00
00FC00
00FC00
00FC00
00FC00
00FC00
00FC00
00FC00
00FC00
00FC00
00FC00
00FC00
00FE00
007F00
007FE0
003FE0
001FE0
0003E0
ENDCHAR
STARTCHAR Uhorn
ENCODING 431
SWIDTH 835 0
DWIDTH 27 0
BBX 24 25 3 0
BITMAP
000006
000006
FC03F7
FC03F7
FC03FF
FC03FE
FC03FE
FC03F0
FC03F0
FC03F0
FC03F0
FC03F0
FC03F0
FC03F0
FC03F0
FC03F0
FC03F0
FC03F0
FC03F0
FE07E0
7F0FE0
7FFFE0
3FFFC0
1FFF80
03FC00
ENDCHAR
STARTCHAR uhorn
ENCODING 432
SWIDTH 711 0
DWIDTH 23 0
BBX 20 20 3 0
BITMAP
000030
000030
FC0FF0
FC0FF0
FC0FF0
FC0FF0
FC0FE0
FC0FC0
FC0FC0
FC0FC0
FC0FC0
FC0FC0
FC0FC0
FC1FC0
FC1FC0
FE3FC0
FFFFC0
7FEFC0
3FCFC0
1F8FC0
ENDCHAR
STARTCHAR uni01B1
ENCODING 433
SWIDTH 850 0
DWIDTH 27 0
BBX 26 23 1 0
BITMAP
FFE1FFC0
FFE1FFC0
FFE1FFC0
FFE1FFC0
0FE1FC00
1F807E00
3F807F00
3F003F00
7F003F80
7E001F80
7E001F80
7E001F80
7E001F80
7E001F80
7E001F80
3F003F00
3F003F00
3F807F00
1FE1FE00
0FFFFC00
07FFF800
03FFF000
007F8000
ENDCHAR
STARTCHAR uni01B2
ENCODING 434
SWIDTH 813 0
DWIDTH 26 0
BBX 22 23 3 0
BITMAP
FC0000
FC0000
FC1F80
FC1FC0
FC07E0
FC03E0
FC01F0
FC00F8
FC00F8
FC0078
FC007C
FC007C
FC007C
FC007C
FC00FC
FC00F8
FC01F8
FE03F0
7FFFF0
7FFFE0
3FFFC0
1FFF00
07FC00
ENDCHAR
STARTCHAR uni01B3
ENCODING 435
SWIDTH 797 0
DWIDTH 26 0
BBX 25 24 0 0
BITMAP
00001C00
FE007F00
7E00FF80
3F01FF80
3F83FF80
1F83FF80
0FC7F780
0FE7E380
07EFC380
07FFC000
03FF8000
01FF0000
01FF0000
00FE0000
007E0000
007E0000
007E0000
007E0000
007E0000
007E0000
007E0000
007E0000
007E0000
007E0000
ENDCHAR
STARTCHAR uni01B4
ENCODING 436
SWIDTH 778 0
DWIDTH 25 0
BBX 25 25 0 -7
BITMAP
FC007800
7C01FE00
7E03FF00
3E03FF00
3F07FF80
1F07E780
1F07C780
1F8FC780
0F8F8000
0FCF8000
07DF0000
07DF0000
03FF0000
03FE0000
03FE0000
01FE0000
01FC0000
00FC0000
00F80000
00F80000
01F80000
1FF00000
1FE00000
1FE00000
1F800000
ENDCHAR
STARTCHAR uni01B5
ENCODING 437
SWIDTH 725 0
DWIDTH 23 0
BBX 21 23 1 0
BITMAP
7FFFF0
7FFFF0
7FFFF0
7FFFF0
0007E0
000FE0
001FC0
003F80
007F00
1FFFE0
1FFFE0
1FFFE0
1FFFE0
07F000
0FE000
0FC000
1FC000
3F8000
7FFFF8
FFFFF8
FFFFF8
FFFFF8
FFFFF8
ENDCHAR
STARTCHAR uni01B6
ENCODING 438
SWIDTH 582 0
DWIDTH 19 0
BBX 16 18 1 0
BITMAP
7FFF
7FFF
7FFF
7FFF
7FFF
007E
00FC
3FFE
3FFE
3FFE
3FFE
1F80
3F00
7E00
FFFF
FFFF
FFFF
FFFF
ENDCHAR
STARTCHAR uni01B7
ENCODING 439
SWIDTH 772 0
DWIDTH 25 0
BBX 21 24 2 -1
BITMAP
FFFFE0
FFFFE0
FFFFE0
FFFFE0
000FE0
001FC0
003F80
007F00
00FE00
01FC00
01FE00
01FFC0
01FFF0
01FFF0
0003F8
0001F8
0001F8
0001F8
6001F8
7C07F8
7FFFF0
7FFFF0
3FFFC0
07FF00
ENDCHAR
STARTCHAR uni01B8
ENCODING 440
SWIDTH 772 0
DWIDTH 25 0
BBX 21 24 1 -1
BITMAP
3FFFF8
3FFFF8
3FFFF8
3FFFF8
1FC000
0FE000
07F000
03F800
01F800
01FC00
01FC00
1FFC00
3FFC00
7FFC00
7E0000
FE0000
FC0000
FE0000
FE0018
7F01F8
7FFFF8
3FFFF8
1FFFF0
03FF00
ENDCHAR
STARTCHAR uni01B9
ENCODING 441
SWIDTH 640 0
DWIDTH 21 0
BBX 18 25 1 -7
BITMAP
3FFF80
3FFF80
3FFF80
3FFF80
3FFF80
1F8000
0FC000
07E000
03F000
01F800
00FC00
03FC00
1FFC00
3FFC00
7FC000
7E0000
FC0000
FC0000
FC0000
FE0040
7F87C0
7FFFC0
3FFFC0
0FFFC0
01FE00
ENDCHAR
STARTCHAR uni01BA
ENCODING 442
SWIDTH 582 0
DWIDTH 19 0
BBX 15 25 2 -7
BITMAP
FFFE
FFFE
FFFE
FFFE
FFFE
00FC
01F8
03F0
07E0
0FC0
1FF8
3FFC
7FFE
003E
003E
07FE
3FFC
7FF8
FF80
F800
F802
FF7E
7FFE
3FFE
03C0
ENDCHAR
STARTCHAR uni01BB
ENCODING 443
SWIDTH 695 0
DWIDTH 22 0
BBX 16 24 3 0
BITMAP
07C0
FFF8
FFFC
FFFE
F9FF
C07F
003F
003F
003F
003F
007F
7FFE
7FFE
7FFE
7FFE
0FE0
1FC0
3F80
7E00
FC00
FFFF
FFFF
FFFF
FFFF
ENDCHAR
STARTCHAR uni01BC
ENCODING 444
SWIDTH 772 0
DWIDTH 25 0
BBX 22 24 1 -1
BITMAP
3FFFE0
3FFFE0
3FFFE0
3FFFE0
3F0000
3F0000
3F0000
3F0000
3F0000
3F0000
3FFFC0
3FFFF0
3FFFF8
3FFFF8
0001FC
0000FC
0000FC
FE00FC
FE00FC
7F03FC
7FFFF8
3FFFF8
1FFFE0
03FF80
ENDCHAR
STARTCHAR uni01BD
ENCODING 445
SWIDTH 640 0
DWIDTH 21 0
BBX 18 25 1 -7
BITMAP
3FFE00
3FFE00
3FFE00
3FFE00
3E0000
3E0000
3E0000
3E0000
3E0000
3E0000
3E0000
3FF800
3FFE00
3FFF00
00FF80
001F80
000FC0
000FC0
000FC0
801FC0
F87F80
FFFF80
FFFF00
FFFC00
1FF000
ENDCHAR
STARTCHAR uni01BE
ENCODING 446
SWIDTH 572 0
DWIDTH 18 0
BBX 16 22 1 0
BITMAP
1F80
1F80
7FF8
7FF8
7FF8
1F80
1FE0
1FF8
1FFC
1FFE
00FE
007F
003F
003F
003F
003F
007E
C0FE
FFFC
FFF8
FFF0
FFE0
ENDCHAR
STARTCHAR uni01BF
ENCODING 447
SWIDTH 715 0
DWIDTH 23 0
BBX 18 25 3 -7
BITMAP
F87E00
F9FF80
FBFF80
FFFFC0
FF1FC0
FE0FC0
FC0FC0
F807C0
F807C0
F80FC0
F81F80
F81F00
F87E00
F8FE00
F9F800
FBF000
FFE000
FF8000
FF0000
FC0000
F80000
F80000
F80000
F80000
F80000
ENDCHAR
STARTCHAR uni01C0
ENCODING 448
SWIDTH 372 0
DWIDTH 12 0
BBX 6 30 3 -7
BITMAP
FC
FC
FC
FC
FC
FC
FC
FC
FC
FC
FC
FC
FC
FC
FC
FC
FC
FC
FC
FC
FC
FC
FC
FC
FC
FC
FC
FC
FC
FC
ENDCHAR
STARTCHAR uni01C1
ENCODING 449
SWIDTH 658 0
DWIDTH 21 0
BBX 15 30 3 -7
BITMAP
FC7E
FC7E
FC7E
FC7E
FC7E
FC7E
FC7E
FC7E
FC7E
FC7E
FC7E
FC7E
FC7E
FC7E
FC7E
FC7E
FC7E
FC7E
FC7E
FC7E
FC7E
FC7E
FC7E
FC7E
FC7E
FC7E
FC7E
FC7E
FC7E
FC7E
ENDCHAR
STARTCHAR uni01C2
ENCODING 450
SWIDTH 543 0
DWIDTH 17 0
BBX 17 30 0 -7
BITMAP
03F000
03F000
03F000
03F000
03F000
03F000
03F000
03F000
FFFF80
FFFF80
FFFF80
FFFF80
03F000
03F000
03F000
03F000
FFFF80
FFFF80
FFFF80
03F000
03F000
03F000
03F000
03F000
03F000
03F000
03F000
03F000
03F000
03F000
ENDCHAR
STARTCHAR uni01C3
ENCODING 451
SWIDTH 372 0
DWIDTH 12 0
BBX 6 23 3 0
BITMAP
FC
FC
FC
FC
FC
FC
FC
FC
FC
FC
F8
F8
F8
F8
F8
00
00
FC
FC
FC
FC
FC
FC
ENDCHAR
STARTCHAR uni01C4
ENCODING 452
SWIDTH 1555 0
DWIDTH 50 0
BBX 45 30 3 0
BITMAP
000000070700
00000003CE00
00000001FE00
00000000FC00
000000000000
000000000000
000000000000
FFF8007FFFF8
FFFF007FFFF8
FFFFC07FFFF8
FFFFE07FFFF8
FC0FF0000FF0
FC03F8001FE0
FC01F8001FC0
FC01F8003FC0
FC00FC007F80
FC00FC00FF00
FC00FC01FE00
FC00FC01FC00
FC00FC03FC00
FC00FC07F800
FC00FC0FF000
FC01F80FE000
FC01F81FC000
FC03F83FC000
FC0FF07F8000
FFFFE07FFFF8
FFFFC07FFFF8
FFFF007FFFF8
FFF8007FFFF8
ENDCHAR
STARTCHAR uni01C5
ENCODING 453
SWIDTH 1412 0
DWIDTH 45 0
BBX 41 26 3 0
BITMAP
0000001C0E00
0000000E1C00
000000073800
FFF80007F800
FFFF0003F000
FFFFC001E000
FFFFE0000000
FC0FF0000000
FC03F87FFF80
FC01F87FFF80
FC01F87FFF80
FC00FC7FFF80
FC00FC007F00
FC00FC00FE00
FC00FC01FE00
FC00FC03FC00
FC00FC07F800
FC00FC0FF000
FC01F81FE000
FC01F81FE000
FC03F83FC000
FC0FF07F8000
FFFFE07FFF80
FFFFC07FFF80
FFFF007FFF80
FFF8007FFF80
ENDCHAR
STARTCHAR uni01C6
ENCODING 454
SWIDTH 1297 0
DWIDTH 42 0
BBX 39 26 1 0
BITMAP
0000003038
0000003870
0007E01CF0
0007E00FE0
0007E00FC0
0007E00780
0007E00000
0007E00000
07C7E1FFFE
1FF7E1FFFE
3FFFE1FFFE
7FFFE1FFFE
7F1FE001FE
FE0FE003FC
FC07E007F8
FC07E00FF0
FC07E01FE0
FC07E01FE0
FC07E03FC0
FC07E07F80
FE0FE0FF00
7F1FE1FE00
7FFFE1FFFE
3FFFE1FFFE
1FF7E1FFFE
07C7E1FFFE
ENDCHAR
STARTCHAR uni01C7
ENCODING 455
SWIDTH 1009 0
DWIDTH 32 0
BBX 26 29 3 -6
BITMAP
FC000FC0
FC000FC0
FC000FC0
FC000FC0
FC000FC0
FC000FC0
FC000FC0
FC000FC0
FC000FC0
FC000FC0
FC000FC0
FC000FC0
FC000FC0
FC000FC0
FC000FC0
FC000FC0
FC000FC0
FC000FC0
FC000FC0
FFFF8FC0
FFFF8FC0
FFFF8FC0
FFFF8FC0
00000FC0
00001FC0
0001FF80
0001FF80
0001FE00
0001F800
ENDCHAR
STARTCHAR uni01C8
ENCODING 456
SWIDTH 979 0
DWIDTH 31 0
BBX 26 31 3 -7
BITMAP
00000FC0
FC000FC0
FC000FC0
FC000FC0
FC000000
FC000000
FC000FC0
FC000FC0
FC000FC0
FC000FC0
FC000FC0
FC000FC0
FC000FC0
FC000FC0
FC000FC0
FC000FC0
FC000FC0
FC000FC0
FC000FC0
FC000FC0
FFFF8FC0
FFFF8FC0
FFFF8FC0
FFFF8FC0
00000FC0
00000FC0
00001FC0
0000FFC0
0000FF80
0000FF00
0000FC00
ENDCHAR
STARTCHAR uni01C9
ENCODING 457
SWIDTH 685 0
DWIDTH 22 0
BBX 17 31 3 -7
BITMAP
FC1F80
FC1F80
FC1F80
FC1F80
FC0000
FC0000
FC1F80
FC1F80
FC1F80
FC1F80
FC1F80
FC1F80
FC1F80
FC1F80
FC1F80
FC1F80
FC1F80
FC1F80
FC1F80
FC1F80
FC1F80
FC1F80
FC1F80
FC1F80
001F80
001F80
003F80
01FF00
01FF00
01FE00
01F800
ENDCHAR
STARTCHAR uni01CA
ENCODING 458
SWIDTH 1208 0
DWIDTH 39 0
BBX 33 29 3 -6
BITMAP
FE01F81F80
FF01F81F80
FF01F81F80
FF81F81F80
FF81F81F80
FFC1F81F80
FFC1F81F80
FFE1F81F80
FDE1F81F80
FDF1F81F80
FCF1F81F80
FCF9F81F80
FC79F81F80
FC7DF81F80
FC3DF81F80
FC3FF81F80
FC1FF81F80
FC1FF81F80
FC0FF81F80
FC0FF81F80
FC07F81F80
FC07F81F80
FC03F81F80
0000003F00
0000007F00
000003FF00
000003FE00
000003FC00
000003E000
ENDCHAR
STARTCHAR uni01CB
ENCODING 459
SWIDTH 1179 0
DWIDTH 38 0
BBX 33 31 3 -7
BITMAP
0000001F80
FE01F81F80
FF01F81F80
FF01F81F80
FF81F80000
FF81F80000
FFC1F81F80
FFC1F81F80
FFE1F81F80
FDE1F81F80
FDF1F81F80
FCF1F81F80
FCF9F81F80
FC79F81F80
FC7DF81F80
FC3DF81F80
FC3FF81F80
FC1FF81F80
FC1FF81F80
FC0FF81F80
FC0FF81F80
FC07F81F80
FC07F81F80
FC03F81F80
0000001F80
0000001F80
0000003F00
000001FF00
000001FE00
000001FE00
000001F800
ENDCHAR
STARTCHAR uni01CC
ENCODING 460
SWIDTH 1054 0
DWIDTH 34 0
BBX 29 31 3 -7
BITMAP
000001F8
000001F8
000001F8
000001F8
00000000
00000000
FC7E01F8
FDFF01F8
FFFF81F8
FFFF81F8
FF1FC1F8
FE0FC1F8
FC0FC1F8
FC0FC1F8
FC0FC1F8
FC0FC1F8
FC0FC1F8
FC0FC1F8
FC0FC1F8
FC0FC1F8
FC0FC1F8
FC0FC1F8
FC0FC1F8
FC0FC1F8
000001F8
000001F8
000003F0
00001FF0
00001FE0
00001FE0
00001F80
ENDCHAR
STARTCHAR uni01CD
ENCODING 461
SWIDTH 773 0
DWIDTH 25 0
BBX 24 30 0 0
BITMAP
0381C0
01E780
00FF00
007E00
000000
000000
000000
00FF00
00FF00
00FF00
01FF80
01FF80
03FFC0
03FFC0
03FFC0
07FFE0
07E7E0
07E7E0
0FE7F0
0FC3F0
1FC3F8
1FFFF8
1FFFF8
3FFFFC
3FFFFC
3F00FC
7F00FE
7E007E
7E007E
FE007F
ENDCHAR
STARTCHAR uni01CE
ENCODING 462
SWIDTH 674 0
DWIDTH 22 0
BBX 18 26 1 0
BITMAP
0E0600
070E00
079C00
03F800
01F800
00F000
000000
000000
0FF800
3FFE00
3FFF00
3FFF80
301F80
000FC0
000FC0
0FFFC0
3FFFC0
7FFFC0
FE0FC0
FC0FC0
FC1FC0
FE3FC0
FFFFC0
7FFFC0
3FEFC0
1F8FC0
ENDCHAR
STARTCHAR uni01CF
ENCODING 463
SWIDTH 372 0
DWIDTH 12 0
BBX 12 30 0 0
BITMAP
E070
79E0
3FC0
1F80
0000
0000
0000
1F80
1F80
1F80
1F80
1F80
1F80
1F80
1F80
1F80
1F80
1F80
1F80
1F80
1F80
1F80
1F80
1F80
1F80
1F80
1F80
1F80
1F80
1F80
ENDCHAR
STARTCHAR uni01D0
ENCODING 464
SWIDTH 342 0
DWIDTH 11 0
BBX 12 26 0 0
BITMAP
E070
70E0
39C0
3FC0
1F80
0F00
0000
0000
1F80
1F80
1F80
1F80
1F80
1F80
1F80
1F80
1F80
1F80
1F80
1F80
1F80
1F80
1F80
1F80
1F80
1F80
ENDCHAR
STARTCHAR uni01D1
ENCODING 465
SWIDTH 850 0
DWIDTH 27 0
BBX 24 30 2 0
BITMAP
0381C0
01E780
00FF00
007E00
000000
000000
000000
00FF00
07FFE0
0FFFF0
1FFFF8
3F83FC
7F00FE
7E007E
7E007E
FC003F
FC003F
FC003F
FC003F
FC003F
FC003F
FC003F
7E007E
7E007E
7F00FE
3F81FC
1FFFF8
0FFFF0
07FFE0
00FF00
ENDCHAR
STARTCHAR uni01D2
ENCODING 466
SWIDTH 687 0
DWIDTH 22 0
BBX 19 26 1 0
BITMAP
0E0E00
071E00
07BC00
03B800
01F000
01F000
000000
000000
03F800
0FFE00
3FFF80
3FFF80
7F1FC0
7E0FC0
FC07E0
FC07E0
FC07E0
FC07E0
FC07E0
FC07E0
7E0FC0
7F1FC0
3FFF80
3FFF80
0FFE00
03F800
ENDCHAR
STARTCHAR uni01D3
ENCODING 467
SWIDTH 812 0
DWIDTH 26 0
BBX 20 30 3 0
BITMAP
0E0700
079E00
03FC00
01F800
000000
000000
000000
FC03F0
FC03F0
FC03F0
FC03F0
FC03F0
FC03F0
FC03F0
FC03F0
FC03F0
FC03F0
FC03F0
FC03F0
FC03F0
FC03F0
FC03F0
FC03F0
FC03F0
FE07E0
7F0FE0
7FFFE0
3FFFC0
1FFF00
03FC00
ENDCHAR
STARTCHAR uni01D4
ENCODING 468
SWIDTH 711 0
DWIDTH 23 0
BBX 18 26 3 0
BITMAP
1C0E00
0E1C00
073800
07F800
03F000
01E000
000000
000000
FC0FC0
FC0FC0
FC0FC0
FC0FC0
FC0FC0
FC0FC0
FC0FC0
FC0FC0
FC0FC0
FC0FC0
FC0FC0
FC0FC0
FC1FC0
FE3FC0
7FFFC0
7FFFC0
3FEFC0
1F8FC0
ENDCHAR
STARTCHAR uni01D5
ENCODING 469
SWIDTH 812 0
DWIDTH 26 0
BBX 20 33 3 0
BITMAP
07FE00
07FE00
07FE00
000000
078F00
078F00
078F00
078F00
000000
000000
FC03F0
FC03F0
FC03F0
FC03F0
FC03F0
FC03F0
FC03F0
FC03F0
FC03F0
FC03F0
FC03F0
FC03F0
FC03F0
FC03F0
FC03F0
FC03F0
FC03F0
FE07E0
7F0FE0
7FFFE0
3FFFC0
1FFF00
03FC00
ENDCHAR
STARTCHAR uni01D6
ENCODING 470
SWIDTH 711 0
DWIDTH 23 0
BBX 18 29 3 0
BITMAP
1FF800
1FF800
1FF800
000000
1E1E00
1E1E00
1E1E00
1E1E00
000000
000000
000000
FC0FC0
FC0FC0
FC0FC0
FC0FC0
FC0FC0
FC0FC0
FC0FC0
FC0FC0
FC0FC0
FC0FC0
FC0FC0
FC0FC0
FC1FC0
FE3FC0
7FFFC0
7FFFC0
3FEFC0
1F8FC0
ENDCHAR
STARTCHAR uni01D7
ENCODING 471
SWIDTH 812 0
DWIDTH 26 0
BBX 20 36 3 0
BITMAP
001E00
003C00
007800
00F000
000000
000000
0F0F00
0F0F00
0F0F00
0F0F00
000000
000000
000000
FC03F0
FC03F0
FC03F0
FC03F0
FC03F0
FC03F0
FC03F0
FC03F0
FC03F0
FC03F0
FC03F0
FC03F0
FC03F0
FC03F0
FC03F0
FC03F0
FC03F0
FE07E0
7F0FE0
7FFFE0
3FFFC0
1FFF00
03FC00
ENDCHAR
STARTCHAR uni01D8
ENCODING 472
SWIDTH 711 0
DWIDTH 23 0
BBX 18 30 3 0
BITMAP
003C00
007800
00F000
01E000
000000
1E3C00
1E3C00
1E3C00
1E3C00
000000
000000
000000
FC0FC0
FC0FC0
FC0FC0
FC0FC0
FC0FC0
FC0FC0
FC0FC0
FC0FC0
FC0FC0
FC0FC0
FC0FC0
FC0FC0
FC1FC0
FE3FC0
7FFFC0
7FFFC0
3FEFC0
1F8FC0
ENDCHAR
STARTCHAR uni01D9
ENCODING 473
SWIDTH 812 0
DWIDTH 26 0
BBX 20 36 3 0
BITMAP
0E0F00
079E00
03FC00
01F800
000000
000000
0F0F00
0F0F00
0F0F00
0F0F00
000000
000000
000000
FC03F0
FC03F0
FC03F0
FC03F0
FC03F0
FC03F0
FC03F0
FC03F0
FC03F0
FC03F0
FC03F0
FC03F0
FC03F0
FC03F0
FC03F0
FC03F0
FC03F0
FE07E0
7F0FE0
7FFFE0
3FFFC0
1FFF00
03FC00
ENDCHAR
STARTCHAR uni01DA
ENCODING 474
SWIDTH 711 0
DWIDTH 23 0
BBX 18 30 3 0
BITMAP
1C1C00
0E3800
07F000
07E000
000000
1E3C00
1E3C00
1E3C00
1E3C00
000000
000000
000000
FC0FC0
FC0FC0
FC0FC0
FC0FC0
FC0FC0
FC0FC0
FC0FC0
FC0FC0
FC0FC0
FC0FC0
FC0FC0
FC0FC0
FC1FC0
FE3FC0
7FFFC0
7FFFC0
3FEFC0
1F8FC0
ENDCHAR
STARTCHAR uni01DB
ENCODING 475
SWIDTH 812 0
DWIDTH 26 0
BBX 20 36 3 0
BITMAP
03C000
01E000
00F000
007800
000000
000000
0F0F00
0F0F00
0F0F00
0F0F00
000000
000000
000000
FC03F0
FC03F0
FC03F0
FC03F0
FC03F0
FC03F0
FC03F0
FC03F0
FC03F0
FC03F0
FC03F0
FC03F0
FC03F0
FC03F0
FC03F0
FC03F0
FC03F0
FE07E0
7F0FE0
7FFFE0
3FFFC0
1FFF00
03FC00
ENDCHAR
STARTCHAR uni01DC
ENCODING 476
SWIDTH 711 0
DWIDTH 23 0
BBX 18 30 3 0
BITMAP
1F0000
0F0000
078000
01C000
000000
1E3C00
1E3C00
1E3C00
1E3C00
000000
000000
000000
FC0FC0
FC0FC0
FC0FC0
FC0FC0
FC0FC0
FC0FC0
FC0FC0
FC0FC0
FC0FC0
FC0FC0
FC0FC0
FC0FC0
FC1FC0
FE3FC0
7FFFC0
7FFFC0
3FEFC0
1F8FC0
ENDCHAR
STARTCHAR uni01DD
ENCODING 477
SWIDTH 678 0
DWIDTH 22 0
BBX 19 18 1 0
BITMAP
07F800
3FFE00
7FFF00
7FFF80
781FC0
400FC0
0007E0
FFFFE0
FFFFE0
FFFFE0
FC07E0
FC07E0
7E0FC0
7F1FC0
3FFF80
1FFF00
0FFE00
03F800
ENDCHAR
STARTCHAR uni01DE
ENCODING 478
SWIDTH 773 0
DWIDTH 25 0
BBX 24 33 0 0
BITMAP
00FFC0
00FFC0
00FFC0
000000
00F1E0
00F1E0
00F1E0
00F1E0
000000
000000
00FF00
00FF00
00FF00
01FF80
01FF80
03FFC0
03FFC0
03FFC0
07FFE0
07E7E0
07E7E0
0FE7F0
0FC3F0
1FC3F8
1FFFF8
1FFFF8
3FFFFC
3FFFFC
3F00FC
7F00FE
7E007E
7E007E
FE007F
ENDCHAR
STARTCHAR uni01DF
ENCODING 479
SWIDTH 674 0
DWIDTH 22 0
BBX 18 29 1 0
BITMAP
07FE00
07FE00
07FE00
000000
078F00
078F00
078F00
078F00
000000
000000
000000
0FF800
3FFE00
3FFF00
3FFF80
301F80
000FC0
000FC0
0FFFC0
3FFFC0
7FFFC0
FE0FC0
FC0FC0
FC1FC0
FE3FC0
FFFFC0
7FFFC0
3FEFC0
1F8FC0
ENDCHAR
STARTCHAR uni01E0
ENCODING 480
SWIDTH 773 0
DWIDTH 25 0
BBX 24 33 0 0
BITMAP
00FFC0
00FFC0
00FFC0
000000
001E00
001E00
001E00
001E00
000000
000000
00FF00
00FF00
00FF00
01FF80
01FF80
03FFC0
03FFC0
03FFC0
07FFE0
07E7E0
07E7E0
0FE7F0
0FC3F0
1FC3F8
1FFFF8
1FFFF8
3FFFFC
3FFFFC
3F00FC
7F00FE
7E007E
7E007E
FE007F
ENDCHAR
STARTCHAR uni01E1
ENCODING 481
SWIDTH 674 0
DWIDTH 22 0
BBX 18 29 1 0
BITMAP
0FFC00
0FFC00
0FFC00
01F800
01F800
01F800
01F800
01F800
01F800
000000
000000
0FF800
3FFE00
3FFF00
3FFF80
301F80
000FC0
000FC0
0FFFC0
3FFFC0
7FFFC0
FE0FC0
FC0FC0
FC1FC0
FE3FC0
FFFFC0
7FFFC0
3FEFC0
1F8FC0
ENDCHAR
STARTCHAR uni01E2
ENCODING 482
SWIDTH 1084 0
DWIDTH 35 0
BBX 32 29 0 0
BITMAP
0000FFC0
0000FFC0
0000FFC0
00000000
00000000
00000000
007FFFFF
007FFFFF
00FFFFFF
00FFFFFF
01FDF800
01FDF800
01F9F800
03F9F800
03F1F800
07F1FFFE
07F1FFFE
07E1FFFE
0FE1FFFE
0FFFF800
1FFFF800
1FFFF800
1FFFF800
3F81F800
3F01F800
7F01FFFF
7E01FFFF
7E01FFFF
FE01FFFF
ENDCHAR
STARTCHAR uni01E3
ENCODING 483
SWIDTH 1047 0
DWIDTH 34 0
BBX 31 24 1 0
BITMAP
003FF000
003FF000
003FF000
00000000
00000000
00000000
0FF83F80
3FFEFFE0
3FFFFFF0
3FFFFFF8
301FF1FC
000FE0FC
000FC07E
0FFFC07E
3FFFFFFE
7FFFFFFE
FE0FFFFE
FC0FC000
FC0FE004
FE3FF03C
FFFFFFFC
7FFBFFFC
3FF0FFF8
0FC03FC0
ENDCHAR
STARTCHAR uni01E4
ENCODING 484
SWIDTH 820 0
DWIDTH 26 0
BBX 23 24 2 0
BITMAP
007E00
03FFF0
0FFFF8
1FFFF8
3FFFF8
7F8038
7F0008
FE0000
FE0000
FC0000
FC0000
FC07FC
FC07FC
FC07FC
FC07FC
FC00FC
FE00FC
FE03FE
7F00FC
3FC0FC
3FFFFC
1FFFFC
07FFF8
01FFE0
ENDCHAR
STARTCHAR uni01E5
ENCODING 485
SWIDTH 715 0
DWIDTH 23 0
BBX 21 25 1 -7
BITMAP
03C3E0
0FF3E0
1FFBE0
3FFFE0
7F1FE0
7E07E0
7E07E0
7C07E0
FC03E0
FC03E0
7C07E0
7E07E0
7E07E0
7F0FE0
3FFFE0
1FFBE0
0FF3E0
07E7E0
0007E0
01FFF8
180FC0
1FFFC0
1FFF80
1FFE00
07F800
ENDCHAR
STARTCHAR Gcaron
ENCODING 486
SWIDTH 820 0
DWIDTH 26 0
BBX 22 30 2 0
BITMAP
01C1C0
00E780
00FF00
007E00
000000
000000
000000
00FFC0
03FFF8
0FFFF8
1FFFF8
3FC078
7F0008
7E0000
7E0000
FC0000
FC0000
FC0FFC
FC0FFC
FC0FFC
FC0FFC
FC00FC
7E00FC
7E00FC
7F00FC
3FC0FC
1FFFFC
0FFFFC
03FFF8
00FF80
ENDCHAR
STARTCHAR gcaron
ENCODING 487
SWIDTH 715 0
DWIDTH 23 0
BBX 19 33 1 -7
BITMAP
070700
078E00
039E00
01DC00
01F800
00F800
000000
000000
07C7E0
1FF7E0
3FFFE0
7FFFE0
7F1FE0
FE0FE0
FC07E0
FC07E0
FC07E0
FC07E0
FC07E0
FC07E0
FE0FE0
7F1FE0
7FFFE0
3FFFE0
1FF7E0
07C7E0
0007E0
200FC0
381FC0
3FFF80
3FFF80
1FFE00
07F800
ENDCHAR
STARTCHAR uni01E8
ENCODING 488
SWIDTH 774 0
DWIDTH 25 0
BBX 23 30 3 0
BITMAP
070700
038E00
01FC00
01F800
000000
000000
000000
FC03F8
FC07F0
FC0FE0
FC1FC0
FC3F80
FC7F00
FCFE00
FDFC00
FFF800
FFF000
FFE000
FFE000
FFF000
FFF800
FDFC00
FCFE00
FC7F00
FC3F80
FC1FC0
FC0FE0
FC07F0
FC03F8
FC01FE
ENDCHAR
STARTCHAR uni01E9
ENCODING 489
SWIDTH 665 0
DWIDTH 21 0
BBX 22 30 0 0
BITMAP
E0E000
79C000
3FC000
1F8000
000000
000000
1F8000
1F8000
1F8000
1F8000
1F8000
1F8000
1F83F8
1F83F0
1F87E0
1F8FC0
1F9F80
1FBF00
1FFE00
1FFC00
1FF800
1FFC00
1FFE00
1FBF00
1F9F80
1F8FC0
1F8FE0
1F87F0
1F83F8
1F81FC
ENDCHAR
STARTCHAR uni01EA
ENCODING 490
SWIDTH 850 0
DWIDTH 27 0
BBX 24 29 2 -6
BITMAP
00FF00
07FFE0
0FFFF0
1FFFF8
3F83FC
7F00FE
7E007E
7E007E
FC003F
FC003F
FC003F
FC003F
FC003F
FC003F
FC003F
7E007E
7E007E
7F00FE
3F81FC
1FFFF8
0FFFF0
07FFE0
00FF00
003000
006000
00E000
00E000
00FE00
007E00
ENDCHAR
STARTCHAR uni01EB
ENCODING 491
SWIDTH 687 0
DWIDTH 22 0
BBX 19 24 1 -6
BITMAP
03F800
0FFE00
3FFF80
3FFF80
7F1FC0
7E0FC0
FC07E0
FC07E0
FC07E0
FC07E0
FC07E0
FC07E0
7E0FC0
7F1FC0
3FFF80
3FFF80
0FFE00
03F800
00E000
01C000
01C000
01C000
01FC00
00FC00
ENDCHAR
STARTCHAR uni01EC
ENCODING 492
SWIDTH 850 0
DWIDTH 27 0
BBX 24 35 2 -6
BITMAP
01FF80
01FF80
01FF80
000000
000000
000000
00FF00
07FFE0
0FFFF0
1FFFF8
3F83FC
7F00FE
7E007E
7E007E
FC003F
FC003F
FC003F
FC003F
FC003F
FC003F
FC003F
7E007E
7E007E
7F00FE
3F81FC
1FFFF8
0FFFF0
07FFE0
00FF00
003000
006000
00E000
00E000
00FE00
007E00
ENDCHAR
STARTCHAR uni01ED
ENCODING 493
SWIDTH 687 0
DWIDTH 22 0
BBX 19 30 1 -6
BITMAP
07FE00
07FE00
07FE00
000000
000000
000000
03F800
0FFE00
3FFF80
3FFF80
7F1FC0
7E0FC0
FC07E0
FC07E0
FC07E0
FC07E0
FC07E0
FC07E0
7E0FC0
7F1FC0
3FFF80
3FFF80
0FFE00
03F800
00E000
01C000
01C000
01C000
01FC00
00FC00
ENDCHAR
STARTCHAR uni01EE
ENCODING 494
SWIDTH 772 0
DWIDTH 25 0
BBX 21 31 2 -1
BITMAP
0E0E00
073C00
07F800
03F000
000000
000000
000000
FFFFE0
FFFFE0
FFFFE0
FFFFE0
000FE0
001FC0
003F80
007F00
00FE00
01FC00
01FE00
01FFC0
01FFF0
01FFF0
0003F8
0001F8
0001F8
0001F8
6001F8
7C07F8
7FFFF0
7FFFF0
3FFFC0
07FF00
ENDCHAR
STARTCHAR uni01EF
ENCODING 495
SWIDTH 582 0
DWIDTH 19 0
BBX 18 33 1 -7
BITMAP
1C1C00
1E3800
0E7800
077000
03E000
03E000
000000
000000
7FFF00
7FFF00
7FFF00
7FFF00
7FFF00
007E00
00FC00
01F800
03F000
07E000
0FC000
0FF800
0FFE00
0FFF00
007F80
001FC0
000FC0
000FC0
000FC0
801FC0
F87F80
FFFF80
FFFF00
FFFE00
1FE000
ENDCHAR
STARTCHAR uni01F0
ENCODING 496
SWIDTH 342 0
DWIDTH 11 0
BBX 13 33 -1 -7
BITMAP
7038
3870
1CE0
1FE0
0FC0
0780
0000
0000
0FC0
0FC0
0FC0
0FC0
0FC0
0FC0
0FC0
0FC0
0FC0
0FC0
0FC0
0FC0
0FC0
0FC0
0FC0
0FC0
0FC0
0FC0
0FC0
0FC0
1FC0
FF80
FF80
FF00
FC00
ENDCHAR
STARTCHAR uni01F1
ENCODING 497
SWIDTH 1555 0
DWIDTH 50 0
BBX 45 23 3 0
BITMAP
FFF8007FFFF8
FFFF007FFFF8
FFFFC07FFFF8
FFFFE07FFFF8
FC0FF0000FF0
FC03F8001FE0
FC01F8001FC0
FC01F8003FC0
FC00FC007F80
FC00FC00FF00
FC00FC01FE00
FC00FC01FC00
FC00FC03FC00
FC00FC07F800
FC00FC0FF000
FC01F80FE000
FC01F81FC000
FC03F83FC000
FC0FF07F8000
FFFFE07FFFF8
FFFFC07FFFF8
FFFF007FFFF8
FFF8007FFFF8
ENDCHAR
STARTCHAR uni01F2
ENCODING 498
SWIDTH 1412 0
DWIDTH 45 0
BBX 41 23 3 0
BITMAP
FFF800000000
FFFF00000000
FFFFC0000000
FFFFE0000000
FC0FF0000000
FC03F87FFF80
FC01F87FFF80
FC01F87FFF80
FC00FC7FFF80
FC00FC007F00
FC00FC00FE00
FC00FC01FE00
FC00FC03FC00
FC00FC07F800
FC00FC0FF000
FC01F81FE000
FC01F81FE000
FC03F83FC000
FC0FF07F8000
FFFFE07FFF80
FFFFC07FFF80
FFFF007FFF80
FFF8007FFF80
ENDCHAR
STARTCHAR uni01F3
ENCODING 499
SWIDTH 1297 0
DWIDTH 42 0
BBX 39 24 1 0
BITMAP
0007E00000
0007E00000
0007E00000
0007E00000
0007E00000
0007E00000
07C7E1FFFE
1FF7E1FFFE
3FFFE1FFFE
7FFFE1FFFE
7F1FE001FE
FE0FE003FC
FC07E007F8
FC07E00FF0
FC07E01FE0
FC07E01FE0
FC07E03FC0
FC07E07F80
FE0FE0FF00
7F1FE1FE00
7FFFE1FFFE
3FFFE1FFFE
1FF7E1FFFE
07C7E1FFFE
ENDCHAR
STARTCHAR uni01F4
ENCODING 500
SWIDTH 820 0
DWIDTH 26 0
BBX 22 30 2 0
BITMAP
001F00
001E00
003C00
007000
000000
000000
000000
00FFC0
03FFF8
0FFFF8
1FFFF8
3FC078
7F0008
7E0000
7E0000
FC0000
FC0000
FC0FFC
FC0FFC
FC0FFC
FC0FFC
FC00FC
7E00FC
7E00FC
7F00FC
3FC0FC
1FFFFC
0FFFFC
03FFF8
00FF80
ENDCHAR
STARTCHAR uni01F5
ENCODING 501
SWIDTH 715 0
DWIDTH 23 0
BBX 19 33 1 -7
BITMAP
001F00
001E00
003C00
007800
00F000
00E000
000000
000000
07C7E0
1FF7E0
3FFFE0
7FFFE0
7F1FE0
FE0FE0
FC07E0
FC07E0
FC07E0
FC07E0
FC07E0
FC07E0
FE0FE0
7F1FE0
7FFFE0
3FFFE0
1FF7E0
07C7E0
0007E0
200FC0
381FC0
3FFF80
3FFF80
1FFE00
07F800
ENDCHAR
STARTCHAR uni01F6
ENCODING 502
SWIDTH 1288 0
DWIDTH 41 0
BBX 35 23 3 0
BITMAP
FC01F80000
FC01F80000
FC01F80000
FC01F80000
FC01F80000
FC01F807E0
FC01F807E0
FC01F807E0
FC01F807E0
FFFFF807E0
FFFFF807E0
FFFFF807E0
FFFFF807E0
FC01F807E0
FC01F807E0
FC01F807E0
FC01F807E0
FC01FC0FC0
FC00FE1FC0
FC00FFFFC0
FC007FFF80
FC003FFF00
FC001FFC00
ENDCHAR
STARTCHAR uni01F7
ENCODING 503
SWIDTH 787 0
DWIDTH 25 0
BBX 21 31 3 -7
BITMAP
001F00
FCFFC0
FDFFE0
FFFFF0
FFFFF0
FF07F0
FE03F8
FE03F8
FC03F0
FC03F0
FC03F0
FC07E0
FC0FC0
FC1FC0
FC3F80
FC7F00
FDFE00
FFF800
FFF000
FFE000
FF8000
FE0000
FC0000
FC0000
FC0000
FC0000
FC0000
FC0000
FC0000
FC0000
FC0000
ENDCHAR
STARTCHAR uni01F8
ENCODING 504
SWIDTH 836 0
DWIDTH 27 0
BBX 21 30 3 0
BITMAP
00F000
007800
003C00
001E00
000000
000000
000000
FE01F8
FF01F8
FF01F8
FF81F8
FF81F8
FFC1F8
FFC1F8
FFE1F8
FDE1F8
FDF1F8
FCF1F8
FCF9F8
FC79F8
FC7DF8
FC3DF8
FC3FF8
FC1FF8
FC1FF8
FC0FF8
FC0FF8
FC07F8
FC07F8
FC03F8
ENDCHAR
STARTCHAR uni01F9
ENCODING 505
SWIDTH 711 0
DWIDTH 23 0
BBX 18 26 3 0
BITMAP
0F0000
078000
03C000
01E000
00E000
007000
000000
000000
FC7E00
FDFF00
FFFF80
FFFF80
FF1FC0
FE0FC0
FC0FC0
FC0FC0
FC0FC0
FC0FC0
FC0FC0
FC0FC0
FC0FC0
FC0FC0
FC0FC0
FC0FC0
FC0FC0
FC0FC0
ENDCHAR
STARTCHAR Aringacute
ENCODING 506
SWIDTH 773 0
DWIDTH 25 0
BBX 25 30 0 0
BITMAP
003C0F80
007E1F00
00E71C00
00C33800
00C30000
00C30000
00E70000
00FE0000
00FF0000
00FF0000
01FF8000
01FF8000
01FF8000
03FFC000
03FFC000
07FFE000
07FFE000
07E7E000
0FE7F000
0FC3F000
0FC3F000
1FFFF800
1FFFF800
3FFFFC00
3FFFFC00
3F00FC00
7F00FE00
7E007E00
7E007E00
FE007F00
ENDCHAR
STARTCHAR aringacute
ENCODING 507
SWIDTH 674 0
DWIDTH 22 0
BBX 22 30 1 0
BITMAP
00007C
0000F8
00F0E0
01FDC0
038C00
030600
030600
030600
038C00
01FC00
00F800
000000
0FF800
3FFE00
3FFF00
3FFF80
301F80
000FC0
000FC0
0FFFC0
3FFFC0
7FFFC0
FE0FC0
FC0FC0
FC1FC0
FE3FC0
FFFFC0
7FFFC0
3FEFC0
1F8FC0
ENDCHAR
STARTCHAR AEacute
ENCODING 508
SWIDTH 1084 0
DWIDTH 35 0
BBX 32 30 0 0
BITMAP
00000F80
00001F00
00001C00
00003800
00000000
00000000
00000000
007FFFFF
007FFFFF
00FFFFFF
00FFFFFF
01FDF800
01FDF800
01F9F800
03F9F800
03F1F800
07F1FFFE
07F1FFFE
07E1FFFE
0FE1FFFE
0FFFF800
1FFFF800
1FFFF800
1FFFF800
3F81F800
3F01F800
7F01FFFF
7E01FFFF
7E01FFFF
FE01FFFF
ENDCHAR
STARTCHAR aeacute
ENCODING 509
SWIDTH 1047 0
DWIDTH 34 0
BBX 31 26 1 0
BITMAP
0001F000
0003E000
0003C000
00078000
000F0000
000E0000
00000000
00000000
0FF83F80
3FFEFFE0
3FFFFFF0
3FFFFFF8
301FF1FC
000FE0FC
000FC07E
0FFFC07E
3FFFFFFE
7FFFFFFE
FE0FFFFE
FC0FC000
FC0FE004
FE3FF03C
FFFFFFFC
7FFBFFFC
3FF0FFF8
0FC03FC0
ENDCHAR
STARTCHAR Oslashacute
ENCODING 510
SWIDTH 850 0
DWIDTH 27 0
BBX 25 30 1 0
BITMAP
000F8000
000F0000
001E0000
00380000
00000000
00000000
00000000
007F8180
03FFF380
07FFFF00
0FFFFE00
1FC1FE00
3F807F00
3F00FF00
3F01FF00
7E03DF80
7E079F80
7E0F1F80
7E1E1F80
7E3C1F80
7E781F80
7EF01F80
7FC03F00
3F803F00
3F807F00
1FC0FE00
1FFFFC00
3FFFF800
73FFF000
E07F8000
ENDCHAR
STARTCHAR oslashacute
ENCODING 511
SWIDTH 687 0
DWIDTH 22 0
BBX 19 27 1 -1
BITMAP
003C00
007800
00F000
01E000
01C000
038000
000000
000040
03F8E0
0FFFC0
3FFF80
3FFF80
7F1FC0
7E1FC0
FC3FE0
FC77E0
FCE7E0
FCC7E0
FDC7E0
FF87E0
7F0FC0
7F1FC0
3FFF80
3FFF80
7FFE00
E7F800
400000
ENDCHAR
STARTCHAR uni0200
ENCODING 512
SWIDTH 773 0
DWIDTH 25 0
BBX 24 30 0 0
BITMAP
079E00
03CF00
01E780
00F3C0
000000
000000
000000
00FF00
00FF00
00FF00
01FF80
01FF80
03FFC0
03FFC0
03FFC0
07FFE0
07E7E0
07E7E0
0FE7F0
0FC3F0
1FC3F8
1FFFF8
1FFFF8
3FFFFC
3FFFFC
3F00FC
7F00FE
7E007E
7E007E
FE007F
ENDCHAR
STARTCHAR uni0201
ENCODING 513
SWIDTH 674 0
DWIDTH 22 0
BBX 18 26 1 0
BITMAP
3CF000
1E7000
0E3800
073800
071C00
038C00
000000
000000
0FF800
3FFE00
3FFF00
3FFF80
301F80
000FC0
000FC0
0FFFC0
3FFFC0
7FFFC0
FE0FC0
FC0FC0
FC1FC0
FE3FC0
FFFFC0
7FFFC0
3FEFC0
1F8FC0
ENDCHAR
STARTCHAR uni0202
ENCODING 514
SWIDTH 773 0
DWIDTH 25 0
BBX 24 30 0 0
BITMAP
003E00
00FF00
00F780
01C1C0
000000
000000
000000
00FF00
00FF00
00FF00
01FF80
01FF80
03FFC0
03FFC0
03FFC0
07FFE0
07E7E0
07E7E0
0FE7F0
0FC3F0
1FC3F8
1FFFF8
1FFFF8
3FFFFC
3FFFFC
3F00FC
7F00FE
7E007E
7E007E
FE007F
ENDCHAR
STARTCHAR uni0203
ENCODING 515
SWIDTH 674 0
DWIDTH 22 0
BBX 18 25 1 0
BITMAP
01F800
03FC00
079E00
060600
060600
000000
000000
0FF800
3FFE00
3FFF00
3FFF80
301F80
000FC0
000FC0
0FFFC0
3FFFC0
7FFFC0
FE0FC0
FC0FC0
FC1FC0
FE3FC0
FFFFC0
7FFFC0
3FEFC0
1F8FC0
ENDCHAR
STARTCHAR uni0204
ENCODING 516
SWIDTH 683 0
DWIDTH 22 0
BBX 17 30 3 0
BITMAP
3DF000
1EF000
0E3800
071C00
000000
000000
000000
FFFF80
FFFF80
FFFF80
FFFF80
FC0000
FC0000
FC0000
FC0000
FC0000
FFFF00
FFFF00
FFFF00
FFFF00
FC0000
FC0000
FC0000
FC0000
FC0000
FC0000
FFFF80
FFFF80
FFFF80
FFFF80
ENDCHAR
STARTCHAR uni0205
ENCODING 517
SWIDTH 678 0
DWIDTH 22 0
BBX 19 26 1 0
BITMAP
1E7000
0E3800
0F3800
071C00
038C00
018E00
000000
000000
03F800
0FFE00
1FFF00
3FFF80
7F1FC0
7E0FC0
FC07E0
FC07E0
FFFFE0
FFFFE0
FFFFE0
FC0000
7E0040
7F03C0
3FFFC0
3FFFC0
0FFF80
03FC00
ENDCHAR
STARTCHAR uni0206
ENCODING 518
SWIDTH 683 0
DWIDTH 22 0
BBX 17 30 3 0
BITMAP
03E000
07F800
0F7800
1C1C00
000000
000000
000000
FFFF80
FFFF80
FFFF80
FFFF80
FC0000
FC0000
FC0000
FC0000
FC0000
FFFF00
FFFF00
FFFF00
FFFF00
FC0000
FC0000
FC0000
FC0000
FC0000
FC0000
FFFF80
FFFF80
FFFF80
FFFF80
ENDCHAR
STARTCHAR uni0207
ENCODING 519
SWIDTH 678 0
DWIDTH 22 0
BBX 19 25 1 0
BITMAP
00F800
03FE00
038E00
070700
070300
000000
000000
03F800
0FFE00
1FFF00
3FFF80
7F1FC0
7E0FC0
FC07E0
FC07E0
FFFFE0
FFFFE0
FFFFE0
FC0000
7E0040
7F03C0
3FFFC0
3FFFC0
0FFF80
03FC00
ENDCHAR
STARTCHAR uni0208
ENCODING 520
SWIDTH 372 0
DWIDTH 12 0
BBX 13 30 -1 0
BITMAP
F3C0
79E0
3CF0
1E78
0000
0000
0000
0FC0
0FC0
0FC0
0FC0
0FC0
0FC0
0FC0
0FC0
0FC0
0FC0
0FC0
0FC0
0FC0
0FC0
0FC0
0FC0
0FC0
0FC0
0FC0
0FC0
0FC0
0FC0
0FC0
ENDCHAR
STARTCHAR uni0209
ENCODING 521
SWIDTH 342 0
DWIDTH 11 0
BBX 12 26 0 0
BITMAP
F380
73C0
79C0
38E0
1CE0
0C70
0000
0000
1F80
1F80
1F80
1F80
1F80
1F80
1F80
1F80
1F80
1F80
1F80
1F80
1F80
1F80
1F80
1F80
1F80
1F80
ENDCHAR
STARTCHAR uni020A
ENCODING 522
SWIDTH 372 0
DWIDTH 12 0
BBX 10 30 1 0
BITMAP
1E00
7F80
FFC0
C0C0
0000
0000
0000
3F00
3F00
3F00
3F00
3F00
3F00
3F00
3F00
3F00
3F00
3F00
3F00
3F00
3F00
3F00
3F00
3F00
3F00
3F00
3F00
3F00
3F00
3F00
ENDCHAR
STARTCHAR uni020B
ENCODING 523
SWIDTH 342 0
DWIDTH 11 0
BBX 11 25 0 0
BITMAP
1F00
7FC0
71C0
E0E0
C0E0
0000
0000
1F80
1F80
1F80
1F80
1F80
1F80
1F80
1F80
1F80
1F80
1F80
1F80
1F80
1F80
1F80
1F80
1F80
1F80
ENDCHAR
STARTCHAR uni020C
ENCODING 524
SWIDTH 850 0
DWIDTH 27 0
BBX 24 30 2 0
BITMAP
0FBC00
079E00
03CF00
00E780
000000
000000
000000
00FF00
07FFE0
0FFFF0
1FFFF8
3F83FC
7F00FE
7E007E
7E007E
FC003F
FC003F
FC003F
FC003F
FC003F
FC003F
FC003F
7E007E
7E007E
7F00FE
3F81FC
1FFFF8
0FFFF0
07FFE0
00FF00
ENDCHAR
STARTCHAR uni020D
ENCODING 525
SWIDTH 687 0
DWIDTH 22 0
BBX 19 26 1 0
BITMAP
1CF000
1E7000
0E3800
073800
071C00
038C00
000000
000000
03F800
0FFE00
3FFF80
3FFF80
7F1FC0
7E0FC0
FC07E0
FC07E0
FC07E0
FC07E0
FC07E0
FC07E0
7E0FC0
7F1FC0
3FFF80
3FFF80
0FFE00
03F800
ENDCHAR
STARTCHAR uni020E
ENCODING 526
SWIDTH 850 0
DWIDTH 27 0
BBX 24 30 2 0
BITMAP
007C00
00FF00
01EF00
038380
000000
000000
000000
00FF00
07FFE0
0FFFF0
1FFFF8
3F83FC
7F00FE
7E007E
7E007E
FC003F
FC003F
FC003F
FC003F
FC003F
FC003F
FC003F
7E007E
7E007E
7F00FE
3F81FC
1FFFF8
0FFFF0
07FFE0
00FF00
ENDCHAR
STARTCHAR uni020F
ENCODING 527
SWIDTH 687 0
DWIDTH 22 0
BBX 19 25 1 0
BITMAP
01F800
03FC00
079E00
070600
060600
000000
000000
03F800
0FFE00
3FFF80
3FFF80
7F1FC0
7E0FC0
FC07E0
FC07E0
FC07E0
FC07E0
FC07E0
FC07E0
7E0FC0
7F1FC0
3FFF80
3FFF80
0FFE00
03F800
ENDCHAR
STARTCHAR uni0210
ENCODING 528
SWIDTH 770 0
DWIDTH 25 0
BBX 21 30 3 0
BITMAP
79E000
3CF000
1E7800
0E3800
010000
000000
000000
FFF800
FFFF00
FFFF80
FFFF80
FC1FC0
FC0FC0
FC0FC0
FC0FC0
FC0FC0
FC0FC0
FC1F80
FFFF00
FFFE00
FFFE00
FFFF00
FC3F80
FC1F80
FC1FC0
FC0FE0
FC0FE0
FC07F0
FC07F0
FC03F8
ENDCHAR
STARTCHAR uni0211
ENCODING 529
SWIDTH 493 0
DWIDTH 16 0
BBX 14 26 2 0
BITMAP
F380
73C0
79C0
38E0
1CE0
0C70
0000
0000
7E3C
7EFC
7FFC
7FFC
7F84
7F00
7F00
7E00
7E00
7E00
7E00
7E00
7E00
7E00
7E00
7E00
7E00
7E00
ENDCHAR
STARTCHAR uni0212
ENCODING 530
SWIDTH 770 0
DWIDTH 25 0
BBX 21 30 3 0
BITMAP
07C000
0FF000
1EF800
183800
000000
000000
000000
FFF800
FFFF00
FFFF80
FFFF80
FC1FC0
FC0FC0
FC0FC0
FC0FC0
FC0FC0
FC0FC0
FC1F80
FFFF00
FFFE00
FFFE00
FFFF00
FC3F80
FC1F80
FC1FC0
FC0FE0
FC0FE0
FC07F0
FC07F0
FC03F8
ENDCHAR
STARTCHAR uni0213
ENCODING 531
SWIDTH 493 0
DWIDTH 16 0
BBX 13 25 3 0
BITMAP
0F80
3FE0
38E0
7070
7030
0000
0000
FC78
FDF8
FFF8
FFF8
FF08
FE00
FE00
FC00
FC00
FC00
FC00
FC00
FC00
FC00
FC00
FC00
FC00
FC00
ENDCHAR
STARTCHAR uni0214
ENCODING 532
SWIDTH 812 0
DWIDTH 26 0
BBX 20 30 3 0
BITMAP
1F7800
0F3C00
079E00
01CF00
000000
000000
000000
FC03F0
FC03F0
FC03F0
FC03F0
FC03F0
FC03F0
FC03F0
FC03F0
FC03F0
FC03F0
FC03F0
FC03F0
FC03F0
FC03F0
FC03F0
FC03F0
FC03F0
FE07E0
7F0FE0
7FFFE0
3FFFC0
1FFF00
03FC00
ENDCHAR
STARTCHAR uni0215
ENCODING 533
SWIDTH 711 0
DWIDTH 23 0
BBX 18 26 3 0
BITMAP
79C000
39E000
3CE000
1C7000
0E7000
063800
000000
000000
FC0FC0
FC0FC0
FC0FC0
FC0FC0
FC0FC0
FC0FC0
FC0FC0
FC0FC0
FC0FC0
FC0FC0
FC0FC0
FC0FC0
FC1FC0
FE3FC0
7FFFC0
7FFFC0
3FEFC0
1F8FC0
ENDCHAR
STARTCHAR uni0216
ENCODING 534
SWIDTH 812 0
DWIDTH 26 0
BBX 20 30 3 0
BITMAP
00F000
03FC00
07BE00
060E00
000000
000000
000000
FC03F0
FC03F0
FC03F0
FC03F0
FC03F0
FC03F0
FC03F0
FC03F0
FC03F0
FC03F0
FC03F0
FC03F0
FC03F0
FC03F0
FC03F0
FC03F0
FC03F0
FE07E0
7F0FE0
7FFFE0
3FFFC0
1FFF00
03FC00
ENDCHAR
STARTCHAR uni0217
ENCODING 535
SWIDTH 711 0
DWIDTH 23 0
BBX 18 25 3 0
BITMAP
03E000
0FF800
0E3800
1C1C00
1C1C00
000000
000000
FC0FC0
FC0FC0
FC0FC0
FC0FC0
FC0FC0
FC0FC0
FC0FC0
FC0FC0
FC0FC0
FC0FC0
FC0FC0
FC0FC0
FC1FC0
FE3FC0
7FFFC0
7FFFC0
3FEFC0
1F8FC0
ENDCHAR
STARTCHAR uni0218
ENCODING 536
SWIDTH 720 0
DWIDTH 23 0
BBX 18 31 2 -8
BITMAP
07F800
1FFF00
7FFF00
7FFF00
FE0700
FC0100
FC0000
FC0000
FE0000
FFE000
7FFC00
3FFF00
1FFF80
03FFC0
003FC0
000FC0
000FC0
800FC0
F01FC0
FFFF80
FFFF80
FFFE00
0FF800
000000
000000
000000
01F000
01E000
01C000
03C000
038000
ENDCHAR
STARTCHAR uni0219
ENCODING 537
SWIDTH 595 0
DWIDTH 19 0
BBX 16 26 2 -8
BITMAP
0FE0
3FFC
7FFE
FFFE
F81E
F802
FF00
FFF8
7FFE
1FFE
01FF
001F
801F
F03F
FFFF
FFFE
7FFC
0FF0
0000
0000
0000
03C0
03C0
0780
0700
0700
ENDCHAR
STARTCHAR uni021A
ENCODING 538
SWIDTH 682 0
DWIDTH 22 0
BBX 22 31 0 -8
BITMAP
FFFFFC
FFFFFC
FFFFFC
FFFFFC
00FC00
00FC00
00FC00
00FC00
00FC00
00FC00
00FC00
00FC00
00FC00
00FC00
00FC00
00FC00
00FC00
00FC00
00FC00
00FC00
00FC00
00FC00
00FC00
000000
000000
000000
00F800
00F000
00F000
00E000
01C000
ENDCHAR
STARTCHAR uni021B
ENCODING 539
SWIDTH 478 0
DWIDTH 15 0
BBX 15 30 0 -8
BITMAP
1F80
1F80
1F80
1F80
FFFE
FFFE
FFFE
FFFE
1F80
1F80
1F80
1F80
1F80
1F80
1F80
1F80
1F80
1F80
1FFC
0FFC
0FFC
03FC
0000
0000
0000
03C0
03C0
0780
0780
0700
ENDCHAR
STARTCHAR uni021C
ENCODING 540
SWIDTH 690 0
DWIDTH 22 0
BBX 18 31 2 -7
BITMAP
03C000
1FFC00
3FFE00
7FFF00
7CFF80
603F80
401F80
001F80
001F80
001F80
003F00
00FE00
03FC00
0FF800
1FFE00
1FFF00
1E7F80
101F80
001FC0
001FC0
001FC0
003F80
007F80
00FF00
03FE00
1FFC00
FFF000
FFC000
FE0000
F80000
800000
ENDCHAR
STARTCHAR uni021D
ENCODING 541
SWIDTH 607 0
DWIDTH 19 0
BBX 15 25 2 -7
BITMAP
0FE0
3FF8
FFFC
FDFE
C07E
007E
007E
007C
00FC
03F8
0FF0
3FF8
3FFC
387E
003E
003E
007E
007E
01FC
07F8
3FF0
FFC0
FF00
F800
8000
ENDCHAR
STARTCHAR uni021E
ENCODING 542
SWIDTH 836 0
DWIDTH 27 0
BBX 21 30 3 0
BITMAP
070700
038E00
01FC00
01F800
000000
000000
000000
FC01F8
FC01F8
FC01F8
FC01F8
FC01F8
FC01F8
FC01F8
FC01F8
FC01F8
FFFFF8
FFFFF8
FFFFF8
FFFFF8
FC01F8
FC01F8
FC01F8
FC01F8
FC01F8
FC01F8
FC01F8
FC01F8
FC01F8
FC01F8
ENDCHAR
STARTCHAR uni021F
ENCODING 543
SWIDTH 711 0
DWIDTH 23 0
BBX 21 30 0 0
BITMAP
E0E000
71C000
3F8000
1F0000
000000
000000
1F8000
1F8000
1F8000
1F8000
1F8000
1F8000
1F8FC0
1FBFE0
1FFFF0
1FFFF0
1FE3F8
1FC1F8
1F81F8
1F81F8
1F81F8
1F81F8
1F81F8
1F81F8
1F81F8
1F81F8
1F81F8
1F81F8
1F81F8
1F81F8
ENDCHAR
STARTCHAR uni0220
ENCODING 544
SWIDTH 836 0
DWIDTH 27 0
BBX 21 29 3 -6
BITMAP
FC3F80
FCFFC0
FDFFE0
FFFFF0
FF87F0
FF03F8
FE01F8
FE01F8
FC01F8
FC01F8
FC01F8
FC01F8
FC01F8
FC01F8
FC01F8
FC01F8
FC01F8
FC01F8
FC01F8
FC01F8
FC01F8
FC01F8
FC01F8
0001F8
0001F8
0001F8
0001F8
0001F8
0001F8
ENDCHAR
STARTCHAR uni0221
ENCODING 545
SWIDTH 864 0
DWIDTH 28 0
BBX 25 26 1 -2
BITMAP
0003E000
0003E000
0003E000
0003E000
0003E000
0003E000
03C3E000
0FF3E000
1FFBE000
3FFFE000
7F0FE000
7E07E000
7E07E000
7C07E000
FC03E000
FC03EF00
FC03FF80
7C07FF80
7E07FF80
7F0FF980
3FFFFF80
3FFFFF80
1FFFFF00
0FFDFF00
0001C000
00018000
ENDCHAR
STARTCHAR uni0222
ENCODING 546
SWIDTH 809 0
DWIDTH 26 0
BBX 22 24 2 0
BITMAP
000E00
000FC0
000FF0
0FC3F8
3FC1F8
7F00F8
7C00F8
7C00F8
7E01F8
3F07F0
1FFFE0
07FF80
1FFFE0
3FFFF0
7E01F8
FC00FC
FC00FC
FC00FC
FC00FC
FE01FC
7F87F8
7FFFF8
3FFFE0
0FFF80
ENDCHAR
STARTCHAR uni0223
ENCODING 547
SWIDTH 658 0
DWIDTH 21 0
BBX 19 21 1 0
BITMAP
000040
7C07C0
7E0FC0
7E0FC0
7E0FC0
7E0FC0
3F1F80
1FFF00
07FC00
1FFF00
3FFF80
7E0FC0
7C07C0
FC07E0
FC07E0
FC07E0
7E0FC0
7F1FC0
3FFFC0
3FFF80
0FFE00
ENDCHAR
STARTCHAR uni0224
ENCODING 548
SWIDTH 725 0
DWIDTH 23 0
BBX 21 30 1 -7
BITMAP
7FFFF0
7FFFF0
7FFFF0
7FFFF0
0007E0
000FE0
001FC0
003F80
007F00
007E00
00FC00
01FC00
03F800
07F000
0FE000
0FC000
1FC000
3F8000
7FFFF8
FFFFF8
FFFFF8
FFFFF8
FFFFF8
0001F8
0001F8
0001F0
003FF0
003FE0
003FE0
003F80
ENDCHAR
STARTCHAR uni0225
ENCODING 549
SWIDTH 582 0
DWIDTH 19 0
BBX 16 25 1 -7
BITMAP
7FFF
7FFF
7FFF
7FFF
7FFF
007E
00FC
01F8
03F0
07E0
0FC0
1F80
3F00
7E00
FFFF
FFFF
FFFF
FFFF
003F
003F
003F
07FE
07FE
07FC
07F0
ENDCHAR
STARTCHAR uni0226
ENCODING 550
SWIDTH 773 0
DWIDTH 25 0
BBX 24 30 0 0
BITMAP
003C00
003C00
003C00
003C00
000000
000000
000000
00FF00
00FF00
00FF00
01FF80
01FF80
03FFC0
03FFC0
03FFC0
07FFE0
07E7E0
07E7E0
0FE7F0
0FC3F0
1FC3F8
1FFFF8
1FFFF8
3FFFFC
3FFFFC
3F00FC
7F00FE
7E007E
7E007E
FE007F
ENDCHAR
STARTCHAR uni0227
ENCODING 551
SWIDTH 674 0
DWIDTH 22 0
BBX 18 26 1 0
BITMAP
01F800
01F800
01F800
01F800
01F800
01F800
000000
000000
0FF800
3FFE00
3FFF00
3FFF80
301F80
000FC0
000FC0
0FFFC0
3FFFC0
7FFFC0
FE0FC0
FC0FC0
FC1FC0
FE3FC0
FFFFC0
7FFFC0
3FEFC0
1F8FC0
ENDCHAR
STARTCHAR uni0228
ENCODING 552
SWIDTH 683 0
DWIDTH 22 0
BBX 17 29 3 -6
BITMAP
FFFF80
FFFF80
FFFF80
FFFF80
FC0000
FC0000
FC0000
FC0000
FC0000
FFFF00
FFFF00
FFFF00
FFFF00
FC0000
FC0000
FC0000
FC0000
FC0000
FC0000
FFFF80
FFFF80
FFFF80
FFFF80
038000
018000
01C000
01C000
1FC000
1F8000
ENDCHAR
STARTCHAR uni0229
ENCODING 553
SWIDTH 678 0
DWIDTH 22 0
BBX 19 24 1 -6
BITMAP
03F800
0FFE00
1FFF00
3FFF80
7F1FC0
7E0FC0
FC07E0
FC07E0
FFFFE0
FFFFE0
FFFFE0
FC0000
7E0040
7F03C0
3FFFC0
3FFFC0
0FFF80
03FC00
00E000
007000
007000
007000
07F000
07E000
ENDCHAR
STARTCHAR uni022A
ENCODING 554
SWIDTH 850 0
DWIDTH 27 0
BBX 24 33 2 0
BITMAP
03FF00
03FF00
03FF00
000000
03C780
03C780
03C780
03C780
000000
000000
00FF00
07FFE0
0FFFF0
1FFFF8
3F83FC
7F00FE
7E007E
7E007E
FC003F
FC003F
FC003F
FC003F
FC003F
FC003F
FC003F
7E007E
7E007E
7F00FE
3F81FC
1FFFF8
0FFFF0
07FFE0
00FF00
ENDCHAR
STARTCHAR uni022B
ENCODING 555
SWIDTH 687 0
DWIDTH 22 0
BBX 19 29 1 0
BITMAP
07FE00
07FE00
07FE00
000000
0F1E00
0F1E00
0F1E00
0F1E00
000000
000000
000000
03F800
0FFE00
3FFF80
3FFF80
7F1FC0
7E0FC0
FC07E0
FC07E0
FC07E0
FC07E0
FC07E0
FC07E0
7E0FC0
7F1FC0
3FFF80
3FFF80
0FFE00
03F800
ENDCHAR
STARTCHAR uni022C
ENCODING 556
SWIDTH 850 0
DWIDTH 27 0
BBX 24 33 2 0
BITMAP
01FF80
01FF80
01FF80
000000
00F0C0
01F980
019F80
018700
000000
000000
00FF00
07FFE0
0FFFF0
1FFFF8
3F83FC
7F00FE
7E007E
7E007E
FC003F
FC003F
FC003F
FC003F
FC003F
FC003F
FC003F
7E007E
7E007E
7F00FE
3F81FC
1FFFF8
0FFFF0
07FFE0
00FF00
ENDCHAR
STARTCHAR uni022D
ENCODING 557
SWIDTH 687 0
DWIDTH 22 0
BBX 19 28 1 0
BITMAP
07FE00
07FE00
07FE00
000000
03C300
03E300
063F00
061E00
000000
000000
03F800
0FFE00
3FFF80
3FFF80
7F1FC0
7E0FC0
FC07E0
FC07E0
FC07E0
FC07E0
FC07E0
FC07E0
7E0FC0
7F1FC0
3FFF80
3FFF80
0FFE00
03F800
ENDCHAR
STARTCHAR uni022E
ENCODING 558
SWIDTH 850 0
DWIDTH 27 0
BBX 24 30 2 0
BITMAP
003C00
003C00
003C00
003C00
000000
000000
000000
00FF00
07FFE0
0FFFF0
1FFFF8
3F83FC
7F00FE
7E007E
7E007E
FC003F
FC003F
FC003F
FC003F
FC003F
FC003F
FC003F
7E007E
7E007E
7F00FE
3F81FC
1FFFF8
0FFFF0
07FFE0
00FF00
ENDCHAR
STARTCHAR uni022F
ENCODING 559
SWIDTH 687 0
DWIDTH 22 0
BBX 19 26 1 0
BITMAP
01F800
01F800
01F800
01F800
01F800
01F800
000000
000000
03F800
0FFE00
3FFF80
3FFF80
7F1FC0
7E0FC0
FC07E0
FC07E0
FC07E0
FC07E0
FC07E0
FC07E0
7E0FC0
7F1FC0
3FFF80
3FFF80
0FFE00
03F800
ENDCHAR
STARTCHAR uni0230
ENCODING 560
SWIDTH 850 0
DWIDTH 27 0
BBX 24 33 2 0
BITMAP
01FF80
01FF80
01FF80
000000
003C00
003C00
003C00
003C00
000000
000000
00FF00
07FFE0
0FFFF0
1FFFF8
3F83FC
7F00FE
7E007E
7E007E
FC003F
FC003F
FC003F
FC003F
FC003F
FC003F
FC003F
7E007E
7E007E
7F00FE
3F81FC
1FFFF8
0FFFF0
07FFE0
00FF00
ENDCHAR
STARTCHAR uni0231
ENCODING 561
SWIDTH 687 0
DWIDTH 22 0
BBX 19 29 1 0
BITMAP
07FE00
07FE00
07FE00
01F800
01F800
01F800
01F800
01F800
01F800
000000
000000
03F800
0FFE00
3FFF80
3FFF80
7F1FC0
7E0FC0
FC07E0
FC07E0
FC07E0
FC07E0
FC07E0
FC07E0
7E0FC0
7F1FC0
3FFF80
3FFF80
0FFE00
03F800
ENDCHAR
STARTCHAR uni0232
ENCODING 562
SWIDTH 724 0
DWIDTH 23 0
BBX 24 29 0 0
BITMAP
01FF80
01FF80
01FF80
000000
000000
000000
FF00FF
7F00FE
3F81FC
3FC3FC
1FC3F8
0FE7F0
0FFFF0
07FFE0
03FFC0
03FFC0
01FF80
00FF00
00FF00
007E00
007E00
007E00
007E00
007E00
007E00
007E00
007E00
007E00
007E00
ENDCHAR
STARTCHAR uni0233
ENCODING 563
SWIDTH 651 0
DWIDTH 21 0
BBX 20 31 0 -7
BITMAP
07FE00
07FE00
07FE00
000000
000000
000000
FE07F0
7E07E0
7F07E0
7F0FE0
3F0FC0
3F9FC0
1F9FC0
1FDF80
0FFF80
0FFF00
0FFF00
07FF00
07FE00
03FE00
03FC00
01FC00
01FC00
01F800
01F800
03F800
07F000
1FF000
1FE000
1FC000
1F8000
ENDCHAR
STARTCHAR uni0234
ENCODING 564
SWIDTH 491 0
DWIDTH 16 0
BBX 11 26 3 -2
BITMAP
F800
F800
F800
F800
F800
F800
F800
F800
F800
F800
F800
F800
F800
F800
F800
FBC0
FFE0
FFE0
FFE0
FE60
FFE0
7FE0
7FE0
7FC0
7000
6000
ENDCHAR
STARTCHAR uni0235
ENCODING 565
SWIDTH 866 0
DWIDTH 28 0
BBX 23 20 3 -2
BITMAP
F87C00
F9FE00
FBFF00
FFFF80
FF3F80
FC1F80
FC1F80
F80F80
F80F80
F80FBC
F80FFE
F80FFE
F80FFE
F80FE6
F80FFE
F807FE
F807FE
F807FC
000700
000600
ENDCHAR
STARTCHAR uni0236
ENCODING 566
SWIDTH 511 0
DWIDTH 16 0
BBX 15 24 0 -2
BITMAP
1F80
1F80
1F80
1F80
FFFE
FFFE
FFFE
FFFE
FFFE
1F80
1F80
1F80
1F80
1FFC
1FFE
1FFE
1FFE
1FCE
1FFE
0FFE
0FFC
07F8
0E00
0E00
ENDCHAR
STARTCHAR uni0237
ENCODING 567
SWIDTH 342 0
DWIDTH 11 0
BBX 10 25 -1 -7
BITMAP
0FC0
0FC0
0FC0
0FC0
0FC0
0FC0
0FC0
0FC0
0FC0
0FC0
0FC0
0FC0
0FC0
0FC0
0FC0
0FC0
0FC0
0FC0
0FC0
0FC0
1FC0
FF80
FF80
FF00
FC00
ENDCHAR
STARTCHAR uni0238
ENCODING 568
SWIDTH 1087 0
DWIDTH 35 0
BBX 32 24 1 0
BITMAP
0003E000
0003E000
0003E000
0003E000
0003E000
0003E000
03C3E3E0
0FF3E7F8
1FFBEFFC
3FFFFFFE
7F0FF87E
7E07F03F
7E07F03F
7C07E03F
FC03E01F
FC03E01F
FC03E01F
7C07E03F
7E07F03F
7F0FF87F
3FFFFFFE
3FFFFFFE
1FFBEFFC
0FE3E7F0
ENDCHAR
STARTCHAR uni0239
ENCODING 569
SWIDTH 1087 0
DWIDTH 35 0
BBX 32 25 1 -7
BITMAP
03C3E3E0
0FF3E7F8
1FFBEFFC
3FFFFFFE
7F0FF87E
7E07F03F
7E07F03F
7C07E03F
FC03E01F
FC03E01F
FC03E01F
7C07E03F
7E07F03F
7F0FF87F
3FFFFFFE
3FFFFFFE
1FFBEFFC
0FE3E7F0
0003E000
0003E000
0003E000
0003E000
0003E000
0003E000
0003E000
ENDCHAR
STARTCHAR uni023A
ENCODING 570
SWIDTH 773 0
DWIDTH 25 0
BBX 25 25 0 -1
BITMAP
00000300
00FF0780
00FF8F00
00FF9E00
01FFBC00
01FFF800
01F7F000
03F7E000
03F7E000
03E7E000
07EFF000
07FFF000
0FFDF000
0FF9F800
0FF1F800
1FFFF800
1FFFFC00
1FFFFC00
3FFFFE00
3FFFFE00
7E007E00
7E003F00
FE003F00
FC003F00
40000000
ENDCHAR
STARTCHAR uni023B
ENCODING 571
SWIDTH 733 0
DWIDTH 23 0
BBX 25 25 -1 -1
BITMAP
000F8180
007FFB80
01FFFF00
03FFFE00
07FFFC00
0FF03C00
0FE07000
1FC0E000
1F81C000
1F838000
1F870000
1F8E0000
1F9C0000
1FB80000
1FF00000
1FE00000
1FC00000
1FC00000
0FE00400
0FF81C00
1FFFFC00
3BFFFC00
70FFFC00
E03FF800
40000000
ENDCHAR
STARTCHAR uni023C
ENCODING 572
SWIDTH 592 0
DWIDTH 19 0
BBX 19 20 0 -1
BITMAP
000040
00FEE0
07FFC0
0FFF80
1FFF80
3FCF80
3F1E00
3F3C00
7E3800
7E7000
7EE000
7FC000
3F8000
3F0000
3F8080
1FFF80
3FFF80
77FF80
E3FF80
C00000
ENDCHAR
STARTCHAR uni023D
ENCODING 573
SWIDTH 637 0
DWIDTH 20 0
BBX 20 23 0 0
BITMAP
1F8000
1F8000
1F8000
1F8000
1F8000
1F8000
1F8000
1F8000
1F8000
FFF000
FFF000
FFF000
FFF000
1F8000
1F8000
1F8000
1F8000
1F8000
1F8000
1FFFF0
1FFFF0
1FFFF0
1FFFF0
ENDCHAR
STARTCHAR uni023E
ENCODING 574
SWIDTH 682 0
DWIDTH 22 0
BBX 26 25 -2 -1
BITMAP
00000180
3FFFFFC0
3FFFFF80
3FFFFF00
3FFFFF00
003F3C00
003F7800
003FF000
003FE000
003FC000
003F8000
003F0000
003F0000
003F0000
007F0000
00FF0000
01FF0000
03FF0000
07BF0000
0F3F0000
1E3F0000
3C3F0000
783F0000
F03F0000
60000000
ENDCHAR
STARTCHAR uni023F
ENCODING 575
SWIDTH 595 0
DWIDTH 19 0
BBX 17 26 2 -8
BITMAP
0FF000
7FFC00
FFFC00
FFFC00
F80C00
F80000
F80000
FFC000
FFF800
7FFE00
1FFE00
007E00
003F00
803E00
F8FE00
FFFE00
FFFC00
FFF800
3F0000
1F8000
07E000
03F000
01FF80
00FF80
003F80
000780
ENDCHAR
STARTCHAR uni0240
ENCODING 576
SWIDTH 582 0
DWIDTH 19 0
BBX 18 26 1 -8
BITMAP
7FFF00
7FFF00
7FFF00
7FFF00
7FFF00
007E00
00FC00
01F800
03F000
07E000
0FC000
1F8000
3F0000
7E0000
FC0000
F80000
FC0000
FF0000
3F8000
0FC000
07F000
01F800
00FFC0
007FC0
001FC0
0003C0
ENDCHAR
STARTCHAR uni0241
ENCODING 577
SWIDTH 781 0
DWIDTH 25 0
BBX 23 23 1 0
BITMAP
3FFFC0
7FFFF0
7FFFF8
FFFFFC
F801FC
F000FE
0000FE
0000FE
0000FE
0000FC
0007FC
01FFFC
01FFF8
01FFF0
01FF80
01F800
01F800
01F800
01F800
01F800
01F800
01F800
01F800
ENDCHAR
STARTCHAR uni0242
ENCODING 578
SWIDTH 614 0
DWIDTH 20 0
BBX 17 18 1 0
BITMAP
0FE000
3FFC00
7FFE00
7FFF00
7EFF80
FC3F80
F81F80
001F80
001F80
001F80
003F80
07FF00
07FF00
07FE00
07F800
07E000
07E000
07E000
ENDCHAR
STARTCHAR uni0243
ENCODING 579
SWIDTH 762 0
DWIDTH 24 0
BBX 22 23 0 0
BITMAP
1FFF80
1FFFE0
1FFFF0
1FFFF8
1F83F8
1F81F8
1F81F8
1F81F8
1F83F0
1FFFF0
1FFFE0
1FFFF0
1FFFF8
1F81F8
FFF8FC
FFF8FC
FFF8FC
1F80FC
1F81FC
1FFFF8
1FFFF8
1FFFF0
1FFF80
ENDCHAR
STARTCHAR uni0244
ENCODING 580
SWIDTH 812 0
DWIDTH 26 0
BBX 24 23 1 0
BITMAP
3F00FC
3F00FC
3F00FC
3F00FC
3F00FC
3F00FC
3F00FC
3F00FC
3F00FC
FFFFFF
FFFFFF
FFFFFF
3F00FC
3F00FC
3F00FC
3F00FC
3F00FC
1F81F8
1FC3F8
1FFFF8
0FFFF0
03FFE0
00FF00
ENDCHAR
STARTCHAR uni0245
ENCODING 581
SWIDTH 773 0
DWIDTH 25 0
BBX 24 23 0 0
BITMAP
00FF00
00FF00
00FF00
01FF80
01FF80
03FFC0
03FFC0
03FFC0
07FFE0
07E7E0
07E7E0
0FE7F0
0FC3F0
1FC3F8
1FC3F8
1F81F8
3F81FC
3F00FC
3F00FC
7F00FE
7E007E
7E007E
FE007F
ENDCHAR
STARTCHAR uni0246
ENCODING 582
SWIDTH 683 0
DWIDTH 22 0
BBX 17 29 3 -3
BITMAP
000700
000600
000E00
FFFF00
FFFF00
FFFF00
FFFF00
FC1C00
FC1800
FC3800
FC3800
FC3000
FFFF00
FFFF00
FFFF00
FFFF00
FCE000
FCE000
FCC000
FDC000
FDC000
FFFF80
FFFF80
FFFF80
FFFF80
FFFF80
070000
070000
060000
ENDCHAR
STARTCHAR uni0247
ENCODING 583
SWIDTH 678 0
DWIDTH 22 0
BBX 19 23 1 -3
BITMAP
000380
000700
01FF00
0FFE00
1FFF80
3FFF80
7F1FC0
7E3FE0
7C3FE0
FFFFE0
FFFFE0
FFFFE0
FFFFE0
7DC000
7F8000
7F8040
3F87C0
3FFFC0
0FFFC0
0FFF80
0C0000
1C0000
180000
ENDCHAR
STARTCHAR uni0248
ENCODING 584
SWIDTH 372 0
DWIDTH 12 0
BBX 14 29 -2 -6
BITMAP
07E0
07E0
07E0
07E0
07E0
07E0
07E0
07E0
07E0
07E0
3FFC
3FFC
3FFC
3FFC
07E0
07E0
07E0
07E0
07E0
07E0
07E0
07E0
07E0
0FE0
1FC0
FFC0
FF80
FF00
F800
ENDCHAR
STARTCHAR uni0249
ENCODING 585
SWIDTH 342 0
DWIDTH 11 0
BBX 13 31 -1 -7
BITMAP
0FC0
0FC0
0FC0
0FC0
0000
0000
0FC0
0FC0
0FC0
0FC0
0FC0
0FC0
0FC0
0FC0
7FF8
7FF8
7FF8
0FC0
0FC0
0FC0
0FC0
0FC0
0FC0
0FC0
0FC0
0FC0
1FC0
FF80
FF80
FF00
FC00
ENDCHAR
STARTCHAR uni024A
ENCODING 586
SWIDTH 860 0
DWIDTH 28 0
BBX 28 30 2 -6
BITMAP
01E00000
07FC7E00
1FFE7E00
3FFF7E00
3FFFFE00
7F03FE00
7E01FE00
FE00FE00
FC00FE00
FC007E00
FC007E00
FC007E00
FC007E00
FC007E00
FC007E00
FC007E00
FC00FE00
FE00FE00
7F01FE00
7F83FE00
3FFFFE00
1FFF7E00
0FFE7E00
07FC7E00
00007E00
00007F80
00003FF0
00001FF0
00000FF0
000007F0
ENDCHAR
STARTCHAR uni024B
ENCODING 587
SWIDTH 791 0
DWIDTH 25 0
BBX 25 25 1 -7
BITMAP
03C3E000
0FF3E000
1FFBE000
3FFFE000
7F0FE000
7E07E000
7E07E000
7C07E000
FC03E000
FC03E000
FC03E000
7C07E000
7E07E000
7F0FE000
3FFFE000
3FFFE000
1FFBE000
0FE3E000
0003E000
0003E000
0003F000
0003FF80
0001FF80
0000FF80
00003F80
ENDCHAR
STARTCHAR uni024C
ENCODING 588
SWIDTH 770 0
DWIDTH 25 0
BBX 24 23 0 0
BITMAP
1FFF00
1FFFE0
1FFFF0
1FFFF0
1F83F8
1F81F8
1F81F8
1F81F8
1F81F8
1F81F8
1F83F0
FFFFE0
FFFFC0
FFFFC0
FFFFE0
1F87F0
1F83F0
1F83F8
1F81FC
1F81FC
1F80FE
1F80FE
1F807F
ENDCHAR
STARTCHAR uni024D
ENCODING 589
SWIDTH 493 0
DWIDTH 16 0
BBX 16 18 0 0
BITMAP
1F8F
1FBF
1FFF
1FFF
1FE1
1FC0
1FC0
1F80
FFF0
FFF0
FFF0
FFF0
1F80
1F80
1F80
1F80
1F80
1F80
ENDCHAR
STARTCHAR uni024E
ENCODING 590
SWIDTH 724 0
DWIDTH 23 0
BBX 23 23 0 0
BITMAP
FE00FE
7E00FC
3F01FC
FFFFFE
FFFFFE
FFFFFE
0FE7E0
07EFC0
07FFC0
03FF80
01FF00
01FF00
00FE00
007E00
007E00
007E00
007E00
007E00
007E00
007E00
007E00
007E00
007E00
ENDCHAR
STARTCHAR uni024F
ENCODING 591
SWIDTH 651 0
DWIDTH 21 0
BBX 21 25 0 -7
BITMAP
FC01F0
7C03F0
7E03F0
3E03E0
3F07E0
1F07C0
1F07C0
FFFFF8
FFFFF8
FFFFF8
07DF00
07DF00
03FF00
03FE00
03FE00
01FE00
01FC00
00FC00
00F800
00F800
01F800
1FF000
1FE000
1FE000
1F8000
ENDCHAR
STARTCHAR uni0250
ENCODING 592
SWIDTH 674 0
DWIDTH 22 0
BBX 18 18 3 0
BITMAP
FC7E00
FDFF00
FFFF80
FFFFC0
FF1FC0
FE0FC0
FC0FC0
FC1FC0
FFFF80
FFFF00
FFFC00
FC0000
FC0000
FE0300
7FFF00
3FFF00
1FFF00
07FC00
ENDCHAR
STARTCHAR uni0251
ENCODING 593
SWIDTH 715 0
DWIDTH 23 0
BBX 19 18 1 0
BITMAP
07C7E0
1FF7E0
3FFFE0
7FFFE0
7F1FE0
FE0FE0
FC07E0
FC07E0
FC07E0
FC07E0
FC07E0
FC07E0
FE0FE0
7F1FE0
7FFFE0
3FFFE0
1FF7E0
07C7E0
ENDCHAR
STARTCHAR uni0252
ENCODING 594
SWIDTH 715 0
DWIDTH 23 0
BBX 19 18 3 0
BITMAP
FC7C00
FDFF00
FFFF80
FFFFC0
FF1FC0
FE0FE0
FC07E0
FC07E0
FC07E0
FC07E0
FC07E0
FC07E0
FE0FE0
FF1FC0
FFFFC0
FFFF80
FDFF00
FC7C00
ENDCHAR
STARTCHAR uni0253
ENCODING 595
SWIDTH 715 0
DWIDTH 23 0
BBX 19 24 3 0
BITMAP
0FE000
3FE000
7FE000
7FE000
FE0000
FC0000
FC7C00
FDFF00
FFFF80
FFFFC0
FF1FC0
FE0FE0
FC07E0
FC07E0
FC07E0
FC07E0
FC07E0
FC07E0
FE0FE0
FF1FC0
FFFFC0
FFFF80
FDFF00
FC7C00
ENDCHAR
STARTCHAR uni0254
ENCODING 596
SWIDTH 592 0
DWIDTH 17 0
BBX 15 18 1 0
BITMAP
1F80
7FE0
FFF8
FFF8
E1FC
80FC
007E
007E
007E
007E
007E
007E
80FC
C1FC
FFF8
FFF8
7FE0
1F80
ENDCHAR
STARTCHAR uni0255
ENCODING 597
SWIDTH 592 0
DWIDTH 19 0
BBX 15 20 1 -2
BITMAP
03FC
0FFE
1FFE
3FFE
7F06
7E02
FC00
FC00
FC78
FCFC
FFFE
FFFE
FFC6
7F86
7FFE
3FFC
1FFC
07F0
0700
0700
ENDCHAR
STARTCHAR uni0256
ENCODING 598
SWIDTH 716 0
DWIDTH 23 0
BBX 23 31 1 -7
BITMAP
0007E0
0007E0
0007E0
0007E0
0007E0
0007E0
07C7E0
1FF7E0
3FFFE0
7FFFE0
7F1FE0
FE0FE0
FC07E0
FC07E0
FC07E0
FC07E0
FC07E0
FC07E0
FE0FE0
7F1FE0
7FFFE0
3FFFE0
1FF7E0
07C7E0
0007E0
0007E0
0003F0
0003FE
0001FE
0001FE
00007E
ENDCHAR
STARTCHAR uni0257
ENCODING 599
SWIDTH 791 0
DWIDTH 25 0
BBX 24 24 1 0
BITMAP
00007F
0001FF
0003FF
0003FF
0007F0
0007E0
07C7E0
1FF7E0
3FFFE0
7FFFE0
7F1FE0
FE0FE0
FC07E0
FC07E0
FC07E0
FC07E0
FC07E0
FC07E0
FE0FE0
7F1FE0
7FFFE0
3FFFE0
1FF7E0
07C7E0
ENDCHAR
STARTCHAR uni0258
ENCODING 600
SWIDTH 678 0
DWIDTH 22 0
BBX 19 18 1 0
BITMAP
03F800
0FFE00
1FFF80
3FFF80
7E0FC0
7E07E0
7C07E0
FFFFE0
FFFFE0
FFFFE0
FFFFE0
0007E0
0007E0
600FC0
7C1FC0
7FFF80
7FFF00
1FFC00
ENDCHAR
STARTCHAR uni0259
ENCODING 601
SWIDTH 678 0
DWIDTH 22 0
BBX 19 18 1 0
BITMAP
07F800
3FFE00
7FFF00
7FFF80
781FC0
400FC0
0007E0
FFFFE0
FFFFE0
FFFFE0
FC07E0
FC07E0
7E0FC0
7F1FC0
3FFF80
1FFF00
0FFE00
03F800
ENDCHAR
STARTCHAR uni025A
ENCODING 602
SWIDTH 875 0
DWIDTH 28 0
BBX 26 18 2 0
BITMAP
0FF00000
FFFC1E00
FFFF3E00
FFFFFE00
E01FFE00
800FFE00
001FCE00
007FCE00
01FFCFC0
03FFC7C0
0FEFC3C0
3F8FC000
FE0FC000
FC1F8000
7E3F8000
7FFF0000
3FFE0000
0FF80000
ENDCHAR
STARTCHAR uni025B
ENCODING 603
SWIDTH 556 0
DWIDTH 18 0
BBX 14 18 1 0
BITMAP
1FC0
7FF0
FFF8
FFF8
FE18
FC08
7E00
7FE0
1FE0
7FE0
FE00
FC00
FC04
FE0C
FFFC
7FFC
3FF8
0FE0
ENDCHAR
STARTCHAR uni025C
ENCODING 604
SWIDTH 544 0
DWIDTH 17 0
BBX 14 18 2 0
BITMAP
3FC0
7FF0
7FF8
7FF8
00F8
00F8
00F8
1FF0
1FC0
1FF0
1FF8
00FC
007C
00FC
C1FC
FFF8
FFF0
FFE0
ENDCHAR
STARTCHAR uni025D
ENCODING 605
SWIDTH 814 0
DWIDTH 26 0
BBX 23 18 2 0
BITMAP
3FC000
7FF0E0
7FFBE0
7FFFE0
00FFE0
00FFE0
00FCE0
1FF0F0
1FC0FE
1FF07E
1FF83E
00FC00
007C00
00FC00
C1FC00
FFF800
FFF000
FFE000
ENDCHAR
STARTCHAR uni025E
ENCODING 606
SWIDTH 731 0
DWIDTH 23 0
BBX 19 18 2 0
BITMAP
01FE00
0FFF80
3FFFC0
7FFFE0
7F07E0
FE03E0
FC07C0
FCFFC0
FCFF00
FCFFC0
FCFFE0
FC03E0
FC03E0
7E03E0
7F0FE0
3FFFE0
1FFFC0
07FF00
ENDCHAR
STARTCHAR uni025F
ENCODING 607
SWIDTH 342 0
DWIDTH 11 0
BBX 13 25 -1 -7
BITMAP
0F80
0F80
0F80
0F80
0F80
0F80
0F80
0F80
FFF8
FFF8
FFF8
0F80
0F80
0F80
0F80
0F80
0F80
0F80
0F80
0F80
1F80
FF80
FF00
FE00
F800
ENDCHAR
STARTCHAR uni0260
ENCODING 608
SWIDTH 791 0
DWIDTH 25 0
BBX 24 31 1 -7
BITMAP
00007F
0001FF
0003FF
0003FF
0007F0
0007E0
07C7E0
1FF7E0
3FFFE0
7FFFE0
7F1FE0
FE0FE0
FC07E0
FC07E0
FC07E0
FC07E0
FC07E0
FC07E0
FE0FE0
7F1FE0
7FFFE0
3FFFE0
1FF7E0
07C7E0
0007E0
200FC0
381FC0
3FFF80
3FFF80
1FFE00
07F800
ENDCHAR
STARTCHAR uni0261
ENCODING 609
SWIDTH 715 0
DWIDTH 23 0
BBX 19 25 1 -7
BITMAP
00FFE0
0FFFE0
1FFFE0
3FFFE0
7F03E0
7E03E0
7E03E0
7C03E0
FC03E0
FC03E0
7C07E0
7E07E0
7E07E0
7F0FE0
3FFFE0
1FFBE0
0FF3E0
07E7E0
0007E0
0007E0
180FC0
1FFFC0
1FFF80
1FFE00
07F800
ENDCHAR
STARTCHAR uni0262
ENCODING 610
SWIDTH 627 0
DWIDTH 20 0
BBX 16 17 1 0
BITMAP
07FE
1FFF
3FFF
3E03
7C00
7800
7800
F8FF
F8FF
F8FF
78FF
780F
7C0F
3E0F
3FFF
1FFF
07FE
ENDCHAR
STARTCHAR uni0263
ENCODING 611
SWIDTH 643 0
DWIDTH 22 0
BBX 20 25 1 -7
BITMAP
FE07F0
7F0FE0
7F0FE0
3F9FC0
1FFF80
1FFF80
0FFF00
0FFF00
07FE00
07FE00
03FC00
03FC00
03FC00
07FE00
07FE00
0FFF00
0FFF00
1FFF80
1F9F80
1F9F80
1F9F80
0FFF80
0FFF00
07FE00
01FC00
ENDCHAR
STARTCHAR uni0264
ENCODING 612
SWIDTH 635 0
DWIDTH 20 0
BBX 19 19 1 -1
BITMAP
FC07E0
7C0FC0
7E1F80
3F1F00
1FBF00
0FFE00
0FFC00
07F800
03F800
07F800
0FFC00
0FFE00
1FBE00
1F3E00
1FBE00
1FFE00
0FFE00
07FC00
00E000
ENDCHAR
STARTCHAR uni0265
ENCODING 613
SWIDTH 711 0
DWIDTH 23 0
BBX 18 25 3 -7
BITMAP
FC0FC0
FC0FC0
FC0FC0
FC0FC0
FC0FC0
FC0FC0
FC0FC0
FC0FC0
FC0FC0
FC0FC0
FC0FC0
FC0FC0
FC1FC0
FE3FC0
7FFFC0
7FFFC0
3FEFC0
1F8FC0
000FC0
000FC0
000FC0
000FC0
000FC0
000FC0
000FC0
ENDCHAR
STARTCHAR uni0266
ENCODING 614
SWIDTH 711 0
DWIDTH 23 0
BBX 17 24 3 0
BITMAP
1FE000
7FE000
7FE000
FE0000
FC0000
F80000
F87C00
F9FE00
FBFF00
FFFF80
FF3F80
FC1F80
FC1F80
F80F80
F80F80
F80F80
F80F80
F80F80
F80F80
F80F80
F80F80
F80F80
F80F80
F80F80
ENDCHAR
STARTCHAR uni0267
ENCODING 615
SWIDTH 711 0
DWIDTH 23 0
BBX 17 31 3 -7
BITMAP
1FE000
7FE000
7FE000
FE0000
FC0000
F80000
F87C00
F9FE00
FBFF00
FFFF80
FF3F80
FC1F80
FC1F80
F80F80
F80F80
F80F80
F80F80
F80F80
F80F80
F80F80
F80F80
F80F80
F80F80
F80F80
000F80
001F80
001F80
03FF80
03FF00
03FE00
03F800
ENDCHAR
STARTCHAR uni0268
ENCODING 616
SWIDTH 545 0
DWIDTH 17 0
BBX 12 24 0 0
BITMAP
1F80
1F80
1F80
1F80
0000
0000
1F80
1F80
1F80
1F80
1F80
1F80
1F80
1F80
FFF0
FFF0
FFF0
FFF0
1F80
1F80
1F80
1F80
1F80
1F80
ENDCHAR
STARTCHAR uni0269
ENCODING 617
SWIDTH 440 0
DWIDTH 14 0
BBX 9 18 3 0
BITMAP
FC00
FC00
FC00
FC00
FC00
FC00
FC00
FC00
FC00
FC00
FC00
FC00
FC00
FE00
7F80
7F80
3F80
0F80
ENDCHAR
STARTCHAR uni026A
ENCODING 618
SWIDTH 545 0
DWIDTH 17 0
BBX 12 18 3 0
BITMAP
FFF0
FFF0
FFF0
FFF0
1F80
1F80
1F80
1F80
1F80
1F80
1F80
1F80
1F80
1F80
FFF0
FFF0
FFF0
FFF0
ENDCHAR
STARTCHAR uni026B
ENCODING 619
SWIDTH 558 0
DWIDTH 18 0
BBX 12 24 3 0
BITMAP
1F80
1F80
1F80
1F80
1F80
1F80
1F80
1F80
1F80
1F80
7FB0
FFF0
FFF0
DFE0
1F80
1F80
1F80
1F80
1F80
1F80
1F80
1F80
1F80
1F80
ENDCHAR
STARTCHAR uni026C
ENCODING 620
SWIDTH 693 0
DWIDTH 22 0
BBX 17 24 3 0
BITMAP
00F800
00F800
00F800
00F800
00F800
04F800
7FF800
FFF800
FFF800
E1F800
E1F800
FFFF80
FFFF80
7FFF80
0FFF80
00F800
00F800
00F800
00F800
00F800
00F800
00F800
00F800
00F800
ENDCHAR
STARTCHAR uni026D
ENCODING 621
SWIDTH 342 0
DWIDTH 11 0
BBX 11 31 3 -7
BITMAP
F800
F800
F800
F800
F800
F800
F800
F800
F800
F800
F800
F800
F800
F800
F800
F800
F800
F800
F800
F800
F800
F800
F800
F800
F800
FC00
FC00
FFE0
7FE0
3FE0
0FE0
ENDCHAR
STARTCHAR uni026E
ENCODING 622
SWIDTH 841 0
DWIDTH 27 0
BBX 22 31 3 -7
BITMAP
F80000
F80000
F80000
F80000
F80000
F80000
FFFFF8
FFFFF8
FFFFF8
FFFFF8
FFFFF0
F807E0
F80FE0
F81FC0
F83F80
F87F00
F8FE00
F8FF80
F8FFF0
F8FFF8
F807FC
F801FC
F800FC
F800FC
0000FC
0400FC
0783FC
07FFF8
07FFF0
07FFE0
00FF00
ENDCHAR
STARTCHAR uni026F
ENCODING 623
SWIDTH 1041 0
DWIDTH 33 0
BBX 28 17 3 0
BITMAP
F81F03F0
F81F03F0
F81F03F0
F81F03F0
F81F03F0
F81F03F0
F81F03F0
F81F03F0
F81F03F0
F81F03F0
F83F03F0
F83F87F0
FC7F87F0
FFFFFFF0
FFEFFFF0
7FCFFBF0
3F87F3F0
ENDCHAR
STARTCHAR uni0270
ENCODING 624
SWIDTH 1041 0
DWIDTH 33 0
BBX 28 24 3 -7
BITMAP
F81F03F0
F81F03F0
F81F03F0
F81F03F0
F81F03F0
F81F03F0
F81F03F0
F81F03F0
F81F03F0
F81F03F0
F83F03F0
F83F87F0
FC7F87F0
FFFFFFF0
FFEFFFF0
7FCFFBF0
3F87F3F0
000003F0
000003F0
000003F0
000003F0
000003F0
000003F0
000003F0
ENDCHAR
STARTCHAR uni0271
ENCODING 625
SWIDTH 1041 0
DWIDTH 33 0
BBX 28 25 3 -7
BITMAP
F8F81F00
F9FE3FC0
FBFE7FE0
FFFFFFE0
FF3FE7E0
FC1FC3F0
FC1F83F0
F81F83F0
F81F83F0
F81F83F0
F81F83F0
F81F83F0
F81F83F0
F81F83F0
F81F83F0
F81F83F0
F81F83F0
F81F83F0
000003F0
000003F0
000003E0
00007FE0
00007FE0
00007FC0
00007F00
ENDCHAR
STARTCHAR uni0272
ENCODING 626
SWIDTH 711 0
DWIDTH 23 0
BBX 22 24 -1 -6
BITMAP
0FC7E0
0FDFF0
0FFFF8
0FFFF8
0FF1FC
0FE0FC
0FC0FC
0FC0FC
0FC0FC
0FC0FC
0FC0FC
0FC0FC
0FC0FC
0FC0FC
0FC0FC
0FC0FC
0FC0FC
0FC0FC
0FC000
1FC000
FFC000
FF8000
FF0000
FC0000
ENDCHAR
STARTCHAR uni0273
ENCODING 627
SWIDTH 792 0
DWIDTH 25 0
BBX 23 25 3 -7
BITMAP
F87C00
F9FE00
FBFF00
FFFF80
FF3F80
FC1F80
FC1F80
F80F80
F80F80
F80F80
F80F80
F80F80
F80F80
F80F80
F80F80
F80F80
F80F80
F80F80
000F80
000F80
000FC0
000FFE
0007FE
0003FE
0000FE
ENDCHAR
STARTCHAR uni0274
ENCODING 628
SWIDTH 706 0
DWIDTH 23 0
BBX 17 18 3 0
BITMAP
FE1F80
FF1F80
FF1F80
FF1F80
FF9F80
FF9F80
FFDF80
FFDF80
FFFF80
FDFF80
FDFF80
FDFF80
FCFF80
FCFF80
FC7F80
FC7F80
FC3F80
FC3F80
ENDCHAR
STARTCHAR uni0275
ENCODING 629
SWIDTH 687 0
DWIDTH 22 0
BBX 19 18 1 0
BITMAP
03F800
0FFE00
3FFF80
3FFF80
7F1FC0
7E0FC0
FC07E0
FFFFE0
FFFFE0
FFFFE0
FC07E0
FC07E0
7E0FC0
7F1FC0
3FFF80
3FFF80
0FFE00
03F800
ENDCHAR
STARTCHAR uni0276
ENCODING 630
SWIDTH 908 0
DWIDTH 29 0
BBX 25 18 1 0
BITMAP
003FFF80
07FFFF80
1FFFFF80
3FFFFF80
3F07E000
7E07E000
7C07E000
FC07FF80
FC07FF80
FC07FF80
FC07FF80
7C07E000
7E07E000
7F07E000
3FE7E000
1FFFFF80
0FFFFF80
01FFFF80
ENDCHAR
STARTCHAR uni0277
ENCODING 631
SWIDTH 681 0
DWIDTH 22 0
BBX 18 18 2 0
BITMAP
07F800
1FFE00
3FFF00
7FFF80
7E1F80
FC0FC0
FC0FC0
FC0FC0
F80FC0
F9EFC0
FDEFC0
FDEFC0
FDEFC0
FDEFC0
FFFFC0
7F7F80
7F3F00
1E1E00
ENDCHAR
STARTCHAR uni0278
ENCODING 632
SWIDTH 796 0
DWIDTH 25 0
BBX 21 31 2 -7
BITMAP
00F800
00F800
00F800
00F800
00F800
00F800
03FF00
1FFFC0
3FFFE0
7FFFF0
7FFFF0
FEF9F8
FCF9F8
FCF8F8
FCF8F8
FCF8F8
FCF8F8
FCF9F8
FCF9F8
7EFBF0
7FFFF0
3FFFE0
1FFFC0
07FF80
00F800
00F800
00F800
00F800
00F800
00F800
00F800
ENDCHAR
STARTCHAR uni0279
ENCODING 633
SWIDTH 538 0
DWIDTH 17 0
BBX 13 18 3 0
BITMAP
01F8
01F8
01F8
01F8
01F8
01F8
01F8
01F8
01F8
01F8
01F8
01F8
03F8
07F8
FFF8
FFF8
FDF8
F9F8
ENDCHAR
STARTCHAR uni027A
ENCODING 634
SWIDTH 538 0
DWIDTH 17 0
BBX 13 24 3 0
BITMAP
01F8
01F8
01F8
01F8
01F8
01F8
01F8
01F8
01F8
01F8
01F8
01F8
01F8
01F8
01F8
01F8
01F8
01F8
03F8
07F8
FFF8
FFF8
FDF8
F9F8
ENDCHAR
STARTCHAR uni027B
ENCODING 635
SWIDTH 649 0
DWIDTH 21 0
BBX 18 25 3 -7
BITMAP
01F800
01F800
01F800
01F800
01F800
01F800
01F800
01F800
01F800
01F800
01F800
01F800
03F800
07F800
FFF800
FFF800
FDF800
F9F800
01F800
01F800
01F800
00FFC0
00FFC0
007FC0
001FC0
ENDCHAR
STARTCHAR uni027C
ENCODING 636
SWIDTH 493 0
DWIDTH 16 0
BBX 13 25 3 -7
BITMAP
F878
F9F8
FBF8
FFF8
FFF8
FE00
FC00
FC00
F800
F800
F800
F800
F800
F800
F800
F800
F800
F800
F800
F800
F800
F800
F800
F800
F800
ENDCHAR
STARTCHAR uni027D
ENCODING 637
SWIDTH 493 0
DWIDTH 16 0
BBX 13 25 3 -7
BITMAP
FC78
FDF8
FFF8
FFF8
FF08
FE00
FE00
FC00
FC00
FC00
FC00
FC00
FC00
FC00
FC00
FC00
FC00
FC00
FC00
FC00
FE00
7FE0
7FE0
3FE0
0FE0
ENDCHAR
STARTCHAR uni027E
ENCODING 638
SWIDTH 595 0
DWIDTH 19 0
BBX 14 18 3 0
BITMAP
003C
03FC
07FC
0FFC
1FC0
1F80
1F80
1F80
1F80
1F80
1F80
1F80
1F80
1F80
FFF0
FFF0
FFF0
FFF0
ENDCHAR
STARTCHAR uni027F
ENCODING 639
SWIDTH 595 0
DWIDTH 19 0
BBX 14 18 3 0
BITMAP
F000
FF00
FF80
FFC0
0FC0
07C0
07E0
07E0
07E0
07E0
07E0
07E0
07E0
07E0
3FFC
3FFC
3FFC
3FFC
ENDCHAR
STARTCHAR uni0280
ENCODING 640
SWIDTH 642 0
DWIDTH 21 0
BBX 17 18 2 0
BITMAP
FF0000
FFF800
FFFC00
FFFC00
F87C00
F87E00
F87C00
F87C00
FFF800
FFF000
FFF000
FFF800
F8FC00
F87E00
F87E00
F83F00
F83F00
F81F80
ENDCHAR
STARTCHAR uni0281
ENCODING 641
SWIDTH 642 0
DWIDTH 21 0
BBX 17 18 2 0
BITMAP
F81F80
F81F00
F83F00
F83E00
F87E00
F87C00
F9FC00
FFF800
FFF000
FFF800
F8FC00
F87C00
F87C00
F87E00
F9FC00
FFFC00
FFF800
FFE000
ENDCHAR
STARTCHAR uni0282
ENCODING 642
SWIDTH 595 0
DWIDTH 19 0
BBX 16 25 2 -7
BITMAP
0FF0
7FFC
FFFC
FFFC
F80C
F800
F800
FFC0
FFF8
7FFE
1FFE
007E
003F
803E
F8FE
FFFE
FFFC
FFF8
FC00
FC00
FC00
7FE0
7FE0
3FE0
0FE0
ENDCHAR
STARTCHAR uni0283
ENCODING 643
SWIDTH 415 0
DWIDTH 13 0
BBX 16 31 -1 -7
BITMAP
00FF
03FF
07FF
07FF
0FE0
0FC0
0FC0
0FC0
0FC0
0FC0
0FC0
0FC0
0FC0
0FC0
0FC0
0FC0
0FC0
0FC0
0FC0
0FC0
0FC0
0FC0
0FC0
0FC0
0FC0
0FC0
1FC0
FF80
FF80
FF00
FC00
ENDCHAR
STARTCHAR uni0284
ENCODING 644
SWIDTH 435 0
DWIDTH 14 0
BBX 14 31 0 -7
BITMAP
03FC
07FC
0FFC
0FE0
1F80
1F80
7F80
7F80
7F80
7F80
7F80
1F80
1F80
1F80
FFF0
FFF0
FFF0
1F80
1F80
1F80
1F80
1F80
1F80
1F80
1F80
1F80
1F80
FF00
FF00
FE00
F800
ENDCHAR
STARTCHAR uni0285
ENCODING 645
SWIDTH 604 0
DWIDTH 19 0
BBX 14 25 3 -7
BITMAP
FE00
FF80
FFC0
FFC0
07C0
07C0
07E0
07E0
07E0
07E0
07E0
07E0
07E0
07E0
07E0
07E0
07E0
07E0
07E0
07E0
07E0
03FC
03FC
01FC
007C
ENDCHAR
STARTCHAR uni0286
ENCODING 646
SWIDTH 551 0
DWIDTH 18 0
BBX 19 31 -1 -7
BITMAP
001FE0
007FE0
007FE0
00FE00
00FC00
00FC00
00FC00
00FC00
00FC00
00FC00
00FC00
00FC00
00FC00
00FC00
00FC00
00FC00
00FC00
00FC00
00FC00
00FC00
00FC00
00FC00
3FFF00
7FFF00
FFFF00
F0FC00
E0F800
FFF800
FFF800
7FF000
1FC000
ENDCHAR
STARTCHAR uni0287
ENCODING 647
SWIDTH 478 0
DWIDTH 15 0
BBX 15 23 0 -5
BITMAP
7C00
7FC0
7FE0
7FE0
7FF0
03F0
03F0
03F0
03F0
03F0
03F0
03F0
03F0
03F0
FFFE
FFFE
FFFE
FFFE
03F0
03F0
03F0
03F0
03F0
ENDCHAR
STARTCHAR uni0288
ENCODING 648
SWIDTH 478 0
DWIDTH 15 0
BBX 15 29 0 -7
BITMAP
1F80
1F80
1F80
1F80
FFFE
FFFE
FFFE
FFFE
1F80
1F80
1F80
1F80
1F80
1F80
1F80
1F80
1F80
1F80
1F80
1F80
1F80
1F80
1F80
1F80
1F80
0FC0
0FF8
07F8
01F8
ENDCHAR
STARTCHAR uni0289
ENCODING 649
SWIDTH 920 0
DWIDTH 29 0
BBX 24 18 3 0
BITMAP
1F81F8
1F81F8
1F81F8
1F81F8
1F81F8
1F81F8
1F81F8
1F81F8
FFFFFF
FFFFFF
FFFFFF
1F81F8
1F83F8
1FC7F8
0FFFF8
0FFFF8
07FDF8
03F1F8
ENDCHAR
STARTCHAR uni028A
ENCODING 650
SWIDTH 772 0
DWIDTH 25 0
BBX 19 18 1 0
BITMAP
FF1FE0
FF1FE0
FF1FE0
FF1FE0
1F1F00
3F1F80
7E0FC0
7E0FC0
FC07E0
FC07E0
FC07E0
FC07E0
FE0FE0
7F1FC0
7FFFC0
3FFF80
0FFE00
03F800
ENDCHAR
STARTCHAR uni028B
ENCODING 651
SWIDTH 669 0
DWIDTH 21 0
BBX 17 18 3 0
BITMAP
F80000
F87800
F87C00
F87E00
F83F00
F83F00
F81F80
F81F80
F81F80
F81F80
F81F80
F81F80
F81F00
FC3F00
FFFE00
7FFE00
3FFC00
1FE000
ENDCHAR
STARTCHAR uni028C
ENCODING 652
SWIDTH 651 0
DWIDTH 21 0
BBX 20 18 0 0
BITMAP
01F800
03FC00
03FC00
03FC00
07FE00
07FE00
0FFF00
0FFF00
0FFF00
1FFF80
1F9F80
3F9FC0
3F9FC0
3F0FC0
7F0FE0
7E07E0
7E07E0
FE07F0
ENDCHAR
STARTCHAR uni028D
ENCODING 653
SWIDTH 923 0
DWIDTH 30 0
BBX 27 18 1 0
BITMAP
07E07E00
0FE0FE00
0FE0FE00
0FF0FF00
0FF0FF00
1FF1FF00
1F71FF00
1F79FF80
1F79CF80
3F79CF80
3E3BCF80
3E3FCFC0
3E3F87C0
7E3F87C0
7C1F87E0
7C1F87E0
FC1F83E0
FC1F03E0
ENDCHAR
STARTCHAR uni028E
ENCODING 654
SWIDTH 651 0
DWIDTH 21 0
BBX 19 24 1 0
BITMAP
003F00
007F00
00FF00
01FC00
01F000
03F000
03F000
03F000
07F800
07F800
07F800
0FFC00
0FFC00
1FBE00
1F3E00
1F3F00
3F1F00
3E1F80
7E0F80
7E0F80
7C0FC0
FC07C0
FC07E0
F807E0
ENDCHAR
STARTCHAR uni028F
ENCODING 655
SWIDTH 724 0
DWIDTH 23 0
BBX 19 18 2 0
BITMAP
FC07E0
7E07C0
7E0FC0
3F1F80
1F9F00
0FBF00
0FFE00
07FC00
03FC00
03F800
01F000
01F000
01F000
01F000
01F000
01F000
01F000
01F000
ENDCHAR
STARTCHAR uni0290
ENCODING 656
SWIDTH 693 0
DWIDTH 22 0
BBX 21 25 1 -7
BITMAP
7FFF00
7FFF00
7FFF00
7FFF00
7FFF00
007E00
00FC00
01F800
03F000
07E000
0FC000
1F8000
3F0000
7E0000
FFFF00
FFFF00
FFFF00
FFFF00
003F00
001F00
001F80
001FF8
000FF8
0007F8
0001F8
ENDCHAR
STARTCHAR uni0291
ENCODING 657
SWIDTH 683 0
DWIDTH 22 0
BBX 19 20 1 -2
BITMAP
7FFF00
7FFF00
7FFF00
7FFF00
7FFF00
007E00
00FC00
01F800
03F000
07E000
0FCF80
1F9FC0
3F3FE0
7E78E0
FFFFE0
FFFFC0
FFFFC0
FFFF80
007000
007000
ENDCHAR
STARTCHAR uni0292
ENCODING 658
SWIDTH 640 0
DWIDTH 21 0
BBX 18 25 1 -7
BITMAP
7FFF00
7FFF00
7FFF00
7FFF00
7FFF00
007E00
00FC00
01F800
03F000
07E000
0FC000
0FF800
0FFE00
0FFF00
007F80
001FC0
000FC0
000FC0
000FC0
801FC0
F87F80
FFFF80
FFFF00
FFFE00
1FE000
ENDCHAR
STARTCHAR uni0293
ENCODING 659
SWIDTH 640 0
DWIDTH 21 0
BBX 17 25 2 -7
BITMAP
FFFE00
FFFE00
FFFE00
FFFE00
FFFE00
00FC00
01F800
03F000
07E000
0FC000
1F8000
1FF000
1FFC00
1FFE00
00FF00
003F80
3FDF80
7FFF80
FFFF80
F07F80
F07F00
FFFF00
7FFE00
3FFC00
0FC000
ENDCHAR
STARTCHAR uni0294
ENCODING 660
SWIDTH 572 0
DWIDTH 18 0
BBX 16 24 1 0
BITMAP
7FC0
FFF0
FFF8
FFFC
C1FE
007E
003F
003F
003F
003F
003F
007E
1FFE
1FFC
1FF8
1FF0
1F80
1F80
1F80
1F80
1F80
1F80
1F80
1F80
ENDCHAR
STARTCHAR uni0295
ENCODING 661
SWIDTH 572 0
DWIDTH 18 0
BBX 16 24 1 0
BITMAP
03FE
0FFF
1FFF
3FFF
7F87
7E00
FC00
FC00
FC00
FC00
FC00
7E00
7FF8
3FF8
1FF8
0FF8
01F8
01F8
01F8
01F8
01F8
01F8
01F8
01F8
ENDCHAR
STARTCHAR uni0296
ENCODING 662
SWIDTH 572 0
DWIDTH 18 0
BBX 16 24 1 0
BITMAP
1F80
1F80
1F80
1F80
1F80
1F80
1F80
1F80
1FF0
1FF8
1FFC
01FE
007E
003F
003F
003F
003F
003F
807E
F3FE
FFFC
FFF8
FFF0
3FC0
ENDCHAR
STARTCHAR uni0297
ENCODING 663
SWIDTH 572 0
DWIDTH 18 0
BBX 16 31 1 -7
BITMAP
03FE
0FFF
1FFF
3FFF
7F87
7E00
FC00
FC00
FC00
FC00
FC00
FC00
FC00
FC00
FC00
FC00
FC00
FC00
FC00
FC00
FC00
FC00
FC00
FC00
FE00
7F01
7FFF
3FFF
1FFF
07FF
01F0
ENDCHAR
STARTCHAR uni0298
ENCODING 664
SWIDTH 850 0
DWIDTH 27 0
BBX 24 24 2 0
BITMAP
007E00
03FFC0
0FFFE0
1FFFF0
3FFFF8
7F01FC
7E00FC
FE00FE
FC007E
FC007E
FC107E
FC387F
FC3C7F
FC387F
FC007E
FC007E
FE007E
FE00FE
7F01FC
7F83FC
3FFFF8
1FFFF0
0FFFE0
03FF80
ENDCHAR
STARTCHAR uni0299
ENCODING 665
SWIDTH 632 0
DWIDTH 20 0
BBX 16 18 3 0
BITMAP
FFF0
FFFC
FFFE
FFFE
FC7E
FC7E
FC7E
FFFC
FFF8
FFFE
FFFE
FC3F
FC3F
FC3F
FFFF
FFFE
FFFC
FFF0
ENDCHAR
STARTCHAR uni029A
ENCODING 666
SWIDTH 731 0
DWIDTH 23 0
BBX 19 18 2 0
BITMAP
0FF000
3FFE00
7FFF80
FFFFC0
FC1FC0
F80FE0
7C07E0
7FE7E0
1FE7E0
7FE7E0
FFE7E0
F807E0
F807E0
F80FC0
FE1FC0
FFFF80
7FFF00
1FFC00
ENDCHAR
STARTCHAR uni029B
ENCODING 667
SWIDTH 684 0
DWIDTH 22 0
BBX 21 24 1 0
BITMAP
0007F8
000FF8
001FF8
001FC0
003F00
003F00
003F00
07FF00
1FFF00
3FFF00
3E0300
7C0000
780000
F80000
F8FF00
F8FF00
F8FF00
78FF00
7C0F00
7E0F00
3FDF00
1FFF00
0FFF00
03F800
ENDCHAR
STARTCHAR uni029C
ENCODING 668
SWIDTH 690 0
DWIDTH 22 0
BBX 17 18 3 0
BITMAP
FC1F80
FC1F80
FC1F80
FC1F80
FC1F80
FC1F80
FC1F80
FFFF80
FFFF80
FFFF80
FFFF80
FC1F80
FC1F80
FC1F80
FC1F80
FC1F80
FC1F80
FC1F80
ENDCHAR
STARTCHAR uni029D
ENCODING 669
SWIDTH 342 0
DWIDTH 11 0
BBX 16 31 -5 -7
BITMAP
00F8
00F8
00F8
00F8
0000
0000
00F8
00F8
00F8
00F8
00F8
00F8
00F8
00F8
00F8
00F8
00F8
00F8
00F8
00F8
00F8
00F8
7FFF
FFFF
FFFF
E0F8
E1F8
FFF8
FFF0
FFE0
3F80
ENDCHAR
STARTCHAR uni029E
ENCODING 670
SWIDTH 731 0
DWIDTH 23 0
BBX 19 25 3 -7
BITMAP
FC07E0
7E07E0
3F07E0
1F87E0
0FC7E0
07E7E0
03F7E0
03FFE0
01FFE0
00FFE0
00FFE0
01FFE0
03F7E0
07E7E0
0FC7E0
1F87E0
3F07E0
7E07E0
0007E0
0007E0
0007E0
0007E0
0007E0
0007E0
0007E0
ENDCHAR
STARTCHAR uni029F
ENCODING 671
SWIDTH 539 0
DWIDTH 17 0
BBX 13 18 3 0
BITMAP
F800
F800
F800
F800
F800
F800
F800
F800
F800
F800
F800
F800
F800
FFF8
FFF8
FFF8
FFF8
FFF8
ENDCHAR
STARTCHAR uni02A0
ENCODING 672
SWIDTH 791 0
DWIDTH 25 0
BBX 25 31 1 -7
BITMAP
00007F80
0001FF80
0001FF80
0003F800
0003F000
0003E000
03C3E000
0FF3E000
1FFBE000
3FFFE000
7F0FE000
7E07E000
7E07E000
7C07E000
FC03E000
FC03E000
FC03E000
7C07E000
7E07E000
7F0FE000
3FFFE000
3FFFE000
1FFBE000
0FE3E000
0003E000
0003E000
0003E000
0003E000
0003E000
0003E000
0003E000
ENDCHAR
STARTCHAR uni02A1
ENCODING 673
SWIDTH 572 0
DWIDTH 18 0
BBX 16 24 1 0
BITMAP
7FC0
FFF0
FFF8
FFFC
C1FE
007E
003F
003F
003F
003F
003F
007E
1FFE
1FFC
1FF8
1FF0
1F80
1F80
1F80
7FF8
7FF8
7FF8
1F80
1F80
ENDCHAR
STARTCHAR uni02A2
ENCODING 674
SWIDTH 572 0
DWIDTH 18 0
BBX 16 24 1 0
BITMAP
03FE
0FFF
1FFF
3FFF
7F87
7E00
FC00
FC00
FC00
FC00
FC00
7E00
7FF8
3FF8
1FF8
0FF8
01F8
01F8
01F8
1FFE
1FFE
1FFE
01F8
01F8
ENDCHAR
STARTCHAR uni02A3
ENCODING 675
SWIDTH 1155 0
DWIDTH 37 0
BBX 34 24 1 0
BITMAP
0003E00000
0003E00000
0003E00000
0003E00000
0003E00000
0003E00000
03C3FFFFC0
0FF3FFFFC0
1FFBFFFFC0
3FFFFFFFC0
7F0FFFFFC0
7E07E01F80
7E07E03F00
7C07E07E00
FC03E0FE00
FC03E1FC00
FC03E3F800
7C07E7F000
7E07EFE000
7F0FFFC000
3FFFFFFFC0
3FFFFFFFC0
1FFBFFFFC0
0FE3FFFFC0
ENDCHAR
STARTCHAR uni02A4
ENCODING 676
SWIDTH 1214 0
DWIDTH 39 0
BBX 36 31 1 -7
BITMAP
0003E00000
0003E00000
0003E00000
0003E00000
0003E00000
0003E00000
03C3FFFFC0
0FF3FFFFC0
1FFBFFFFC0
3FFFFFFFC0
7F0FFFFFC0
7E07E01F80
7E07E03F00
7C07E07E00
FC03E0FE00
FC03E1FC00
FC03E3F800
7C07E3FE00
7E07E3FFC0
7F0FE3FFE0
3FFFE01FE0
3FFFE007F0
1FFBE003F0
0FE3E003F0
00000003F0
00001003F0
00001E0FF0
00001FFFE0
00001FFFC0
00001FFF80
000003FC00
ENDCHAR
STARTCHAR uni02A5
ENCODING 677
SWIDTH 1154 0
DWIDTH 37 0
BBX 34 26 1 -2
BITMAP
0003E00000
0003E00000
0003E00000
0003E00000
0003E00000
0003E00000
03C3FFFFC0
0FF3FFFFC0
1FFBFFFFC0
3FFFFFFFC0
7F0FFFFFC0
7E07E01F80
7E07E03F00
7C07E07E00
FC03E0FE00
FC03E1FF80
FC03E3FFC0
7C07E7FFC0
7E07EFEFC0
7F0FFFCDC0
3FFFFFFFC0
3FFFFFFFC0
1FFBFFFFC0
0FE3FFFF80
0000001C00
0000001C00
ENDCHAR
STARTCHAR uni02A6
ENCODING 678
SWIDTH 975 0
DWIDTH 31 0
BBX 30 22 0 0
BITMAP
1F800000
1F800000
1F800000
1F800000
FFFE3FC0
FFFEFFF8
FFFFFFF8
FFFFFFF8
FFFFE038
1F83E000
1F83E000
1F83FF80
1F81FFF0
1F81FFF8
1F807FF8
1F8001FC
1F8000FC
1F8000FC
1FFFFFF8
0FFFFFF8
0FFFFFF0
03FFFFC0
ENDCHAR
STARTCHAR uni02A7
ENCODING 679
SWIDTH 768 0
DWIDTH 25 0
BBX 25 31 0 -7
BITMAP
0000FF80
0001FF80
1F81FF80
1F83F800
1F83F000
1F83F000
FFFFF000
FFFFF000
FFFFF000
FFFFF000
FFFFF000
1F83F000
1F83F000
1F83F000
1F83F000
1F83F000
1F83F000
1F83F000
1F83F000
1F83F000
1FFFF000
0FFFF000
0FFFF000
03FFF000
0003F000
0003F000
0007E000
003FE000
003FC000
003FC000
003F0000
ENDCHAR
STARTCHAR uni02A8
ENCODING 680
SWIDTH 929 0
DWIDTH 30 0
BBX 28 24 0 -2
BITMAP
1F800000
1F800000
1F800000
1F800000
FFFE1FC0
FFFE7FF0
FFFFFFF0
FFFFFFF0
FFFFF830
1F87F000
1F87E000
1F87E000
1F87E000
1F87E7C0
1F87EFE0
1F87FFF0
1F87FEF0
1F83FC70
1FFFFFF0
0FFDFFF0
0FFCFFE0
03FC3FE0
00003800
00003800
ENDCHAR
STARTCHAR uni02A9
ENCODING 681
SWIDTH 1026 0
DWIDTH 33 0
BBX 30 31 1 -7
BITMAP
07F80000
0FF80000
1FF80000
1FC00000
3F000000
3F000000
FFFFC3E0
FFFFCFF0
FFFFDFF8
FFFFFFFC
FFFFF9FC
3F07E0FC
3F07E07C
3F07E07C
3F07C07C
3F07C07C
3F07C07C
3F07C07C
3F07C07C
3F07C07C
3F07C07C
3F07C07C
3F07C07C
3F07C07C
0000007C
0000007C
000000FC
00001FFC
00001FF8
00001FF0
00001FC0
ENDCHAR
STARTCHAR uni02AA
ENCODING 682
SWIDTH 862 0
DWIDTH 28 0
BBX 23 24 3 0
BITMAP
F80000
F80000
F80000
F80000
F80000
F80000
F81FE0
F87FFC
F8FFFC
F9FFFC
F9F80C
F9F000
F9F800
F9FFC0
F8FFF8
F87FFC
F81FFE
F800FE
F8003E
F8007E
FFFFFE
FFFFFC
FFFFF8
FFFFE0
ENDCHAR
STARTCHAR uni02AB
ENCODING 683
SWIDTH 779 0
DWIDTH 25 0
BBX 20 24 3 0
BITMAP
F80000
F80000
F80000
F80000
F80000
F80000
FFFFF0
FFFFF0
FFFFF0
FFFFF0
FFFFF0
F807E0
F80FC0
F81F80
F83F80
F87F00
F8FE00
F9FC00
FBF800
FFF000
FFFFF0
FFFFF0
FFFFF0
FFFFF0
ENDCHAR
STARTCHAR uni02AC
ENCODING 684
SWIDTH 590 0
DWIDTH 19 0
BBX 17 21 1 0
BITMAP
E1C380
E1C780
F3E780
73E700
736700
7B6F00
3F7E00
3E3E00
3E3E00
3E3E00
000000
E1C380
F1C780
F3E780
736700
736700
7F6F00
3F7E00
3E3E00
3E3E00
1E3C00
ENDCHAR
STARTCHAR uni02AD
ENCODING 685
SWIDTH 415 0
DWIDTH 13 0
BBX 10 18 1 3
BITMAP
FFC0
FFC0
FFC0
C0C0
C0C0
C0C0
C0C0
C0C0
0000
0000
0000
FFC0
FFC0
FFC0
C0C0
C0C0
C0C0
C0C0
ENDCHAR
STARTCHAR uni02AE
ENCODING 686
SWIDTH 676 0
DWIDTH 22 0
BBX 23 31 -3 -7
BITMAP
FF0000
FF8000
FFC000
0FE000
07E000
07E000
03E000
03E03E
03E03E
03E03E
03E03E
03E03E
03E03E
03E03E
03E03E
03E03E
03E07E
03E07E
03E07E
03F0FE
03FFFE
03FFFE
01FFBE
00FE3E
00003E
00003E
00003E
00003E
00003E
00003E
00003E
ENDCHAR
STARTCHAR uni02AF
ENCODING 687
SWIDTH 789 0
DWIDTH 25 0
BBX 29 31 -3 -7
BITMAP
FF000000
FF800000
FFC00000
0FE00000
07E00000
07E00000
03E00000
03E03E00
03E03E00
03E03E00
03E03E00
03E03E00
03E03E00
03E03E00
03E03E00
03E03E00
03E07E00
03E07E00
03E07E00
03F0FE00
03FFFE00
03FFFE00
01FFBE00
00FE3E00
00003E00
00003E00
00003F00
00003FF8
00001FF8
00000FF8
000003F8
ENDCHAR
STARTCHAR uni02B0
ENCODING 688
SWIDTH 455 0
DWIDTH 15 0
BBX 11 14 2 10
BITMAP
E000
E000
E000
E000
EFC0
FFE0
F1E0
E1E0
E1E0
E1E0
E1E0
E1E0
E1E0
E1E0
ENDCHAR
STARTCHAR uni02B1
ENCODING 689
SWIDTH 455 0
DWIDTH 15 0
BBX 11 14 2 10
BITMAP
7E00
FE00
F000
E000
EFC0
FFE0
F1E0
E1E0
E1E0
E1E0
E1E0
E1E0
E1E0
E1E0
ENDCHAR
STARTCHAR uni02B2
ENCODING 690
SWIDTH 219 0
DWIDTH 7 0
BBX 6 17 -1 7
BITMAP
1C
1C
1C
00
1C
1C
1C
1C
1C
1C
1C
1C
1C
1C
1C
FC
F8
ENDCHAR
STARTCHAR uni02B3
ENCODING 691
SWIDTH 315 0
DWIDTH 10 0
BBX 8 10 2 10
BITMAP
EF
FF
F0
F0
E0
E0
E0
E0
E0
E0
ENDCHAR
STARTCHAR uni02B4
ENCODING 692
SWIDTH 315 0
DWIDTH 10 0
BBX 8 10 2 10
BITMAP
0F
0F
0F
0F
0F
0F
0F
FF
FF
CF
ENDCHAR
STARTCHAR uni02B5
ENCODING 693
SWIDTH 315 0
DWIDTH 10 0
BBX 11 13 2 7
BITMAP
0F00
0F00
0F00
0F00
0F00
0F00
0F00
FF00
FF00
CF00
0700
07E0
03E0
ENDCHAR
STARTCHAR uni02B6
ENCODING 694
SWIDTH 410 0
DWIDTH 13 0
BBX 11 10 0 10
BITMAP
F1E0
F1C0
F3C0
FF80
FF00
F3C0
F3C0
F3C0
FF80
FC00
ENDCHAR
STARTCHAR uni02B7
ENCODING 695
SWIDTH 590 0
DWIDTH 19 0
BBX 17 10 1 10
BITMAP
E1C380
F3C780
73E700
736700
7B6F00
7F7F00
3E7E00
3E3E00
3E3E00
1E3C00
ENDCHAR
STARTCHAR uni02B8
ENCODING 696
SWIDTH 416 0
DWIDTH 13 0
BBX 12 13 1 7
BITMAP
E0F0
F0E0
71E0
79C0
39C0
3B80
1F80
1F80
0F00
0F00
0E00
7E00
7C00
ENDCHAR
STARTCHAR uni02B9
ENCODING 697
SWIDTH 301 0
DWIDTH 10 0
BBX 4 8 3 18
BITMAP
F0
F0
F0
E0
E0
E0
E0
C0
ENDCHAR
STARTCHAR uni02BA
ENCODING 698
SWIDTH 520 0
DWIDTH 17 0
BBX 11 8 3 18
BITMAP
F0E0
F1E0
F1E0
E1C0
E1C0
E1C0
E1C0
C180
ENDCHAR
STARTCHAR uni02BB
ENCODING 699
SWIDTH 379 0
DWIDTH 12 0
BBX 7 10 3 13
BITMAP
0E
1C
3C
7C
78
F8
F8
F8
F8
F8
ENDCHAR
STARTCHAR uni02BC
ENCODING 700
SWIDTH 379 0
DWIDTH 12 0
BBX 7 10 2 13
BITMAP
3E
3E
3E
3E
3E
3C
7C
78
70
E0
ENDCHAR
STARTCHAR uni02BD
ENCODING 701
SWIDTH 379 0
DWIDTH 12 0
BBX 5 7 4 20
BITMAP
F0
F0
F0
78
78
38
38
ENDCHAR
STARTCHAR uni02BE
ENCODING 702
SWIDTH 366 0
DWIDTH 12 0
BBX 4 8 4 16
BITMAP
C0
E0
70
30
30
70
F0
E0
ENDCHAR
STARTCHAR uni02BF
ENCODING 703
SWIDTH 366 0
DWIDTH 12 0
BBX 4 8 4 16
BITMAP
30
70
E0
C0
C0
E0
F0
70
ENDCHAR
STARTCHAR uni02C0
ENCODING 704
SWIDTH 326 0
DWIDTH 10 0
BBX 10 14 1 10
BITMAP
FC00
FF00
DF80
03C0
03C0
03C0
0780
3F80
3F00
3800
3800
3800
3800
3800
ENDCHAR
STARTCHAR uni02C1
ENCODING 705
SWIDTH 326 0
DWIDTH 10 0
BBX 10 14 1 10
BITMAP
1FC0
7FC0
FDC0
F000
E000
E000
F000
7F00
3F00
0F00
0F00
0F00
0F00
0F00
ENDCHAR
STARTCHAR uni02C2
ENCODING 706
SWIDTH 500 0
DWIDTH 16 0
BBX 8 10 4 17
BITMAP
01
07
1F
7C
F0
E0
F8
3E
0F
03
ENDCHAR
STARTCHAR uni02C3
ENCODING 707
SWIDTH 500 0
DWIDTH 16 0
BBX 8 10 4 17
BITMAP
80
E0
F8
3E
0F
07
1F
7C
F0
C0
ENDCHAR
STARTCHAR uni02C4
ENCODING 708
SWIDTH 500 0
DWIDTH 16 0
BBX 10 8 3 18
BITMAP
0C00
1E00
1E00
3F00
3300
7380
6180
E1C0
ENDCHAR
STARTCHAR uni02C5
ENCODING 709
SWIDTH 500 0
DWIDTH 16 0
BBX 10 8 3 18
BITMAP
C1C0
E1C0
6380
7380
3700
3F00
1E00
1E00
ENDCHAR
STARTCHAR circumflex
ENCODING 710
SWIDTH 500 0
DWIDTH 16 0
BBX 12 6 2 20
BITMAP
0F00
1F80
3FC0
39C0
70E0
E070
ENDCHAR
STARTCHAR caron
ENCODING 711
SWIDTH 500 0
DWIDTH 16 0
BBX 12 6 2 20
BITMAP
E070
70E0
39C0
3FC0
1F80
0F00
ENDCHAR
STARTCHAR uni02C8
ENCODING 712
SWIDTH 306 0
DWIDTH 10 0
BBX 3 8 3 16
BITMAP
E0
E0
E0
E0
E0
E0
E0
E0
ENDCHAR
STARTCHAR uni02C9
ENCODING 713
SWIDTH 500 0
DWIDTH 16 0
BBX 10 3 3 21
BITMAP
FFC0
FFC0
FFC0
ENDCHAR
STARTCHAR uni02CA
ENCODING 714
SWIDTH 500 0
DWIDTH 16 0
BBX 8 6 6 20
BITMAP
0F
1E
1C
3C
78
F0
ENDCHAR
STARTCHAR uni02CB
ENCODING 715
SWIDTH 500 0
DWIDTH 16 0
BBX 8 6 2 20
BITMAP
F0
78
38
3C
1E
0F
ENDCHAR
STARTCHAR uni02CC
ENCODING 716
SWIDTH 306 0
DWIDTH 10 0
BBX 3 9 3 -3
BITMAP
E0
E0
E0
E0
E0
E0
E0
E0
E0
ENDCHAR
STARTCHAR uni02CD
ENCODING 717
SWIDTH 500 0
DWIDTH 16 0
BBX 10 3 3 -6
BITMAP
FFC0
FFC0
FFC0
ENDCHAR
STARTCHAR uni02CE
ENCODING 718
SWIDTH 500 0
DWIDTH 16 0
BBX 8 6 2 -8
BITMAP
F8
78
3C
1E
0F
07
ENDCHAR
STARTCHAR uni02CF
ENCODING 719
SWIDTH 500 0
DWIDTH 16 0
BBX 8 6 6 -8
BITMAP
1F
1E
3C
78
F0
E0
ENDCHAR
STARTCHAR uni02D0
ENCODING 720
SWIDTH 336 0
DWIDTH 11 0
BBX 7 18 1 0
BITMAP
FE
7C
3C
38
18
10
00
00
00
00
00
00
10
10
38
3C
7C
7E
ENDCHAR
STARTCHAR uni02D1
ENCODING 721
SWIDTH 336 0
DWIDTH 11 0
BBX 7 6 1 12
BITMAP
FE
7C
3C
38
18
10
ENDCHAR
STARTCHAR uni02D2
ENCODING 722
SWIDTH 366 0
DWIDTH 12 0
BBX 4 8 4 9
BITMAP
C0
E0
70
30
30
70
F0
E0
ENDCHAR
STARTCHAR uni02D3
ENCODING 723
SWIDTH 366 0
DWIDTH 12 0
BBX 4 8 4 9
BITMAP
30
70
E0
C0
C0
E0
F0
70
ENDCHAR
STARTCHAR uni02D4
ENCODING 724
SWIDTH 500 0
DWIDTH 16 0
BBX 7 7 4 8
BITMAP
18
18
18
18
18
FE
FE
ENDCHAR
STARTCHAR uni02D5
ENCODING 725
SWIDTH 500 0
DWIDTH 16 0
BBX 8 7 4 8
BITMAP
FF
FF
FF
18
18
18
18
ENDCHAR
STARTCHAR uni02D6
ENCODING 726
SWIDTH 416 0
DWIDTH 13 0
BBX 10 10 2 4
BITMAP
1C00
1C00
1C00
1C00
FFC0
FFC0
FFC0
1C00
1C00
1C00
ENDCHAR
STARTCHAR uni02D7
ENCODING 727
SWIDTH 328 0
DWIDTH 11 0
BBX 7 3 2 7
BITMAP
FE
FE
FE
ENDCHAR
STARTCHAR breve
ENCODING 728
SWIDTH 500 0
DWIDTH 16 0
BBX 11 5 3 20
BITMAP
C060
E0E0
61C0
7FC0
1F00
ENDCHAR
STARTCHAR dotaccent
ENCODING 729
SWIDTH 500 0
DWIDTH 16 0
BBX 4 4 6 21
BITMAP
F0
F0
F0
F0
ENDCHAR
STARTCHAR ring
ENCODING 730
SWIDTH 500 0
DWIDTH 16 0
BBX 9 9 4 19
BITMAP
3E00
7F00
E380
C180
C180
C180
E380
7F00
3E00
ENDCHAR
STARTCHAR ogonek
ENCODING 731
SWIDTH 500 0
DWIDTH 16 0
BBX 7 6 5 -6
BITMAP
70
60
E0
E0
FE
7E
ENDCHAR
STARTCHAR tilde
ENCODING 732
SWIDTH 500 0
DWIDTH 16 0
BBX 11 4 3 22
BITMAP
7860
FC60
CFC0
C3C0
ENDCHAR
STARTCHAR hungarumlaut
ENCODING 733
SWIDTH 500 0
DWIDTH 16 0
BBX 12 6 3 20
BITMAP
1CF0
38E0
39C0
73C0
6380
E700
ENDCHAR
STARTCHAR uni02DE
ENCODING 734
SWIDTH 350 0
DWIDTH 11 0
BBX 12 10 0 7
BITMAP
0F00
1F00
7F00
FF00
FF00
E700
8780
07F0
03F0
01F0
ENDCHAR
STARTCHAR uni02DF
ENCODING 735
SWIDTH 500 0
DWIDTH 16 0
BBX 8 6 4 20
BITMAP
E7
7E
3C
3C
7E
E7
ENDCHAR
STARTCHAR uni02E0
ENCODING 736
SWIDTH 411 0
DWIDTH 13 0
BBX 11 13 1 7
BITMAP
F1E0
71C0
7BC0
3B80
3F80
1F00
1F00
1F00
3F80
3B80
3B80
3F80
3F80
ENDCHAR
STARTCHAR uni02E1
ENCODING 737
SWIDTH 219 0
DWIDTH 7 0
BBX 3 14 2 10
BITMAP
E0
E0
E0
E0
E0
E0
E0
E0
E0
E0
E0
E0
E0
E0
ENDCHAR
STARTCHAR uni02E2
ENCODING 738
SWIDTH 380 0
DWIDTH 12 0
BBX 10 10 1 10
BITMAP
7F80
FF80
E000
FC00
7F80
1FC0
01C0
C3C0
FFC0
7F00
ENDCHAR
STARTCHAR uni02E3
ENCODING 739
SWIDTH 412 0
DWIDTH 13 0
BBX 13 10 0 10
BITMAP
78F0
3CE0
1DC0
0FC0
0F80
0F80
1FC0
3DE0
78F0
F078
ENDCHAR
STARTCHAR uni02E4
ENCODING 740
SWIDTH 326 0
DWIDTH 10 0
BBX 10 14 1 10
BITMAP
1FC0
7FC0
FDC0
F000
E000
E000
F000
7F00
3F00
0F00
0F00
0F00
0F00
0F00
ENDCHAR
STARTCHAR uni02E5
ENCODING 741
SWIDTH 500 0
DWIDTH 16 0
BBX 10 22 3 0
BITMAP
FFC0
FFC0
FFC0
FFC0
07C0
07C0
07C0
07C0
07C0
07C0
07C0
07C0
07C0
07C0
07C0
07C0
07C0
07C0
07C0
07C0
07C0
07C0
ENDCHAR
STARTCHAR uni02E6
ENCODING 742
SWIDTH 500 0
DWIDTH 16 0
BBX 10 22 3 0
BITMAP
07C0
07C0
07C0
07C0
07C0
FFC0
FFC0
FFC0
FFC0
07C0
07C0
07C0
07C0
07C0
07C0
07C0
07C0
07C0
07C0
07C0
07C0
07C0
ENDCHAR
STARTCHAR uni02E7
ENCODING 743
SWIDTH 500 0
DWIDTH 16 0
BBX 10 22 3 0
BITMAP
07C0
07C0
07C0
07C0
07C0
07C0
07C0
07C0
07C0
07C0
FFC0
FFC0
FFC0
FFC0
07C0
07C0
07C0
07C0
07C0
07C0
07C0
07C0
ENDCHAR
STARTCHAR uni02E8
ENCODING 744
SWIDTH 500 0
DWIDTH 16 0
BBX 10 22 3 0
BITMAP
07C0
07C0
07C0
07C0
07C0
07C0
07C0
07C0
07C0
07C0
07C0
07C0
07C0
FFC0
FFC0
FFC0
FFC0
07C0
07C0
07C0
07C0
07C0
ENDCHAR
STARTCHAR uni02E9
ENCODING 745
SWIDTH 500 0
DWIDTH 16 0
BBX 10 22 3 0
BITMAP
07C0
07C0
07C0
07C0
07C0
07C0
07C0
07C0
07C0
07C0
07C0
07C0
07C0
07C0
07C0
07C0
07C0
07C0
FFC0
FFC0
FFC0
FFC0
ENDCHAR
STARTCHAR uni02EC
ENCODING 748
SWIDTH 500 0
DWIDTH 16 0
BBX 10 8 3 -8
BITMAP
C0C0
E1C0
6180
7380
3F00
3F00
1E00
1E00
ENDCHAR
STARTCHAR uni02ED
ENCODING 749
SWIDTH 500 0
DWIDTH 16 0
BBX 10 7 3 19
BITMAP
FFC0
FFC0
FFC0
0000
FFC0
FFC0
FFC0
ENDCHAR
STARTCHAR uni02EE
ENCODING 750
SWIDTH 657 0
DWIDTH 21 0
BBX 15 10 3 13
BITMAP
3E3E
3E3E
3E3E
3E3E
3E3E
3C3C
7C7C
7878
7070
E0E0
ENDCHAR
STARTCHAR uni02F3
ENCODING 755
SWIDTH 500 0
DWIDTH 16 0
BBX 9 9 4 -8
BITMAP
3E00
7F00
E380
C180
C180
C180
E380
7F00
3E00
ENDCHAR
STARTCHAR uni02F7
ENCODING 759
SWIDTH 500 0
DWIDTH 16 0
BBX 10 3 3 -6
BITMAP
F8C0
FFC0
C780
ENDCHAR
STARTCHAR gravecomb
ENCODING 768
SWIDTH 0 0
DWIDTH 0 0
BBX 9 6 -15 20
BITMAP
F800
7C00
3C00
1E00
0F00
0780
ENDCHAR
STARTCHAR acutecomb
ENCODING 769
SWIDTH 0 0
DWIDTH 0 0
BBX 8 6 -10 20
BITMAP
0F
1E
3C
38
70
F0
ENDCHAR
STARTCHAR uni0302
ENCODING 770
SWIDTH 0 0
DWIDTH 0 0
BBX 12 6 -14 20
BITMAP
0F00
1F80
3FC0
39C0
70E0
E070
ENDCHAR
STARTCHAR tildecomb
ENCODING 771
SWIDTH 0 0
DWIDTH 0 0
BBX 11 4 -13 22
BITMAP
7860
FC60
CFC0
C380
ENDCHAR
STARTCHAR uni0304
ENCODING 772
SWIDTH 0 0
DWIDTH 0 0
BBX 10 3 -13 21
BITMAP
FFC0
FFC0
FFC0
ENDCHAR
STARTCHAR uni0305
ENCODING 773
SWIDTH 0 0
DWIDTH 0 0
BBX 16 3 -16 21
BITMAP
FFFF
FFFF
FFFF
ENDCHAR
STARTCHAR uni0306
ENCODING 774
SWIDTH 0 0
DWIDTH 0 0
BBX 11 5 -13 20
BITMAP
C060
E060
70E0
7FC0
1F00
ENDCHAR
STARTCHAR uni0307
ENCODING 775
SWIDTH 0 0
DWIDTH 0 0
BBX 6 6 -11 20
BITMAP
FC
FC
FC
FC
FC
FC
ENDCHAR
STARTCHAR uni0308
ENCODING 776
SWIDTH 0 0
DWIDTH 0 0
BBX 11 4 -13 21
BITMAP
F1E0
F1E0
F1E0
F1E0
ENDCHAR
STARTCHAR hookabovecomb
ENCODING 777
SWIDTH 0 0
DWIDTH 0 0
BBX 8 7 -12 20
BITMAP
7E
FF
03
07
0F
1C
18
ENDCHAR
STARTCHAR uni030A
ENCODING 778
SWIDTH 0 0
DWIDTH 0 0
BBX 9 9 -12 19
BITMAP
3E00
7F00
E300
C180
C180
C180
E300
7F00
3E00
ENDCHAR
STARTCHAR uni030B
ENCODING 779
SWIDTH 0 0
DWIDTH 0 0
BBX 12 6 -13 20
BITMAP
1CF0
38E0
39C0
73C0
6380
E700
ENDCHAR
STARTCHAR uni030C
ENCODING 780
SWIDTH 0 0
DWIDTH 0 0
BBX 12 6 -14 20
BITMAP
E070
70E0
39C0
3FC0
1F80
0F00
ENDCHAR
STARTCHAR uni030D
ENCODING 781
SWIDTH 0 0
DWIDTH 0 0
BBX 3 7 -10 20
BITMAP
E0
E0
E0
E0
E0
E0
E0
ENDCHAR
STARTCHAR uni030E
ENCODING 782
SWIDTH 0 0
DWIDTH 0 0
BBX 8 7 -12 20
BITMAP
C7
C7
C7
C7
C7
C7
C7
ENDCHAR
STARTCHAR uni030F
ENCODING 783
SWIDTH 0 0
DWIDTH 0 0
BBX 11 6 -15 20
BITMAP
E780
F380
71C0
39C0
38E0
1C60
ENDCHAR
STARTCHAR uni0310
ENCODING 784
SWIDTH 0 0
DWIDTH 0 0
BBX 11 8 -13 20
BITMAP
1E00
1E00
1E00
DE60
E060
70E0
7FC0
1F00
ENDCHAR
STARTCHAR uni0311
ENCODING 785
SWIDTH 0 0
DWIDTH 0 0
BBX 10 5 -13 20
BITMAP
3F00
7F80
F3C0
E0C0
C0C0
ENDCHAR
STARTCHAR uni0312
ENCODING 786
SWIDTH 0 0
DWIDTH 0 0
BBX 6 5 -9 13
BITMAP
1C
3C
38
78
F8
ENDCHAR
STARTCHAR uni0313
ENCODING 787
SWIDTH 0 0
DWIDTH 0 0
BBX 5 8 -9 19
BITMAP
F8
F8
F8
F8
38
78
F0
E0
ENDCHAR
STARTCHAR uni0314
ENCODING 788
SWIDTH 0 0
DWIDTH 0 0
BBX 5 8 -9 19
BITMAP
F8
F8
F8
F8
60
70
78
38
ENDCHAR
STARTCHAR uni0315
ENCODING 789
SWIDTH 0 0
DWIDTH 0 0
BBX 6 6 -3 20
BITMAP
7C
78
78
70
70
F0
ENDCHAR
STARTCHAR uni0316
ENCODING 790
SWIDTH 0 0
DWIDTH 0 0
BBX 9 6 -15 -9
BITMAP
F800
7C00
3C00
1E00
0F00
0780
ENDCHAR
STARTCHAR uni0317
ENCODING 791
SWIDTH 0 0
DWIDTH 0 0
BBX 8 6 -10 -9
BITMAP
0F
1E
3C
38
70
F0
ENDCHAR
STARTCHAR uni0318
ENCODING 792
SWIDTH 0 0
DWIDTH 0 0
BBX 5 8 -12 -8
BITMAP
18
18
18
F8
F8
18
18
18
ENDCHAR
STARTCHAR uni0319
ENCODING 793
SWIDTH 0 0
DWIDTH 0 0
BBX 5 8 -9 -8
BITMAP
C0
C0
C0
F8
F8
C0
C0
C0
ENDCHAR
STARTCHAR uni031A
ENCODING 794
SWIDTH 0 0
DWIDTH 0 0
BBX 9 9 -7 21
BITMAP
FF80
FF80
FF80
0380
0380
0380
0380
0380
0380
ENDCHAR
STARTCHAR uni031B
ENCODING 795
SWIDTH 0 0
DWIDTH 0 0
BBX 7 7 -6 13
BITMAP
0C
0C
0E
8E
FE
FC
3C
ENDCHAR
STARTCHAR uni031C
ENCODING 796
SWIDTH 0 0
DWIDTH 0 0
BBX 4 8 -11 -8
BITMAP
10
70
70
E0
E0
70
70
10
ENDCHAR
STARTCHAR uni031D
ENCODING 797
SWIDTH 0 0
DWIDTH 0 0
BBX 8 6 -12 -8
BITMAP
18
18
18
FF
FF
FF
ENDCHAR
STARTCHAR uni031E
ENCODING 798
SWIDTH 0 0
DWIDTH 0 0
BBX 8 6 -12 -8
BITMAP
FF
FF
FF
38
38
38
ENDCHAR
STARTCHAR uni031F
ENCODING 799
SWIDTH 0 0
DWIDTH 0 0
BBX 8 8 -12 -8
BITMAP
18
18
18
FF
FF
18
18
18
ENDCHAR
STARTCHAR uni0320
ENCODING 800
SWIDTH 0 0
DWIDTH 0 0
BBX 8 2 -12 -6
BITMAP
FF
FF
ENDCHAR
STARTCHAR uni0321
ENCODING 801
SWIDTH 0 0
DWIDTH 0 0
BBX 11 11 -14 -7
BITMAP
03E0
03E0
03E0
03E0
03E0
03E0
07E0
FFE0
FFC0
FF80
FE00
ENDCHAR
STARTCHAR uni0322
ENCODING 802
SWIDTH 0 0
DWIDTH 0 0
BBX 11 11 -13 -7
BITMAP
F800
F800
F800
F800
F800
F800
FC00
FFE0
7FE0
3FE0
1FE0
ENDCHAR
STARTCHAR dotbelowcomb
ENCODING 803
SWIDTH 0 0
DWIDTH 0 0
BBX 6 5 -11 -7
BITMAP
FC
FC
FC
FC
FC
ENDCHAR
STARTCHAR uni0324
ENCODING 804
SWIDTH 0 0
DWIDTH 0 0
BBX 11 4 -13 -7
BITMAP
F1E0
F1E0
F1E0
F1E0
ENDCHAR
STARTCHAR uni0325
ENCODING 805
SWIDTH 0 0
DWIDTH 0 0
BBX 8 8 -12 -8
BITMAP
18
7E
7E
E7
E7
7E
7E
18
ENDCHAR
STARTCHAR uni0326
ENCODING 806
SWIDTH 0 0
DWIDTH 0 0
BBX 6 5 -10 -8
BITMAP
7C
78
70
F0
E0
ENDCHAR
STARTCHAR uni0327
ENCODING 807
SWIDTH 0 0
DWIDTH 0 0
BBX 7 6 -12 -6
BITMAP
18
0C
0E
0E
FE
FC
ENDCHAR
STARTCHAR uni0328
ENCODING 808
SWIDTH 0 0
DWIDTH 0 0
BBX 7 6 -11 -6
BITMAP
70
60
E0
E0
FE
7E
ENDCHAR
STARTCHAR uni0329
ENCODING 809
SWIDTH 0 0
DWIDTH 0 0
BBX 3 7 -10 -8
BITMAP
E0
E0
E0
E0
E0
E0
E0
ENDCHAR
STARTCHAR uni032A
ENCODING 810
SWIDTH 0 0
DWIDTH 0 0
BBX 10 6 -13 -8
BITMAP
FFC0
FFC0
FFC0
E1C0
E1C0
E1C0
ENDCHAR
STARTCHAR uni032B
ENCODING 811
SWIDTH 0 0
DWIDTH 0 0
BBX 12 5 -14 -8
BITMAP
C630
CF30
FFF0
7FE0
3880
ENDCHAR
STARTCHAR uni032C
ENCODING 812
SWIDTH 0 0
DWIDTH 0 0
BBX 12 6 -14 -7
BITMAP
E070
70E0
39C0
3FC0
1F80
0F00
ENDCHAR
STARTCHAR uni032D
ENCODING 813
SWIDTH 0 0
DWIDTH 0 0
BBX 12 6 -14 -7
BITMAP
0F00
1F80
3FC0
39C0
70E0
E070
ENDCHAR
STARTCHAR uni032E
ENCODING 814
SWIDTH 0 0
DWIDTH 0 0
BBX 11 5 -13 -8
BITMAP
C060
E060
70E0
7FC0
1F00
ENDCHAR
STARTCHAR uni032F
ENCODING 815
SWIDTH 0 0
DWIDTH 0 0
BBX 10 5 -13 -8
BITMAP
1F00
7F80
FBC0
E0C0
C0C0
ENDCHAR
STARTCHAR uni0330
ENCODING 816
SWIDTH 0 0
DWIDTH 0 0
BBX 11 4 -13 -6
BITMAP
7860
FC60
CFC0
C380
ENDCHAR
STARTCHAR uni0331
ENCODING 817
SWIDTH 0 0
DWIDTH 0 0
BBX 10 3 -13 -6
BITMAP
FFC0
FFC0
FFC0
ENDCHAR
STARTCHAR uni0332
ENCODING 818
SWIDTH 0 0
DWIDTH 0 0
BBX 16 3 -16 -8
BITMAP
FFFF
FFFF
FFFF
ENDCHAR
STARTCHAR uni0333
ENCODING 819
SWIDTH 0 0
DWIDTH 0 0
BBX 16 7 -16 -8
BITMAP
FFFF
FFFF
FFFF
0000
FFFF
FFFF
FFFF
ENDCHAR
STARTCHAR uni0334
ENCODING 820
SWIDTH 0 0
DWIDTH 0 0
BBX 20 6 -20 7
BITMAP
1F0030
7FE070
FFFFF0
FFFFF0
E0FFE0
801F80
ENDCHAR
STARTCHAR uni0335
ENCODING 821
SWIDTH 0 0
DWIDTH 0 0
BBX 12 3 -15 7
BITMAP
FFF0
FFF0
FFF0
ENDCHAR
STARTCHAR uni0336
ENCODING 822
SWIDTH 0 0
DWIDTH 0 0
BBX 24 3 -27 7
BITMAP
FFFFFF
FFFFFF
FFFFFF
ENDCHAR
STARTCHAR uni0337
ENCODING 823
SWIDTH 0 0
DWIDTH 0 0
BBX 19 20 -21 -1
BITMAP
000040
0000E0
0001E0
0003C0
000380
000700
000E00
001C00
003800
007000
00E000
01C000
038000
070000
0E0000
1C0000
3C0000
780000
F00000
600000
ENDCHAR
STARTCHAR uni0338
ENCODING 824
SWIDTH 0 0
DWIDTH 0 0
BBX 25 25 -26 -1
BITMAP
00000300
00000780
00000F00
00001E00
00003C00
00007800
0000F000
0001E000
0003C000
00078000
000F0000
001E0000
003C0000
00780000
00F00000
01E00000
03C00000
07800000
0F000000
1E000000
3C000000
78000000
F0000000
E0000000
40000000
ENDCHAR
STARTCHAR uni0339
ENCODING 825
SWIDTH 0 0
DWIDTH 0 0
BBX 4 8 -9 -8
BITMAP
80
E0
E0
70
70
E0
E0
80
ENDCHAR
STARTCHAR uni033A
ENCODING 826
SWIDTH 0 0
DWIDTH 0 0
BBX 10 6 -13 -8
BITMAP
E1C0
E1C0
E1C0
FFC0
FFC0
FFC0
ENDCHAR
STARTCHAR uni033B
ENCODING 827
SWIDTH 0 0
DWIDTH 0 0
BBX 8 8 -11 -8
BITMAP
FF
FF
E3
E3
E3
E3
FF
FF
ENDCHAR
STARTCHAR uni033C
ENCODING 828
SWIDTH 0 0
DWIDTH 0 0
BBX 12 5 -14 -8
BITMAP
79E0
FFF0
EF70
C630
C630
ENDCHAR
STARTCHAR uni033D
ENCODING 829
SWIDTH 0 0
DWIDTH 0 0
BBX 8 8 -12 19
BITMAP
40
E6
FF
7E
3C
7E
FF
66
ENDCHAR
STARTCHAR uni033E
ENCODING 830
SWIDTH 0 0
DWIDTH 0 0
BBX 5 9 -9 19
BITMAP
18
78
E0
60
70
38
38
F8
E0
ENDCHAR
STARTCHAR uni033F
ENCODING 831
SWIDTH 0 0
DWIDTH 0 0
BBX 16 7 -16 17
BITMAP
FFFF
FFFF
FFFF
0000
FFFF
FFFF
FFFF
ENDCHAR
STARTCHAR uni0340
ENCODING 832
SWIDTH 0 0
DWIDTH 0 0
BBX 9 6 -15 20
BITMAP
F800
7C00
3C00
1E00
0F00
0780
ENDCHAR
STARTCHAR uni0341
ENCODING 833
SWIDTH 0 0
DWIDTH 0 0
BBX 8 6 -10 20
BITMAP
0F
1F
1E
3C
78
F0
ENDCHAR
STARTCHAR uni0342
ENCODING 834
SWIDTH 0 0
DWIDTH 0 0
BBX 11 4 -13 22
BITMAP
7860
FC60
CFC0
C3C0
ENDCHAR
STARTCHAR uni0343
ENCODING 835
SWIDTH 0 0
DWIDTH 0 0
BBX 5 8 -9 19
BITMAP
F8
F8
F8
F8
38
78
F0
E0
ENDCHAR
STARTCHAR uni0344
ENCODING 836
SWIDTH 0 0
DWIDTH 0 0
BBX 11 11 -13 21
BITMAP
03E0
07C0
0780
0F00
1E00
3C00
0000
F1E0
F1E0
F1E0
F1E0
ENDCHAR
STARTCHAR uni0345
ENCODING 837
SWIDTH 0 0
DWIDTH 0 0
BBX 3 6 -9 -7
BITMAP
C0
C0
C0
C0
E0
60
ENDCHAR
STARTCHAR uni0346
ENCODING 838
SWIDTH 0 0
DWIDTH 0 0
BBX 10 5 -13 20
BITMAP
FFC0
FFC0
FFC0
E1C0
E1C0
ENDCHAR
STARTCHAR uni0347
ENCODING 839
SWIDTH 0 0
DWIDTH 0 0
BBX 8 6 -12 -7
BITMAP
FF
FF
00
00
FF
FF
ENDCHAR
STARTCHAR uni0348
ENCODING 840
SWIDTH 0 0
DWIDTH 0 0
BBX 8 7 -12 -8
BITMAP
E7
E7
E7
E7
E7
E7
E7
ENDCHAR
STARTCHAR uni0349
ENCODING 841
SWIDTH 0 0
DWIDTH 0 0
BBX 8 7 -12 -8
BITMAP
FF
FF
07
07
07
07
07
ENDCHAR
STARTCHAR uni034A
ENCODING 842
SWIDTH 0 0
DWIDTH 0 0
BBX 10 6 -13 20
BITMAP
0300
26C0
FEC0
FFC0
DFC0
D900
ENDCHAR
STARTCHAR uni034B
ENCODING 843
SWIDTH 0 0
DWIDTH 0 0
BBX 10 9 -13 18
BITMAP
0700
0700
20C0
FCC0
FFC0
C7C0
C100
3800
3800
ENDCHAR
STARTCHAR uni034C
ENCODING 844
SWIDTH 0 0
DWIDTH 0 0
BBX 11 8 -13 19
BITMAP
3860
7C60
EFE0
C3C0
3060
7C60
EFE0
C7C0
ENDCHAR
STARTCHAR uni034D
ENCODING 845
SWIDTH 0 0
DWIDTH 0 0
BBX 12 6 -14 -7
BITMAP
30C0
6060
FFF0
FFF0
E070
70E0
ENDCHAR
STARTCHAR uni034E
ENCODING 846
SWIDTH 0 0
DWIDTH 0 0
BBX 6 6 -11 -8
BITMAP
30
78
FC
B4
30
30
ENDCHAR
STARTCHAR uni034F
ENCODING 847
SWIDTH 0 0
DWIDTH 0 0
BBX 1 1 0 0
BITMAP
00
ENDCHAR
STARTCHAR uni0351
ENCODING 849
SWIDTH 0 0
DWIDTH 0 0
BBX 4 8 -10 20
BITMAP
70
70
E0
C0
C0
E0
F0
70
ENDCHAR
STARTCHAR uni0352
ENCODING 850
SWIDTH 0 0
DWIDTH 0 0
BBX 10 7 -13 21
BITMAP
3F00
7F80
F3C0
FEC0
DEC0
1E00
1E00
ENDCHAR
STARTCHAR uni0353
ENCODING 851
SWIDTH 0 0
DWIDTH 0 0
BBX 6 6 -11 -7
BITMAP
CC
FC
78
78
FC
CC
ENDCHAR
STARTCHAR uni0357
ENCODING 855
SWIDTH 0 0
DWIDTH 0 0
BBX 4 8 -10 20
BITMAP
E0
E0
70
30
30
70
F0
E0
ENDCHAR
STARTCHAR uni0358
ENCODING 856
SWIDTH 0 0
DWIDTH 0 0
BBX 4 4 -4 21
BITMAP
F0
F0
F0
F0
ENDCHAR
STARTCHAR uni035A
ENCODING 858
SWIDTH 0 0
DWIDTH 0 0
BBX 12 8 -14 -8
BITMAP
1080
7FE0
FFF0
C630
C630
FFF0
7FE0
31C0
ENDCHAR
STARTCHAR uni035C
ENCODING 860
SWIDTH 0 0
DWIDTH 0 0
BBX 29 5 -14 -8
BITMAP
F0000078
FFC03FF8
7FFFFFE0
07FFFE00
00070000
ENDCHAR
STARTCHAR uni035D
ENCODING 861
SWIDTH 0 0
DWIDTH 0 0
BBX 29 5 -14 25
BITMAP
F0000078
FFC03FF8
7FFFFFE0
07FFFE00
00070000
ENDCHAR
STARTCHAR uni035E
ENCODING 862
SWIDTH 0 0
DWIDTH 0 0
BBX 28 3 -14 25
BITMAP
FFFFFFF0
FFFFFFF0
FFFFFFF0
ENDCHAR
STARTCHAR uni035F
ENCODING 863
SWIDTH 0 0
DWIDTH 0 0
BBX 28 3 -14 -6
BITMAP
FFFFFFF0
FFFFFFF0
FFFFFFF0
ENDCHAR
STARTCHAR uni0360
ENCODING 864
SWIDTH 0 0
DWIDTH 0 0
BBX 24 5 -12 24
BITMAP
030007
3FF80E
7FFFFE
703FFC
F003F0
ENDCHAR
STARTCHAR uni0361
ENCODING 865
SWIDTH 0 0
DWIDTH 0 0
BBX 28 5 -14 25
BITMAP
001FC000
07FFFE00
7FFFFFE0
FF801FF0
E0000070
ENDCHAR
STARTCHAR uni0362
ENCODING 866
SWIDTH 0 0
DWIDTH 0 0
BBX 28 6 -14 -7
BITMAP
000000C0
00000060
FFFFFFF0
FFFFFFF0
00000060
000000E0
ENDCHAR
STARTCHAR uni0370
ENCODING 880
SWIDTH 697 0
DWIDTH 22 0
BBX 16 23 3 0
BITMAP
FC00
FC00
FC00
FC00
FC00
FC00
FC00
FC00
FC00
FFFF
FFFF
FFFF
FFFF
FC00
FC00
FC00
FC00
FC00
FC00
FC00
FC00
FC00
FC00
ENDCHAR
STARTCHAR uni0371
ENCODING 881
SWIDTH 564 0
DWIDTH 18 0
BBX 12 18 3 0
BITMAP
F800
F800
F800
F800
F800
F800
F800
FFF0
FFF0
FFF0
FFF0
F800
F800
F800
F800
F800
F800
F800
ENDCHAR
STARTCHAR uni0372
ENCODING 882
SWIDTH 1021 0
DWIDTH 33 0
BBX 27 23 3 0
BITMAP
FFFFFFE0
FFFFFFE0
FFFFFFE0
FFFFFFE0
FC3F07E0
FC3F07E0
FC3F07E0
FC3F07E0
FC3F07E0
FC3F07E0
FC3F07E0
FC3F07E0
003F0000
003F0000
003F0000
003F0000
003F0000
003F0000
003F0000
003F0000
003F0000
003F0000
003F0000
ENDCHAR
STARTCHAR uni0373
ENCODING 883
SWIDTH 835 0
DWIDTH 27 0
BBX 21 23 3 0
BITMAP
FFFFF8
FFFFF8
FFFFF8
FFFFF8
F8F8F8
F8F8F8
F8F8F8
F8F8F8
F8F8F8
F8F8F8
F8F8F8
F8F8F8
00F800
00F800
00F800
00F800
00F800
00F800
00F800
00F800
00F800
00F800
00F800
ENDCHAR
STARTCHAR uni0374
ENCODING 884
SWIDTH 301 0
DWIDTH 10 0
BBX 4 8 3 18
BITMAP
F0
F0
F0
E0
E0
E0
E0
C0
ENDCHAR
STARTCHAR uni0375
ENCODING 885
SWIDTH 301 0
DWIDTH 10 0
BBX 4 8 3 -7
BITMAP
70
70
70
F0
E0
E0
E0
E0
ENDCHAR
STARTCHAR uni0376
ENCODING 886
SWIDTH 836 0
DWIDTH 27 0
BBX 21 23 3 0
BITMAP
FC03F8
FC07F8
FC07F8
FC0FF8
FC0FF8
FC1FF8
FC1FF8
FC3FF8
FC3DF8
FC7DF8
FC79F8
FCF9F8
FCF1F8
FDF1F8
FDE1F8
FFE1F8
FFC1F8
FFC1F8
FF81F8
FF81F8
FF01F8
FF01F8
FE01F8
ENDCHAR
STARTCHAR uni0377
ENCODING 887
SWIDTH 700 0
DWIDTH 22 0
BBX 17 18 3 0
BITMAP
FC1F80
FC3F80
FC3F80
FC7F80
FC7F80
FCFF80
FCFF80
FDFF80
FFFF80
FFDF80
FFDF80
FF9F80
FF9F80
FF1F80
FF1F80
FE1F80
FE1F80
FC1F80
ENDCHAR
STARTCHAR uni037A
ENCODING 890
SWIDTH 500 0
DWIDTH 16 0
BBX 5 6 6 -7
BITMAP
F0
F0
F0
F0
78
78
ENDCHAR
STARTCHAR uni037B
ENCODING 891
SWIDTH 592 0
DWIDTH 19 0
BBX 15 18 1 0
BITMAP
1F80
7FE0
FFF8
FFF8
E1FC
80FC
007E
007E
007E
007E
007E
007E
80FC
C1FC
FFF8
FFF8
7FE0
1F80
ENDCHAR
STARTCHAR uni037C
ENCODING 892
SWIDTH 549 0
DWIDTH 18 0
BBX 15 18 1 0
BITMAP
03FC
0FFE
3FFE
3FFE
7F06
7E02
FCFC
FCFC
FCFC
FCFC
FCFC
FCFC
7E02
7F06
3FFE
3FFE
0FFE
03FC
ENDCHAR
STARTCHAR uni037D
ENCODING 893
SWIDTH 549 0
DWIDTH 18 0
BBX 15 18 1 0
BITMAP
1F80
7FE0
FFF8
FFF8
E1FC
80FC
3F7E
3F7E
3F7E
3F7E
3F7E
3F7E
80FC
C1FC
FFF8
FFF8
7FE0
1F80
ENDCHAR
STARTCHAR uni037E
ENCODING 894
SWIDTH 399 0
DWIDTH 13 0
BBX 8 23 2 -5
BITMAP
3F
3F
3F
3F
3F
3F
00
00
00
00
00
00
3F
3F
3F
3F
3F
3F
7E
7C
78
F0
E0
ENDCHAR
STARTCHAR uni037F
ENCODING 895
SWIDTH 372 0
DWIDTH 12 0
BBX 11 29 -2 -6
BITMAP
07E0
07E0
07E0
07E0
07E0
07E0
07E0
07E0
07E0
07E0
07E0
07E0
07E0
07E0
07E0
07E0
07E0
07E0
07E0
07E0
07E0
07E0
07E0
0FE0
1FC0
FFC0
FF80
FF00
F800
ENDCHAR
STARTCHAR tonos
ENCODING 900
SWIDTH 441 0
DWIDTH 14 0
BBX 9 6 5 20
BITMAP
0F80
1F00
1E00
3C00
7800
F000
ENDCHAR
STARTCHAR dieresistonos
ENCODING 901
SWIDTH 500 0
DWIDTH 16 0
BBX 11 11 3 21
BITMAP
03E0
07C0
0780
0F00
1E00
3C00
0000
F1E0
F1E0
F1E0
F1E0
ENDCHAR
STARTCHAR Alphatonos
ENCODING 902
SWIDTH 797 0
DWIDTH 26 0
BBX 24 26 1 0
BITMAP
0F0000
1E0000
3C0000
78FE00
70FF00
E1FF00
01FF80
01FF80
03FF80
03FFC0
07FFC0
07EFC0
07EFE0
0FE7E0
0FC7F0
0FC7F0
1FC3F0
1FFFF8
1FFFF8
3FFFF8
3FFFFC
7F00FC
7E00FC
7E00FE
FE007E
FC007F
ENDCHAR
STARTCHAR anoteleia
ENCODING 903
SWIDTH 379 0
DWIDTH 12 0
BBX 6 6 3 8
BITMAP
FC
FC
FC
FC
FC
FC
ENDCHAR
STARTCHAR Epsilontonos
ENCODING 904
SWIDTH 845 0
DWIDTH 27 0
BBX 26 26 -1 0
BITMAP
0F000000
1E000000
3C000000
387FFFC0
707FFFC0
E07FFFC0
007FFFC0
007E0000
007E0000
007E0000
007E0000
007E0000
007FFF80
007FFF80
007FFF80
007FFF80
007E0000
007E0000
007E0000
007E0000
007E0000
007E0000
007FFFC0
007FFFC0
007FFFC0
007FFFC0
ENDCHAR
STARTCHAR Etatonos
ENCODING 905
SWIDTH 1008 0
DWIDTH 32 0
BBX 30 26 -1 0
BITMAP
0F800000
1F000000
1E000000
3C7E00FC
787E00FC
F07E00FC
007E00FC
007E00FC
007E00FC
007E00FC
007E00FC
007E00FC
007FFFFC
007FFFFC
007FFFFC
007FFFFC
007E00FC
007E00FC
007E00FC
007E00FC
007E00FC
007E00FC
007E00FC
007E00FC
007E00FC
007E00FC
ENDCHAR
STARTCHAR Iotatonos
ENCODING 906
SWIDTH 563 0
DWIDTH 18 0
BBX 15 26 -1 0
BITMAP
0F00
1E00
1C00
387E
787E
F07E
007E
007E
007E
007E
007E
007E
007E
007E
007E
007E
007E
007E
007E
007E
007E
007E
007E
007E
007E
007E
ENDCHAR
STARTCHAR Omicrontonos
ENCODING 908
SWIDTH 890 0
DWIDTH 29 0
BBX 28 26 -1 0
BITMAP
0F800000
1F000000
1E000000
3C0FF000
787FFE00
F0FFFF00
01FFFF80
03FC1FC0
07F00FE0
07E007E0
07E007F0
0FE003F0
0FC003F0
0FC003F0
0FC003F0
0FC003F0
0FC003F0
0FE003F0
07E007F0
07E007E0
07F00FE0
03FC1FC0
01FFFF80
00FFFF00
007FFE00
000FF000
ENDCHAR
STARTCHAR Upsilontonos
ENCODING 910
SWIDTH 979 0
DWIDTH 31 0
BBX 33 26 -1 0
BITMAP
0F00000000
1E00000000
3C00000000
383F803F80
703FC07F00
E01FC0FF00
000FE0FE00
000FF1FC00
0007F3FC00
0003FBF800
0003FFF000
0001FFF000
0000FFE000
0000FFC000
00007F8000
00003F8000
00003F0000
00003F0000
00003F0000
00003F0000
00003F0000
00003F0000
00003F0000
00003F0000
00003F0000
00003F0000
ENDCHAR
STARTCHAR Omegatonos
ENCODING 911
SWIDTH 894 0
DWIDTH 29 0
BBX 29 26 -1 0
BITMAP
0F000000
1E000000
3C000000
780FF000
703FFE00
E0FFFF00
01FFFFC0
03FC1FC0
03F00FE0
07F007E0
07E003F0
07E003F0
0FE003F0
0FC003F0
0FC003F0
0FC003F0
07E003F0
07E003F0
07E007F0
03F007E0
01F80FC0
00FC1F80
1FFC3FF8
1FFC3FF8
1FFC3FF8
1FFC3FF8
ENDCHAR
STARTCHAR iotadieresistonos
ENCODING 912
SWIDTH 389 0
DWIDTH 12 0
BBX 11 32 1 0
BITMAP
03C0
0780
0F00
0E00
1C00
3800
0000
F1E0
F1E0
F1E0
F1E0
0000
0000
0000
3F00
3F00
3F00
3F00
3F00
3F00
3F00
3F00
3F00
3F00
3F00
3F00
3F00
3F80
3FE0
3FE0
1FE0
0FE0
ENDCHAR
STARTCHAR Alpha
ENCODING 913
SWIDTH 773 0
DWIDTH 25 0
BBX 24 23 0 0
BITMAP
00FF00
00FF00
00FF00
01FF80
01FF80
03FFC0
03FFC0
03FFC0
07FFE0
07E7E0
07E7E0
0FE7F0
0FC3F0
1FC3F8
1FFFF8
1FFFF8
3FFFFC
3FFFFC
3F00FC
7F00FE
7E007E
7E007E
FE007F
ENDCHAR
STARTCHAR Beta
ENCODING 914
SWIDTH 762 0
DWIDTH 24 0
BBX 19 23 3 0
BITMAP
FFFC00
FFFF00
FFFF80
FFFFC0
FC1FC0
FC0FC0
FC0FC0
FC0FC0
FC1F80
FFFF80
FFFE00
FFFF80
FFFFC0
FC0FC0
FC07E0
FC07E0
FC07E0
FC07E0
FC0FE0
FFFFC0
FFFFC0
FFFF80
FFFC00
ENDCHAR
STARTCHAR Gamma
ENCODING 915
SWIDTH 637 0
DWIDTH 20 0
BBX 17 23 3 0
BITMAP
FFFF80
FFFF80
FFFF80
FFFF80
FC0000
FC0000
FC0000
FC0000
FC0000
FC0000
FC0000
FC0000
FC0000
FC0000
FC0000
FC0000
FC0000
FC0000
FC0000
FC0000
FC0000
FC0000
FC0000
ENDCHAR
STARTCHAR uni0394
ENCODING 916
SWIDTH 773 0
DWIDTH 25 0
BBX 24 23 0 0
BITMAP
00FF00
00FF00
00FF00
01FF80
01FF80
03FFC0
03FFC0
03FFC0
07FFE0
07E7E0
07E7E0
0FE7F0
0FC3F0
1FC3F8
1FC3F8
1F81F8
3F81FC
3F00FC
3F00FC
7FFFFE
7FFFFE
7FFFFE
FFFFFF
ENDCHAR
STARTCHAR Epsilon
ENCODING 917
SWIDTH 683 0
DWIDTH 22 0
BBX 17 23 3 0
BITMAP
FFFF80
FFFF80
FFFF80
FFFF80
FC0000
FC0000
FC0000
FC0000
FC0000
FFFF00
FFFF00
FFFF00
FFFF00
FC0000
FC0000
FC0000
FC0000
FC0000
FC0000
FFFF80
FFFF80
FFFF80
FFFF80
ENDCHAR
STARTCHAR Zeta
ENCODING 918
SWIDTH 725 0
DWIDTH 23 0
BBX 20 23 1 0
BITMAP
FFFFF0
FFFFF0
FFFFF0
FFFFF0
000FE0
001FE0
003FC0
007F80
00FF00
00FE00
01FE00
03FC00
07F800
07F000
0FE000
1FE000
3FC000
7F8000
7F0000
FFFFF0
FFFFF0
FFFFF0
FFFFF0
ENDCHAR
STARTCHAR Eta
ENCODING 919
SWIDTH 836 0
DWIDTH 27 0
BBX 21 23 3 0
BITMAP
FC01F8
FC01F8
FC01F8
FC01F8
FC01F8
FC01F8
FC01F8
FC01F8
FC01F8
FFFFF8
FFFFF8
FFFFF8
FFFFF8
FC01F8
FC01F8
FC01F8
FC01F8
FC01F8
FC01F8
FC01F8
FC01F8
FC01F8
FC01F8
ENDCHAR
STARTCHAR Theta
ENCODING 920
SWIDTH 850 0
DWIDTH 27 0
BBX 24 23 2 0
BITMAP
00FF00
07FFE0
0FFFF0
1FFFF8
3F83FC
7F00FE
7E007E
7E007E
FC003F
FCFF3F
FCFF3F
FCFF3F
FCFF3F
FC003F
FC003F
7E007E
7E007E
7F00FE
3F81FC
1FFFF8
0FFFF0
07FFE0
00FF00
ENDCHAR
STARTCHAR Iota
ENCODING 921
SWIDTH 372 0
DWIDTH 12 0
BBX 6 23 3 0
BITMAP
FC
FC
FC
FC
FC
FC
FC
FC
FC
FC
FC
FC
FC
FC
FC
FC
FC
FC
FC
FC
FC
FC
FC
ENDCHAR
STARTCHAR Kappa
ENCODING 922
SWIDTH 774 0
DWIDTH 25 0
BBX 23 23 3 0
BITMAP
FC03F8
FC07F0
FC0FE0
FC1FC0
FC3F80
FC7F00
FCFE00
FDFC00
FFF800
FFF000
FFE000
FFE000
FFF000
FFF800
FDFC00
FCFE00
FC7F00
FC3F80
FC1FC0
FC0FE0
FC07F0
FC03F8
FC01FE
ENDCHAR
STARTCHAR Lambda
ENCODING 923
SWIDTH 773 0
DWIDTH 25 0
BBX 24 23 0 0
BITMAP
00FF00
00FF00
00FF00
01FF80
01FF80
03FFC0
03FFC0
03FFC0
07FFE0
07E7E0
07E7E0
0FE7F0
0FC3F0
1FC3F8
1FC3F8
1F81F8
3F81FC
3F00FC
3F00FC
7F00FE
7E007E
7E007E
FE007F
ENDCHAR
STARTCHAR Mu
ENCODING 924
SWIDTH 995 0
DWIDTH 32 0
BBX 26 23 3 0
BITMAP
FF003FC0
FF003FC0
FF807FC0
FF807FC0
FFC0FFC0
FFC0FFC0
FFC0FFC0
FFE1FFC0
FDE1EFC0
FDF3EFC0
FCF3CFC0
FCF3CFC0
FC7F8FC0
FC7F8FC0
FC7F8FC0
FC3F0FC0
FC3F0FC0
FC1E0FC0
FC1E0FC0
FC000FC0
FC000FC0
FC000FC0
FC000FC0
ENDCHAR
STARTCHAR Nu
ENCODING 925
SWIDTH 836 0
DWIDTH 27 0
BBX 21 23 3 0
BITMAP
FE01F8
FF01F8
FF01F8
FF81F8
FF81F8
FFC1F8
FFC1F8
FFE1F8
FDE1F8
FDF1F8
FCF1F8
FCF9F8
FC79F8
FC7DF8
FC3DF8
FC3FF8
FC1FF8
FC1FF8
FC0FF8
FC0FF8
FC07F8
FC07F8
FC03F8
ENDCHAR
STARTCHAR Xi
ENCODING 926
SWIDTH 631 0
DWIDTH 20 0
BBX 14 23 3 0
BITMAP
FFFC
FFFC
FFFC
FFFC
0000
0000
0000
0000
0000
3FF0
3FF0
3FF0
3FF0
0000
0000
0000
0000
0000
0000
FFFC
FFFC
FFFC
FFFC
ENDCHAR
STARTCHAR Omicron
ENCODING 927
SWIDTH 850 0
DWIDTH 27 0
BBX 24 23 2 0
BITMAP
00FF00
07FFE0
0FFFF0
1FFFF8
3F83FC
7F00FE
7E007E
7E007E
FC003F
FC003F
FC003F
FC003F
FC003F
FC003F
FC003F
7E007E
7E007E
7F00FE
3F81FC
1FFFF8
0FFFF0
07FFE0
00FF00
ENDCHAR
STARTCHAR Pi
ENCODING 928
SWIDTH 836 0
DWIDTH 27 0
BBX 21 23 3 0
BITMAP
FFFFF8
FFFFF8
FFFFF8
FFFFF8
FC01F8
FC01F8
FC01F8
FC01F8
FC01F8
FC01F8
FC01F8
FC01F8
FC01F8
FC01F8
FC01F8
FC01F8
FC01F8
FC01F8
FC01F8
FC01F8
FC01F8
FC01F8
FC01F8
ENDCHAR
STARTCHAR Rho
ENCODING 929
SWIDTH 732 0
DWIDTH 23 0
BBX 19 23 3 0
BITMAP
FFFC00
FFFF00
FFFF80
FFFFC0
FC1FC0
FC0FE0
FC07E0
FC07E0
FC07E0
FC0FE0
FC1FC0
FFFFC0
FFFF80
FFFF00
FFFC00
FC0000
FC0000
FC0000
FC0000
FC0000
FC0000
FC0000
FC0000
ENDCHAR
STARTCHAR Sigma
ENCODING 931
SWIDTH 683 0
DWIDTH 22 0
BBX 17 23 3 0
BITMAP
FFFF80
FFFF80
FFFF80
FFFF80
FF8000
7FC000
3FC000
1FE000
0FF000
07F000
03F800
07F000
07F000
0FE000
1FC000
3FC000
3F8000
7F0000
FF0000
FFFF80
FFFF80
FFFF80
FFFF80
ENDCHAR
STARTCHAR Tau
ENCODING 932
SWIDTH 682 0
DWIDTH 22 0
BBX 22 23 0 0
BITMAP
FFFFFC
FFFFFC
FFFFFC
FFFFFC
00FC00
00FC00
00FC00
00FC00
00FC00
00FC00
00FC00
00FC00
00FC00
00FC00
00FC00
00FC00
00FC00
00FC00
00FC00
00FC00
00FC00
00FC00
00FC00
ENDCHAR
STARTCHAR Upsilon
ENCODING 933
SWIDTH 724 0
DWIDTH 23 0
BBX 24 23 0 0
BITMAP
FF00FF
7F00FE
3F81FC
3FC3FC
1FC3F8
0FE7F0
0FFFF0
07FFE0
03FFC0
03FFC0
01FF80
00FF00
00FF00
007E00
007E00
007E00
007E00
007E00
007E00
007E00
007E00
007E00
007E00
ENDCHAR
STARTCHAR Phi
ENCODING 934
SWIDTH 850 0
DWIDTH 28 0
BBX 24 23 2 0
BITMAP
007E00
007E00
007E00
01FF80
0FFFF0
1FFFF8
3FFFFC
7F7EFE
7E7E7E
FC7E3F
FC7E3F
FC7E3F
FC7E3F
FC7E3F
7E7E7E
7F7EFE
3FFFFC
1FFFF8
0FFFF0
01FF80
007E00
007E00
007E00
ENDCHAR
STARTCHAR Chi
ENCODING 935
SWIDTH 770 0
DWIDTH 25 0
BBX 23 23 1 0
BITMAP
FF01FE
7F01FC
3F83F8
3FC7F8
1FC7F0
0FEFE0
07FFC0
07FFC0
03FF80
01FF00
01FF00
00FE00
01FF00
03FF80
03FF80
07FFC0
0FFFE0
0FEFE0
1FC7F0
3FC7F8
3F83F8
7F01FC
FF01FE
ENDCHAR
STARTCHAR Psi
ENCODING 936
SWIDTH 849 0
DWIDTH 28 0
BBX 24 23 2 0
BITMAP
FC7E3F
FC7E3F
FC7E3F
FC7E3F
FC7E3F
FC7E3F
FC7E3F
FC7E3F
FC7E3F
FC7E3F
7C7E3E
7E7E7E
7E7E7E
3F7EFC
1FFFF8
0FFFF0
07FFE0
01FF80
007E00
007E00
007E00
007E00
007E00
ENDCHAR
STARTCHAR uni03A9
ENCODING 937
SWIDTH 850 0
DWIDTH 27 0
BBX 26 23 1 0
BITMAP
007F8000
03FFF000
07FFF800
0FFFFC00
1FE1FE00
3F807F00
3F003F00
3F003F00
7E001F80
7E001F80
7E001F80
7E001F80
7E001F80
7E001F80
7F003F80
3F003F00
3F807F00
1F807E00
0FE1FC00
FFE1FFC0
FFE1FFC0
FFE1FFC0
FFE1FFC0
ENDCHAR
STARTCHAR Iotadieresis
ENCODING 938
SWIDTH 372 0
DWIDTH 12 0
BBX 11 30 1 0
BITMAP
F1E0
F1E0
F1E0
F1E0
0000
0000
0000
3F00
3F00
3F00
3F00
3F00
3F00
3F00
3F00
3F00
3F00
3F00
3F00
3F00
3F00
3F00
3F00
3F00
3F00
3F00
3F00
3F00
3F00
3F00
ENDCHAR
STARTCHAR Upsilondieresis
ENCODING 939
SWIDTH 724 0
DWIDTH 23 0
BBX 24 30 0 0
BITMAP
01E3C0
01E3C0
01E3C0
01E3C0
000000
000000
000000
FF00FF
7F00FE
3F81FC
3FC3FC
1FC3F8
0FE7F0
0FFFF0
07FFE0
03FFC0
03FFC0
01FF80
00FF00
00FF00
007E00
007E00
007E00
007E00
007E00
007E00
007E00
007E00
007E00
007E00
ENDCHAR
STARTCHAR alphatonos
ENCODING 940
SWIDTH 687 0
DWIDTH 22 0
BBX 19 26 1 0
BITMAP
003E00
003C00
007800
00F000
01E000
01C000
000000
000000
07F7E0
1FFFE0
3FFFC0
7FFFC0
7E3FC0
FE3FC0
FC1FC0
FC1F80
FC1F80
FC1F80
FC3F80
FC3F80
FE3F80
7E7F80
7FFFC0
3FFFE0
1FFBE0
0FF1E0
ENDCHAR
STARTCHAR epsilontonos
ENCODING 941
SWIDTH 556 0
DWIDTH 17 0
BBX 14 26 1 0
BITMAP
007C
0078
00F0
01E0
03C0
0380
0000
0000
1FC0
7FF0
FFF8
FFF8
FE18
FC08
7E00
7FE0
1FE0
7FE0
FE00
FC00
FC04
FE0C
FFFC
7FFC
3FF8
0FE0
ENDCHAR
STARTCHAR etatonos
ENCODING 942
SWIDTH 711 0
DWIDTH 23 0
BBX 18 33 3 -7
BITMAP
007C00
00F800
00F000
01E000
03C000
078000
000000
000000
FC7E00
FDFF00
FFFF80
FFFF80
FF1FC0
FE0FC0
FC0FC0
FC0FC0
FC0FC0
FC0FC0
FC0FC0
FC0FC0
FC0FC0
FC0FC0
FC0FC0
FC0FC0
FC0FC0
FC0FC0
000FC0
000FC0
000FC0
000FC0
000FC0
000FC0
000FC0
ENDCHAR
STARTCHAR iotatonos
ENCODING 943
SWIDTH 389 0
DWIDTH 12 0
BBX 10 26 2 0
BITMAP
0F80
1F00
1E00
3C00
7800
F000
0000
0000
7E00
7E00
7E00
7E00
7E00
7E00
7E00
7E00
7E00
7E00
7E00
7E00
7E00
7E00
7FC0
7FC0
3FC0
1FC0
ENDCHAR
STARTCHAR upsilondieresistonos
ENCODING 944
SWIDTH 675 0
DWIDTH 22 0
BBX 18 32 3 0
BITMAP
00F800
00F000
01E000
03C000
078000
070000
000000
3C7800
3C7800
3C7800
3C7800
000000
000000
000000
FC3E00
FC1F00
FC1F00
FC1F80
FC0F80
FC0FC0
FC0FC0
FC0FC0
FC0FC0
FC0FC0
FC0FC0
FC0FC0
FC1F80
FE3F80
FFFF00
7FFF00
3FFE00
0FF800
ENDCHAR
STARTCHAR alpha
ENCODING 945
SWIDTH 687 0
DWIDTH 22 0
BBX 19 18 1 0
BITMAP
07F7E0
1FFFE0
3FFFC0
7FFFC0
7E3FC0
FE3FC0
FC1FC0
FC1F80
FC1F80
FC1F80
FC3F80
FC3F80
FE3F80
7E7F80
7FFFC0
3FFFE0
1FFBE0
0FF1E0
ENDCHAR
STARTCHAR beta
ENCODING 946
SWIDTH 715 0
DWIDTH 23 0
BBX 19 31 3 -7
BITMAP
03F000
0FFC00
3FFE00
3FFE00
7E7F00
7C3F00
FC3F00
FC3F00
FC3F00
FC3E00
FC7E00
FCF800
FCFE00
FCFF80
FC1FC0
FC0FC0
FC07E0
FC07E0
FE07E0
FF0FE0
FFFFC0
FFFFC0
FDFF80
FC7E00
FC0000
FC0000
FC0000
FC0000
FC0000
FC0000
FC0000
ENDCHAR
STARTCHAR gamma
ENCODING 947
SWIDTH 681 0
DWIDTH 22 0
BBX 21 25 0 -7
BITMAP
F803F8
FE03F0
FF03F0
3F83F0
1F87E0
1F87E0
0FC7C0
0FCFC0
0FCFC0
07EF80
07EF80
07FF80
03FF00
03FF00
01FE00
01FE00
01FE00
00FC00
00FC00
00FC00
00FC00
00FC00
00FC00
00FC00
00FC00
ENDCHAR
STARTCHAR delta
ENCODING 948
SWIDTH 687 0
DWIDTH 22 0
BBX 19 24 1 0
BITMAP
03F800
1FFE00
3FFF00
3FFF00
3F0300
3F8000
1FF800
0FFF00
1FFF80
3FFFC0
7E1FC0
7E0FE0
FC07E0
FC07E0
FC07E0
FC07E0
FC07E0
FC07E0
7E0FC0
7F1FC0
3FFF80
1FFF80
0FFE00
03F800
ENDCHAR
STARTCHAR epsilon
ENCODING 949
SWIDTH 556 0
DWIDTH 17 0
BBX 14 18 1 0
BITMAP
1FC0
7FF0
FFF8
FFF8
FE18
FC08
7E00
7FE0
1FE0
7FE0
FE00
FC00
FC04
FE0C
FFFC
7FFC
3FF8
0FE0
ENDCHAR
STARTCHAR zeta
ENCODING 950
SWIDTH 590 0
DWIDTH 19 0
BBX 16 31 1 -7
BITMAP
FFFF
FFFF
FFFF
FFFF
007E
01F8
03F0
07C0
1F80
1F00
3F00
7E00
7E00
FC00
FC00
FC00
FC00
FC00
FE00
7F00
7FF8
3FFE
1FFE
03FF
000F
000F
000F
003F
003E
003E
0038
ENDCHAR
STARTCHAR eta
ENCODING 951
SWIDTH 711 0
DWIDTH 23 0
BBX 18 25 3 -7
BITMAP
FC7E00
FDFF00
FFFF80
FFFF80
FF1FC0
FE0FC0
FC0FC0
FC0FC0
FC0FC0
FC0FC0
FC0FC0
FC0FC0
FC0FC0
FC0FC0
FC0FC0
FC0FC0
FC0FC0
FC0FC0
000FC0
000FC0
000FC0
000FC0
000FC0
000FC0
000FC0
ENDCHAR
STARTCHAR theta
ENCODING 952
SWIDTH 687 0
DWIDTH 22 0
BBX 19 24 1 0
BITMAP
03F800
0FFE00
1FFF00
3FFF80
7F1FC0
7E0FC0
7E0FC0
FC07E0
FC07E0
FC07E0
FFFFE0
FFFFE0
FFFFE0
FC07E0
FC07E0
FC07E0
FC07E0
7E0FC0
7E0FC0
7F1FC0
3FFF80
1FFF00
0FFE00
03F800
ENDCHAR
STARTCHAR iota
ENCODING 953
SWIDTH 389 0
DWIDTH 12 0
BBX 9 18 3 0
BITMAP
FC00
FC00
FC00
FC00
FC00
FC00
FC00
FC00
FC00
FC00
FC00
FC00
FC00
FC00
FF80
FF80
7F80
3F80
ENDCHAR
STARTCHAR kappa
ENCODING 954
SWIDTH 710 0
DWIDTH 23 0
BBX 18 18 3 0
BITMAP
FC1F80
FC3F00
FC7E00
FCFC00
FDF800
FFF000
FFE000
FFE000
FFF000
FFF800
FFF800
FDFC00
FDFE00
FCFE00
FC7F00
FC7F80
FC3F80
FC1FC0
ENDCHAR
STARTCHAR lambda
ENCODING 955
SWIDTH 632 0
DWIDTH 20 0
BBX 18 24 1 0
BITMAP
7E0000
7F8000
7FC000
0FC000
0FE000
07E000
07E000
07F000
03F000
07F800
07F800
07F800
0FFC00
0FFC00
1FFC00
1FFE00
1FFE00
3FFF00
3F3F00
3F3F00
7F3F80
7E1F80
7E1F80
FE1FC0
ENDCHAR
STARTCHAR uni03BC
ENCODING 956
SWIDTH 735 0
DWIDTH 24 0
BBX 20 25 3 -7
BITMAP
FC0FC0
FC0FC0
FC0FC0
FC0FC0
FC0FC0
FC0FC0
FC0FC0
FC0FC0
FC0FC0
FC0FC0
FC0FC0
FC0FC0
FC0FC0
FE1FC0
FFFFF0
FFFFF0
FFFBF0
FDE1F0
FC0000
FC0000
FC0000
FC0000
FC0000
FC0000
FC0000
ENDCHAR
STARTCHAR nu
ENCODING 957
SWIDTH 681 0
DWIDTH 22 0
BBX 20 18 0 0
BITMAP
FE0F80
7E07C0
7E07E0
7F07E0
3F03F0
3F83F0
1F83F0
1F83F0
1FC3F0
0FC3E0
0FC3E0
0FE7E0
07E7C0
07F780
03FF00
03FE00
03FE00
01FC00
ENDCHAR
STARTCHAR xi
ENCODING 958
SWIDTH 590 0
DWIDTH 19 0
BBX 16 31 1 -7
BITMAP
FFFF
FFFF
FFFF
FFFF
0FE0
1F80
3F00
3F00
3F00
1FC0
07FC
0FFC
3FFC
7FC0
7E00
FC00
FC00
FC00
FC00
FF00
7FF8
3FFE
1FFE
07FF
000F
000F
000F
003F
003E
003E
0038
ENDCHAR
STARTCHAR omicron
ENCODING 959
SWIDTH 687 0
DWIDTH 22 0
BBX 19 18 1 0
BITMAP
03F800
0FFE00
3FFF80
3FFF80
7F1FC0
7E0FC0
FC07E0
FC07E0
FC07E0
FC07E0
FC07E0
FC07E0
7E0FC0
7F1FC0
3FFF80
3FFF80
0FFE00
03F800
ENDCHAR
STARTCHAR pi
ENCODING 960
SWIDTH 791 0
DWIDTH 25 0
BBX 22 18 1 0
BITMAP
FFFFFC
FFFFFC
FFFFFC
1F87E0
1F87E0
1F87E0
1F87E0
1F87E0
1F87E0
1F87E0
1F87E0
1F87E0
1F87E0
1F87E0
1F87FC
1F87FC
1F83FC
1F81FC
ENDCHAR
STARTCHAR rho
ENCODING 961
SWIDTH 715 0
DWIDTH 23 0
BBX 19 25 3 -7
BITMAP
03FC00
0FFF00
1FFF80
3FFFC0
7F1FC0
7E0FE0
FC07E0
FC07E0
FC07E0
FC07E0
FC07E0
FC07E0
FE0FE0
FF1FC0
FFFFC0
FFFF80
FDFF00
FC7C00
FC0000
FC0000
FC0000
FC0000
FC0000
FC0000
FC0000
ENDCHAR
STARTCHAR sigma1
ENCODING 962
SWIDTH 592 0
DWIDTH 19 0
BBX 15 25 1 -7
BITMAP
03FC
0FFE
1FFE
3FFE
7F86
7E02
FE00
FC00
FC00
FC00
FC00
FC00
FC00
7E00
7F00
3FF0
1FFC
07FC
001E
001E
001E
007E
007C
007C
0070
ENDCHAR
STARTCHAR sigma
ENCODING 963
SWIDTH 778 0
DWIDTH 25 0
BBX 22 18 1 0
BITMAP
07FFFC
1FFFFC
3FFFFC
7FFFC0
7F1FC0
FE0FE0
FC07E0
FC07E0
FC07E0
FC07E0
FC07E0
FC07E0
7E0FC0
7F1FC0
3FFF80
3FFF80
0FFE00
03F800
ENDCHAR
STARTCHAR tau
ENCODING 964
SWIDTH 638 0
DWIDTH 22 0
BBX 20 18 1 0
BITMAP
FFFFF0
FFFFF0
FFFFF0
01F800
01F800
01F800
01F800
01F800
01F800
01F800
01F800
01F800
01F800
01F800
01FF00
01FF00
00FF00
007F00
ENDCHAR
STARTCHAR upsilon
ENCODING 965
SWIDTH 675 0
DWIDTH 22 0
BBX 18 18 3 0
BITMAP
FC3E00
FC1F00
FC1F00
FC1F80
FC0F80
FC0FC0
FC0FC0
FC0FC0
FC0FC0
FC0FC0
FC0FC0
FC0FC0
FC1F80
FE3F80
FFFF00
7FFF00
3FFE00
0FF800
ENDCHAR
STARTCHAR phi
ENCODING 966
SWIDTH 782 0
DWIDTH 25 0
BBX 22 25 1 -7
BITMAP
070F80
0F3FE0
3F7FF0
3F7FF8
7EFDF8
7EFCF8
FCFCFC
FCFCFC
FCFCFC
FCFCFC
FCFCFC
FCFCFC
FEFDFC
7EFFF8
7FFFF8
3FFFF0
1FFFE0
03FF00
00FC00
00FC00
00FC00
00FC00
00FC00
00FC00
00FC00
ENDCHAR
STARTCHAR chi
ENCODING 967
SWIDTH 645 0
DWIDTH 21 0
BBX 19 25 1 -7
BITMAP
FC0FE0
FF1FC0
FF9FC0
1FDF80
0FFF80
0FFF00
0FFF00
07FE00
07FE00
07FC00
03FC00
03F800
03F800
03F800
07F800
07FC00
0FFC00
0FFC00
1FFC00
1FFE00
3FFE00
3F7F00
7F3FE0
7F1FE0
FE07E0
ENDCHAR
STARTCHAR psi
ENCODING 968
SWIDTH 793 0
DWIDTH 27 0
BBX 22 25 3 -7
BITMAP
FCFCFC
FCFCFC
FCFCFC
FCFCFC
FCFCFC
FCFCFC
FCFCFC
FCFCFC
FCFCFC
FCFCFC
FCFCFC
FCFCFC
7EFDF8
7EFDF8
3FFFF0
3FFFF0
0FFFC0
03FF00
00FC00
00FC00
00FC00
00FC00
00FC00
00FC00
00FC00
ENDCHAR
STARTCHAR omega
ENCODING 969
SWIDTH 869 0
DWIDTH 28 0
BBX 26 18 1 0
BITMAP
1F003E00
3E001F00
3E001F00
7E001F80
7C000F80
FC000FC0
FC3F0FC0
FC3F0FC0
FC3F0FC0
FC3F0FC0
FC3F0FC0
FC3F0FC0
FC7F8FC0
7E7F9F80
7FFFFF80
3FF3FF00
1FF3FE00
0FC0FC00
ENDCHAR
STARTCHAR iotadieresis
ENCODING 970
SWIDTH 389 0
DWIDTH 12 0
BBX 11 25 1 0
BITMAP
F1E0
F1E0
F1E0
F1E0
0000
0000
0000
3F00
3F00
3F00
3F00
3F00
3F00
3F00
3F00
3F00
3F00
3F00
3F00
3F00
3F80
3FE0
3FE0
1FE0
0FE0
ENDCHAR
STARTCHAR upsilondieresis
ENCODING 971
SWIDTH 675 0
DWIDTH 22 0
BBX 18 25 3 0
BITMAP
3E7C00
3E7C00
3E7C00
3E7C00
000000
000000
000000
FC3E00
FC1F00
FC1F00
FC1F80
FC0F80
FC0FC0
FC0FC0
FC0FC0
FC0FC0
FC0FC0
FC0FC0
FC0FC0
FC1F80
FE3F80
FFFF00
7FFF00
3FFE00
0FF800
ENDCHAR
STARTCHAR omicrontonos
ENCODING 972
SWIDTH 687 0
DWIDTH 22 0
BBX 19 26 1 0
BITMAP
003C00
007C00
007800
00F000
01E000
03C000
000000
000000
03F800
0FFE00
3FFF80
3FFF80
7F1FC0
7E0FC0
FC07E0
FC07E0
FC07E0
FC07E0
FC07E0
FC07E0
7E0FC0
7F1FC0
3FFF80
3FFF80
0FFE00
03F800
ENDCHAR
STARTCHAR upsilontonos
ENCODING 973
SWIDTH 675 0
DWIDTH 22 0
BBX 18 26 3 0
BITMAP
007800
00F000
01E000
03C000
038000
070000
000000
000000
FC3E00
FC1F00
FC1F00
FC1F80
FC0F80
FC0FC0
FC0FC0
FC0FC0
FC0FC0
FC0FC0
FC0FC0
FC0FC0
FC1F80
FE3F80
FFFF00
7FFF00
3FFE00
0FF800
ENDCHAR
STARTCHAR omegatonos
ENCODING 974
SWIDTH 869 0
DWIDTH 28 0
BBX 26 26 1 0
BITMAP
0003C000
00078000
000F0000
000E0000
001E0000
003C0000
00000000
00000000
1F003E00
3E001F00
3E001F00
7E001F80
7C000F80
FC000FC0
FC3F0FC0
FC3F0FC0
FC3F0FC0
FC3F0FC0
FC3F0FC0
FC3F0FC0
FC7F8FC0
7E7F9F80
7FFFFF80
3FF3FF00
1FF3FE00
0FC0FC00
ENDCHAR
STARTCHAR uni03CF
ENCODING 975
SWIDTH 774 0
DWIDTH 25 0
BBX 22 30 3 -7
BITMAP
FC03F8
FC07F0
FC0FE0
FC1FC0
FC3F80
FC7F00
FCFE00
FDFC00
FFF800
FFF000
FFE000
FFE000
FFF000
FFF800
FDFC00
FCFE00
FC7F00
FC3F80
FC1FC0
FC0FE0
FC07F0
FC03F8
FC01FC
0000FC
0001F8
0001F0
0003E0
0007C0
000F00
001E00
ENDCHAR
STARTCHAR uni03D0
ENCODING 976
SWIDTH 650 0
DWIDTH 21 0
BBX 17 25 2 0
BITMAP
008000
0FF800
1FFC00
3FFE00
7F3E00
7C1F00
7C1F00
F81F00
F81F00
F83F00
F9FE00
FFFC00
FFFE00
FFFF00
FFFF80
F81F80
F80F80
F80F80
FC0F80
7C1F80
7E1F80
7FFF00
3FFF00
1FFE00
07FC00
ENDCHAR
STARTCHAR theta1
ENCODING 977
SWIDTH 660 0
DWIDTH 21 0
BBX 18 25 2 0
BITMAP
006000
0FF800
1FFE00
3FFF00
3F3F00
3E1F80
3E0F80
3E0F80
3E0F80
3E0780
3F87C0
1FFFC0
0FFFC0
03FFC0
F83FC0
F80F80
F80F80
F80F80
FC0F80
FC1F80
7E1F00
7FFF00
3FFE00
1FFC00
07F800
ENDCHAR
STARTCHAR Upsilon1
ENCODING 978
SWIDTH 746 0
DWIDTH 24 0
BBX 23 23 1 0
BITMAP
FC01F8
FF03FC
FF8FFC
FFCFFE
1FDFFC
07DF3C
03FE18
03FE00
01FC00
01FC00
01FC00
01FC00
00FC00
00FC00
00FC00
00FC00
00FC00
00FC00
00FC00
00FC00
00FC00
00FC00
00FC00
ENDCHAR
STARTCHAR uni03D3
ENCODING 979
SWIDTH 981 0
DWIDTH 31 0
BBX 32 26 -1 0
BITMAP
0F000000
1E000000
3C000000
387F007E
707F81FF
E07FC3FF
007FE7FF
0007F7FF
0003FFCF
0001FF86
0000FF00
0000FF00
00007F00
00007E00
00007E00
00007E00
00007E00
00007E00
00007E00
00007E00
00007E00
00007E00
00007E00
00007E00
00007E00
00007E00
ENDCHAR
ENDFONT
